<svg version="1.1" viewBox="0.0 0.0 3840.0 2160.0" fill="none" stroke="none" stroke-linecap="square" stroke-miterlimit="10" xmlns:xlink="http://www.w3.org/1999/xlink" xmlns="http://www.w3.org/2000/svg"><clipPath id="g38e7b550df0_0_18.0"><path d="m0 0l3840.0 0l0 2160.0l-3840.0 0l0 -2160.0z" clip-rule="nonzero"/></clipPath><g clip-path="url(#g38e7b550df0_0_18.0)"><path fill="#ffffff" d="m0 0l3840.0 0l0 2160.0l-3840.0 0z" fill-rule="evenodd"/><path fill="#cc4125" d="m964.4744 1095.8435l0 0c0 -521.9569 423.1297 -945.0866 945.0866 -945.0866l0 0c250.65259 0 491.03906 99.571335 668.2771 276.80945c177.23828 177.2381 276.80957 417.62457 276.80957 668.27716l0 0c0 521.9569 -423.12964 945.08655 -945.0867 945.08655l0 0c-521.9569 0 -945.0866 -423.12964 -945.0866 -945.08655z" fill-rule="evenodd"/><path stroke="#595959" stroke-width="4.404199475065616" stroke-linejoin="round" stroke-linecap="butt" d="m964.4744 1095.8435l0 0c0 -521.9569 423.1297 -945.0866 945.0866 -945.0866l0 0c250.65259 0 491.03906 99.571335 668.2771 276.80945c177.23828 177.2381 276.80957 417.62457 276.80957 668.27716l0 0c0 521.9569 -423.12964 945.08655 -945.0867 945.08655l0 0c-521.9569 0 -945.0866 -423.12964 -945.0866 -945.08655z" fill-rule="evenodd"/><path fill="#cc4125" d="m816.2834 201.67162l260.28607 0l0 0l111.55115 0l74.36743 0l0 104.72441l0 0l0 44.881897l0 29.921234l-74.36743 0l90.81909 77.05502l-202.37024 -77.05502l-260.28607 0l0 -29.921234l0 -44.881897l0 0z" fill-rule="evenodd"/><path fill="#ffffff" d="m909.1047 220.14824q4.28125 0 8.015625 2.46875q3.75 2.453125 6.046875 6.65625q2.3125 4.1875 2.3125 9.375q0 5.09375 -2.3125 9.296875q-2.296875 4.1875 -6.046875 6.703125q-3.734375 2.5000153 -8.015625 2.5000153l-15.125 0l0.828125 -1.4843903l0 17.01564q0 2.140625 -1.328125 3.578125q-1.3125 1.4375 -3.4375 1.4375q-2.0625 0 -3.375 -1.4375q-1.3125 -1.4375 -1.3125 -3.578125l0 -47.51564q0 -2.140625 1.4375 -3.578125q1.4375 -1.4375 3.578125 -1.4375l18.734375 0zm0 27.625q1.5625 0 3.046875 -1.3125q1.484375 -1.328125 2.46875 -3.421875q0.984375 -2.09375 0.984375 -4.390625q0 -2.390625 -0.984375 -4.4375q-0.984375 -2.0625 -2.46875 -3.328125q-1.484375 -1.28125 -3.046875 -1.28125l-15.28125 0l0.984375 -1.484375l0 20.96875l-0.90625 -1.3125l15.203125 0zm48.10907 -14.890625q5.921875 0 9.0 2.546875q3.078125 2.546875 4.21875 6.78125q1.15625 4.234375 1.15625 9.421875l0 21.04689q0 2.140625 -1.390625 3.578125q-1.390625 1.4375 -3.53125 1.4375q-2.140625 0 -3.546875 -1.4375q-1.390625 -1.4375 -1.390625 -3.578125l0 -21.04689q0 -2.71875 -0.65625 -4.890625q-0.65625 -2.1875 -2.390625 -3.5q-1.71875 -1.3125 -4.921875 -1.3125q-3.125 0 -5.34375 1.3125q-2.21875 1.3125 -3.34375 3.5q-1.109375 2.171875 -1.109375 4.890625l0 21.04689q0 2.140625 -1.390625 3.578125q-1.390625 1.4375 -3.53125 1.4375q-2.140625 0 -3.546875 -1.4375q-1.390625 -1.4375 -1.390625 -3.578125l0 -50.812515q0 -2.140625 1.390625 -3.578125q1.40625 -1.4375 3.546875 -1.4375q2.140625 0 3.53125 1.4375q1.390625 1.4375 1.390625 3.578125l0 20.390625l-1.21875 -0.25q0.734375 -1.390625 2.046875 -2.984375q1.3125 -1.609375 3.203125 -3.0q1.890625 -1.40625 4.1875 -2.265625q2.3125 -0.875 5.03125 -0.875zm57.300232 0.828125q2.140625 0 3.53125 1.4375q1.40625 1.4375 1.40625 3.578125l0 34.937515q0 7.5625 -2.84375 12.046875q-2.828125 4.484375 -7.609375 6.453125q-4.765625 1.96875 -10.6875 1.96875q-2.625 0 -5.59375 -0.40625q-2.953125 -0.40625 -4.84375 -1.234375q-2.46875 -1.0625 -3.421875 -2.671875q-0.9375 -1.59375 -0.359375 -3.40625q0.734375 -2.390625 2.375 -3.25q1.65625 -0.859375 3.46875 -0.203125q1.3125 0.40625 3.453125 1.265625q2.140625 0.875 4.921875 0.875q3.78125 0 6.28125 -1.03125q2.515625 -1.03125 3.796875 -3.453125q1.28125 -2.421875 1.28125 -6.625l0 -5.5l1.71875 1.96875q-1.390625 2.71875 -3.5 4.484375q-2.09375 1.765625 -4.96875 2.671875q-2.875 0.90625 -6.578125 0.90625q-4.359375 0 -7.609375 -2.015625q-3.234375 -2.015625 -5.046875 -5.59375q-1.8125 -3.578125 -1.8125 -8.1875l0 -24.000015q0 -2.140625 1.390625 -3.578125q1.40625 -1.4375 3.546875 -1.4375q2.140625 0 3.53125 1.4375q1.390625 1.4375 1.390625 3.578125l0 21.04689q0 5.34375 2.34375 7.53125q2.34375 2.171875 6.546875 2.171875q2.875 0 4.84375 -1.109375q1.984375 -1.109375 3.046875 -3.28125q1.0625 -2.1875 1.0625 -5.3125l0 -21.04689q0 -2.140625 1.390625 -3.578125q1.40625 -1.4375 3.546875 -1.4375zm12.252502 37.156265q-0.828125 -1.140625 -0.75 -2.953125q0.09375 -1.8125 2.140625 -3.125q1.328125 -0.828125 2.796875 -0.703125q1.484375 0.125 2.875 1.515625q2.390625 2.390625 5.015625 3.703125q2.640625 1.3125 6.578125 1.3125q1.234375 -0.078125 2.71875 -0.359375q1.484375 -0.296875 2.59375 -1.3125q1.109375 -1.03125 1.109375 -3.171875q0 -1.8125 -1.234375 -2.875q-1.234375 -1.078125 -3.25 -1.8125q-2.015625 -0.734375 -4.484375 -1.390625q-2.546875 -0.75 -5.21875 -1.640625q-2.671875 -0.90625 -4.890625 -2.3437653q-2.21875 -1.453125 -3.625 -3.828125q-1.390625 -2.390625 -1.390625 -6.0q0 -4.109375 2.296875 -6.984375q2.3125 -2.890625 5.96875 -4.453125q3.65625 -1.5625 7.6875 -1.5625q2.546875 0 5.34375 0.625q2.796875 0.609375 5.34375 1.96875q2.546875 1.359375 4.28125 3.578125q0.890625 1.234375 1.046875 2.96875q0.171875 1.71875 -1.546875 3.109375q-1.234375 0.984375 -2.875 0.875q-1.640625 -0.125 -2.71875 -1.125q-1.390625 -1.796875 -3.734375 -2.859375q-2.34375 -1.078125 -5.390625 -1.078125q-1.234375 0 -2.671875 0.296875q-1.4375 0.28125 -2.515625 1.234375q-1.0625 0.9375 -1.0625 2.984375q0 1.890625 1.234375 3.0q1.234375 1.109375 3.328125 1.8125q2.09375 0.703125 4.484375 1.359375q2.46875 0.65625 5.015625 1.5625q2.546875 0.90625 4.6875 2.390625q2.140625 1.4687653 3.453125 3.8125153q1.3125 2.34375 1.3125 5.96875q0 4.1875 -2.46875 7.15625q-2.46875 2.953125 -6.171875 4.484375q-3.6875 1.515625 -7.5625 1.515625q-4.84375 0 -9.703125 -1.6875q-4.84375 -1.6875 -8.046875 -5.96875zm51.473145 1.8125q0 2.140625 -1.40625 3.578125q-1.390625 1.4375 -3.53125 1.4375q-2.140625 0 -3.546875 -1.4375q-1.390625 -1.4375 -1.390625 -3.578125l0 -33.95314q0 -2.140625 1.390625 -3.578125q1.40625 -1.4375 3.546875 -1.4375q2.140625 0 3.53125 1.4375q1.40625 1.4375 1.40625 3.578125l0 33.95314zm-5.03125 -44.312515q-2.796875 0 -3.953125 -0.90625q-1.140625 -0.90625 -1.140625 -3.203125l0 -1.5625q0 -2.390625 1.265625 -3.25q1.28125 -0.859375 3.921875 -0.859375q2.875 0 4.015625 0.90625q1.15625 0.890625 1.15625 3.203125l0 1.5625q0 2.375 -1.234375 3.25q-1.234375 0.859375 -4.03125 0.859375zm34.70044 4.515625q4.6875 0 8.1875 1.0q3.5 0.984375 5.421875 2.75q1.9375 1.765625 1.9375 4.234375q0 1.640625 -0.984375 3.078125q-0.984375 1.4375 -2.875 1.4375q-1.328125 0 -2.1875 -0.359375q-0.859375 -0.375 -1.515625 -0.953125q-0.65625 -0.578125 -1.5625 -1.078125q-0.828125 -0.484375 -2.515625 -0.765625q-1.6875 -0.296875 -2.5 -0.296875q-4.203125 0 -7.125 1.8125q-2.90625 1.8125 -4.46875 4.890625q-1.5625 3.078125 -1.5625 7.109375q0 3.9531403 1.59375 7.0312653q1.609375 3.078125 4.4375 4.890625q2.84375 1.8125 6.546875 1.8125q2.0625 0 3.53125 -0.25q1.484375 -0.25 2.46875 -0.734375q1.15625 -0.65625 2.0625 -1.390625q0.90625 -0.75 2.703125 -0.75q2.140625 0 3.28125 1.359375q1.15625 1.34375 1.15625 3.328125q0 2.046875 -2.296875 3.734375q-2.296875 1.6875 -6.046875 2.71875q-3.734375 1.03125 -8.09375 1.03125q-6.5 0 -11.265625 -3.0q-4.765625 -3.015625 -7.359375 -8.1875q-2.59375 -5.1875 -2.59375 -11.593765q0 -6.734375 2.75 -11.875q2.765625 -5.140625 7.65625 -8.0625q4.890625 -2.921875 11.21875 -2.921875zm59.20691 0q2.140625 0 3.53125 1.40625q1.40625 1.390625 1.40625 3.609375l0 34.781265q0 2.140625 -1.40625 3.578125q-1.390625 1.4375 -3.53125 1.4375q-2.140625 0 -3.546875 -1.4375q-1.390625 -1.4375 -1.390625 -3.578125l0 -4.03125l1.8125 0.75q0 1.0625 -1.15625 2.59375q-1.15625 1.515625 -3.125 3.0q-1.96875 1.46875 -4.640625 2.5q-2.671875 1.03125 -5.796875 1.03125q-5.671875 0 -10.28125 -2.921875q-4.59375 -2.921875 -7.28125 -8.0625q-2.671875 -5.140625 -2.671875 -11.79689q0 -6.734375 2.671875 -11.875q2.6875 -5.140625 7.203125 -8.0625q4.515625 -2.921875 10.03125 -2.921875q3.53125 0 6.484375 1.078125q2.96875 1.0625 5.140625 2.71875q2.1875 1.640625 3.375 3.328125q1.1875 1.671875 1.1875 2.828125l-2.953125 1.0625l0 -6.0q0 -2.140625 1.390625 -3.578125q1.40625 -1.4375 3.546875 -1.4375zm-16.609375 36.593765q3.609375 0 6.328125 -1.8125q2.71875 -1.8125 4.234375 -4.9375q1.515625 -3.125 1.515625 -6.9843903q0 -3.953125 -1.515625 -7.0625q-1.515625 -3.125 -4.234375 -4.9375q-2.71875 -1.8125 -6.328125 -1.8125q-3.53125 0 -6.25 1.8125q-2.71875 1.8125 -4.234375 4.9375q-1.515625 3.109375 -1.515625 7.0625q0 3.8593903 1.515625 6.9843903q1.515625 3.125 4.234375 4.9375q2.71875 1.8125 6.25 1.8125zm42.91455 3.203125q0 2.140625 -1.4375 3.578125q-1.4375 1.4375 -3.578125 1.4375q-2.046875 0 -3.453125 -1.4375q-1.390625 -1.4375 -1.390625 -3.578125l0 -50.812515q0 -2.140625 1.4375 -3.578125q1.4375 -1.4375 3.578125 -1.4375q2.125 0 3.484375 1.4375q1.359375 1.4375 1.359375 3.578125l0 50.812515z" fill-rule="nonzero"/><path fill="#ffffff" d="m916.9171 289.14822q5.921875 0 10.515625 2.21875q4.609375 2.21875 7.78125 6.203125q3.171875 3.984375 4.765625 9.203125q1.609375 5.21875 1.609375 11.140625q0 7.984375 -2.875 14.515625q-2.875 6.53125 -8.34375 10.40625q-5.46875 3.859375 -13.453125 3.859375l-19.640625 0q-2.140625 0 -3.578125 -1.4375q-1.4375 -1.4375 -1.4375 -3.578125l0 -47.515625q0 -2.140625 1.4375 -3.578125q1.4375 -1.4375 3.578125 -1.4375l19.640625 0zm-0.8125 48.09375q5.171875 0 8.453125 -2.671875q3.296875 -2.671875 4.8125 -7.0625q1.53125 -4.40625 1.53125 -9.59375q0 -3.859375 -0.875 -7.34375q-0.859375 -3.5 -2.671875 -6.171875q-1.796875 -2.671875 -4.59375 -4.234375q-2.796875 -1.5625 -6.65625 -1.5625l-14.390625 0l0.8125 -0.75l0 40.296875l-0.484375 -0.90625l14.0625 0zm77.444214 -12.5q0 6.75 -3.0 11.890625q-3.0 5.125 -8.0625 8.015625q-5.046875 2.875 -11.296875 2.875q-6.25 0 -11.3125 -2.875q-5.046875 -2.890625 -8.0625 -8.015625q-3.0 -5.140625 -3.0 -11.890625q0 -6.734375 3.0 -11.875q3.015625 -5.140625 8.0625 -8.0625q5.0625 -2.921875 11.3125 -2.921875q6.25 0 11.296875 2.921875q5.0625 2.921875 8.0625 8.0625q3.0 5.140625 3.0 11.875zm-9.859375 0q0 -4.1875 -1.6875 -7.265625q-1.6875 -3.09375 -4.53125 -4.8125q-2.828125 -1.734375 -6.28125 -1.734375q-3.453125 0 -6.296875 1.734375q-2.828125 1.71875 -4.515625 4.8125q-1.6875 3.078125 -1.6875 7.265625q0 4.109375 1.6875 7.203125q1.6875 3.078125 4.515625 4.8125q2.84375 1.71875 6.296875 1.71875q3.453125 0 6.28125 -1.71875q2.84375 -1.734375 4.53125 -4.8125q1.6875 -3.09375 1.6875 -7.203125zm41.60132 -22.859375q6.578125 0 9.703125 3.171875q3.125 3.15625 4.109375 8.171875l-1.40625 -0.734375l0.65625 -1.3125q0.984375 -1.890625 3.046875 -4.0625q2.0625 -2.1875 4.96875 -3.703125q2.921875 -1.53125 6.546875 -1.53125q5.921875 0 9.0 2.546875q3.078125 2.546875 4.234375 6.78125q1.15625 4.234375 1.15625 9.421875l0 21.046875q0 2.140625 -1.40625 3.578125q-1.390625 1.4375 -3.53125 1.4375q-2.140625 0 -3.546875 -1.4375q-1.390625 -1.4375 -1.390625 -3.578125l0 -21.046875q0 -2.71875 -0.65625 -4.890625q-0.65625 -2.1875 -2.390625 -3.5q-1.71875 -1.3125 -4.921875 -1.3125q-3.125 0 -5.34375 1.3125q-2.21875 1.3125 -3.34375 3.5q-1.109375 2.171875 -1.109375 4.890625l0 21.046875q0 2.140625 -1.390625 3.578125q-1.390625 1.4375 -3.53125 1.4375q-2.140625 0 -3.546875 -1.4375q-1.390625 -1.4375 -1.390625 -3.578125l0 -21.046875q0 -2.71875 -0.65625 -4.890625q-0.65625 -2.1875 -2.390625 -3.5q-1.71875 -1.3125 -4.921875 -1.3125q-3.125 0 -5.34375 1.3125q-2.21875 1.3125 -3.34375 3.5q-1.109375 2.171875 -1.109375 4.890625l0 21.046875q0 2.140625 -1.390625 3.578125q-1.390625 1.4375 -3.53125 1.4375q-2.140625 0 -3.546875 -1.4375q-1.390625 -1.4375 -1.390625 -3.578125l0 -33.953125q0 -2.140625 1.390625 -3.578125q1.40625 -1.4375 3.546875 -1.4375q2.140625 0 3.53125 1.4375q1.390625 1.4375 1.390625 3.578125l0 3.53125l-1.21875 -0.25q0.734375 -1.390625 2.046875 -2.984375q1.3125 -1.609375 3.203125 -3.0q1.890625 -1.40625 4.1875 -2.265625q2.3125 -0.875 5.03125 -0.875zm88.71179 0q2.140625 0 3.53125 1.40625q1.40625 1.390625 1.40625 3.609375l0 34.78125q0 2.140625 -1.40625 3.578125q-1.390625 1.4375 -3.53125 1.4375q-2.140625 0 -3.546875 -1.4375q-1.390625 -1.4375 -1.390625 -3.578125l0 -4.03125l1.8125 0.75q0 1.0625 -1.15625 2.59375q-1.15625 1.515625 -3.125 3.0q-1.96875 1.46875 -4.640625 2.5q-2.671875 1.03125 -5.796875 1.03125q-5.671875 0 -10.28125 -2.921875q-4.59375 -2.921875 -7.28125 -8.0625q-2.671875 -5.140625 -2.671875 -11.796875q0 -6.734375 2.671875 -11.875q2.6875 -5.140625 7.203125 -8.0625q4.515625 -2.921875 10.03125 -2.921875q3.53125 0 6.484375 1.078125q2.96875 1.0625 5.140625 2.71875q2.1875 1.640625 3.375 3.328125q1.1875 1.671875 1.1875 2.828125l-2.953125 1.0625l0 -6.0q0 -2.140625 1.390625 -3.578125q1.40625 -1.4375 3.546875 -1.4375zm-16.609375 36.59375q3.609375 0 6.328125 -1.8125q2.71875 -1.8125 4.234375 -4.9375q1.515625 -3.125 1.515625 -6.984375q0 -3.953125 -1.515625 -7.0625q-1.515625 -3.125 -4.234375 -4.9375q-2.71875 -1.8125 -6.328125 -1.8125q-3.53125 0 -6.25 1.8125q-2.71875 1.8125 -4.234375 4.9375q-1.515625 3.109375 -1.515625 7.0625q0 3.859375 1.515625 6.984375q1.515625 3.125 4.234375 4.9375q2.71875 1.8125 6.25 1.8125zm41.523926 3.203125q0 2.140625 -1.40625 3.578125q-1.390625 1.4375 -3.53125 1.4375q-2.140625 0 -3.546875 -1.4375q-1.390625 -1.4375 -1.390625 -3.578125l0 -33.953125q0 -2.140625 1.390625 -3.578125q1.40625 -1.4375 3.546875 -1.4375q2.140625 0 3.53125 1.4375q1.40625 1.4375 1.40625 3.578125l0 33.953125zm-5.03125 -44.3125q-2.796875 0 -3.953125 -0.90625q-1.140625 -0.90625 -1.140625 -3.203125l0 -1.5625q0 -2.390625 1.265625 -3.25q1.28125 -0.859375 3.921875 -0.859375q2.875 0 4.015625 0.90625q1.15625 0.890625 1.15625 3.203125l0 1.5625q0 2.375 -1.234375 3.25q-1.234375 0.859375 -4.03125 0.859375zm38.653687 4.515625q6.078125 0 9.25 2.546875q3.171875 2.546875 4.359375 6.78125q1.1875 4.234375 1.1875 9.421875l0 21.046875q0 2.140625 -1.40625 3.578125q-1.390625 1.4375 -3.53125 1.4375q-2.125 0 -3.53125 -1.4375q-1.390625 -1.4375 -1.390625 -3.578125l0 -21.046875q0 -2.71875 -0.703125 -4.890625q-0.703125 -2.1875 -2.515625 -3.5q-1.796875 -1.3125 -5.171875 -1.3125q-3.296875 0 -5.5625 1.3125q-2.25 1.3125 -3.453125 3.5q-1.1875 2.171875 -1.1875 4.890625l0 21.046875q0 2.140625 -1.390625 3.578125q-1.390625 1.4375 -3.53125 1.4375q-2.140625 0 -3.546875 -1.4375q-1.390625 -1.4375 -1.390625 -3.578125l0 -33.953125q0 -2.140625 1.390625 -3.578125q1.40625 -1.4375 3.546875 -1.4375q2.140625 0 3.53125 1.4375q1.390625 1.4375 1.390625 3.578125l0 3.53125l-1.21875 -0.25q0.734375 -1.390625 2.125 -2.984375q1.40625 -1.609375 3.296875 -3.0q1.890625 -1.40625 4.265625 -2.265625q2.390625 -0.875 5.1875 -0.875z" fill-rule="nonzero"/><path fill="#000000" fill-opacity="0.0" d="m312.75198 1806.4987l1049.1339 0l0 179.52759l-1049.1339 0z" fill-rule="evenodd"/><path fill="#595959" d="m359.34573 1937.0687q-8.765625 0 -15.796875 -2.1875q-7.015625 -2.203125 -13.40625 -7.703125q-1.625 -1.390625 -2.5 -3.140625q-0.875 -1.75 -0.875 -3.515625q0 -2.875 2.0625 -5.0625q2.078125 -2.203125 5.203125 -2.203125q2.375 0 4.265625 1.5q4.765625 3.890625 9.453125 5.90625q4.703125 2.0 11.59375 2.0q4.640625 0 8.515625 -1.4375q3.890625 -1.453125 6.265625 -3.890625q2.390625 -2.453125 2.390625 -5.578125q0 -3.765625 -2.265625 -6.390625q-2.25 -2.640625 -6.890625 -4.453125q-4.625 -1.8125 -11.765625 -2.8125q-6.765625 -1.0 -11.90625 -3.0625q-5.140625 -2.078125 -8.59375 -5.265625q-3.4375 -3.203125 -5.203125 -7.53125q-1.75 -4.328125 -1.75 -9.71875q0 -8.140625 4.1875 -13.90625q4.203125 -5.765625 11.34375 -8.765625q7.15625 -3.015625 15.796875 -3.015625q8.15625 0 15.109375 2.453125q6.953125 2.4375 11.34375 6.203125q3.625 2.875 3.625 6.640625q0 2.75 -2.125 5.015625q-2.125 2.25 -5.015625 2.25q-1.875 0 -3.375 -1.125q-2.015625 -1.765625 -5.40625 -3.328125q-3.375 -1.5625 -7.140625 -2.625q-3.75 -1.0625 -7.015625 -1.0625q-5.390625 0 -9.09375 1.375q-3.6875 1.375 -5.5625 3.765625q-1.875 2.375 -1.875 5.5q0 3.765625 2.1875 6.21875q2.1875 2.4375 6.328125 3.875q4.140625 1.4375 9.90625 2.5625q7.515625 1.390625 13.21875 3.265625q5.703125 1.875 9.453125 4.828125q3.765625 2.9375 5.640625 7.390625q1.890625 4.453125 1.890625 10.84375q0 8.140625 -4.515625 14.03125q-4.515625 5.890625 -11.84375 9.03125q-7.328125 3.125 -15.859375 3.125zm46.117737 -67.046875l29.703125 0q3.015625 0 5.015625 2.015625q2.015625 2.0 2.015625 5.0q0 2.890625 -2.015625 4.828125q-2.0 1.9375 -5.015625 1.9375l-29.703125 0q-3.0 0 -5.015625 -2.0q-2.0 -2.0 -2.0 -5.015625q0 -2.875 2.0 -4.8125q2.015625 -1.953125 5.015625 -1.953125zm13.421875 -15.671875q3.25 0 5.3125 2.203125q2.078125 2.1875 2.078125 5.453125l0 55.765625q0 1.75 0.6875 2.890625q0.6875 1.125 1.875 1.625q1.203125 0.5 2.578125 0.5q1.5 0 2.75 -0.5625q1.265625 -0.5625 2.890625 -0.5625q1.75 0 3.1875 1.625q1.453125 1.625 1.453125 4.515625q0 3.5 -3.828125 5.765625q-3.828125 2.25 -8.203125 2.25q-2.640625 0 -5.84375 -0.4375q-3.1875 -0.4375 -6.015625 -2.125q-2.8125 -1.703125 -4.703125 -5.203125q-1.875 -3.515625 -1.875 -9.65625l0 -56.390625q0 -3.265625 2.1875 -5.453125q2.203125 -2.203125 5.46875 -2.203125zm44.61856 81.46875q-3.265625 0 -5.40625 -2.1875q-2.125 -2.203125 -2.125 -5.453125l0 -51.765625q0 -3.25 2.125 -5.4375q2.140625 -2.203125 5.40625 -2.203125q3.25 0 5.375 2.203125q2.140625 2.1875 2.140625 5.4375l0 11.78125l-0.875 -8.390625q1.375 -3.015625 3.5625 -5.328125q2.203125 -2.328125 4.953125 -3.890625q2.765625 -1.5625 5.890625 -2.3125q3.140625 -0.75 6.265625 -0.75q3.765625 0 6.328125 2.125q2.578125 2.125 2.578125 5.015625q0 4.125 -2.140625 5.953125q-2.125 1.8125 -4.625 1.8125q-2.390625 0 -4.328125 -0.875q-1.9375 -0.875 -4.453125 -0.875q-2.25 0 -4.578125 1.0625q-2.3125 1.0625 -4.265625 3.328125q-1.9375 2.25 -3.125 5.578125q-1.1875 3.3125 -1.1875 7.828125l0 29.703125q0 3.25 -2.140625 5.453125q-2.125 2.1875 -5.375 2.1875zm96.62677 -67.046875q3.25 0 5.375 2.203125q2.140625 2.1875 2.140625 5.4375l0 31.828125q0 13.296875 -7.40625 21.0625q-7.390625 7.765625 -21.296875 7.765625q-13.90625 0 -21.25 -7.765625q-7.3281555 -7.765625 -7.3281555 -21.0625l0 -31.828125q0 -3.25 2.1250305 -5.4375q2.140625 -2.203125 5.40625 -2.203125q3.25 0 5.375 2.203125q2.140625 2.1875 2.140625 5.4375l0 31.828125q0 7.65625 3.375 11.359375q3.390625 3.6875 10.15625 3.6875q6.890625 0 10.265625 -3.6875q3.390625 -3.703125 3.390625 -11.359375l0 -31.828125q0 -3.25 2.125 -5.4375q2.140625 -2.203125 5.40625 -2.203125zm53.630066 -1.25q7.15625 0 12.46875 1.5q5.328125 1.5 8.265625 4.203125q2.953125 2.6875 2.953125 6.453125q0 2.5 -1.5 4.703125q-1.5 2.1875 -4.390625 2.1875q-2.0 0 -3.3125 -0.5625q-1.3125 -0.5625 -2.328125 -1.4375q-1.0 -0.890625 -2.375 -1.640625q-1.25 -0.75 -3.828125 -1.1875q-2.5625 -0.4375 -3.8125 -0.4375q-6.390625 0 -10.84375 2.765625q-4.453125 2.75 -6.84375 7.453125q-2.375 4.6875 -2.375 10.828125q0 6.015625 2.4375 10.71875q2.453125 4.703125 6.78125 7.46875q4.328125 2.75 9.96875 2.75q3.125 0 5.375 -0.375q2.265625 -0.375 3.765625 -1.125q1.75 -1.015625 3.125 -2.140625q1.390625 -1.125 4.140625 -1.125q3.265625 0 5.015625 2.078125q1.75 2.0625 1.75 5.0625q0 3.140625 -3.515625 5.71875q-3.5 2.5625 -9.203125 4.125q-5.703125 1.5625 -12.34375 1.5625q-9.890625 0 -17.171875 -4.5625q-7.265625 -4.578125 -11.21875 -12.46875q-3.9375 -7.90625 -3.9375 -17.6875q0 -10.265625 4.1875 -18.09375q4.203125 -7.84375 11.65625 -12.28125q7.46875 -4.453125 17.109375 -4.453125zm36.09247 2.5l29.703125 0q3.015625 0 5.015625 2.015625q2.015625 2.0 2.015625 5.0q0 2.890625 -2.015625 4.828125q-2.0 1.9375 -5.015625 1.9375l-29.703125 0q-3.0 0 -5.015625 -2.0q-2.0 -2.0 -2.0 -5.015625q0 -2.875 2.0 -4.8125q2.015625 -1.953125 5.015625 -1.953125zm13.421875 -15.671875q3.25 0 5.3125 2.203125q2.078125 2.1875 2.078125 5.453125l0 55.765625q0 1.75 0.6875 2.890625q0.6875 1.125 1.875 1.625q1.203125 0.5 2.578125 0.5q1.5 0 2.75 -0.5625q1.265625 -0.5625 2.890625 -0.5625q1.75 0 3.1875 1.625q1.453125 1.625 1.453125 4.515625q0 3.5 -3.828125 5.765625q-3.828125 2.25 -8.203125 2.25q-2.640625 0 -5.84375 -0.4375q-3.1875 -0.4375 -6.015625 -2.125q-2.8125 -1.703125 -4.703125 -5.203125q-1.875 -3.515625 -1.875 -9.65625l0 -56.390625q0 -3.265625 2.1875 -5.453125q2.203125 -2.203125 5.46875 -2.203125zm86.852905 14.421875q3.25 0 5.375 2.203125q2.140625 2.1875 2.140625 5.4375l0 31.828125q0 13.296875 -7.40625 21.0625q-7.390625 7.765625 -21.296875 7.765625q-13.90625 0 -21.25 -7.765625q-7.328125 -7.765625 -7.328125 -21.0625l0 -31.828125q0 -3.25 2.125 -5.4375q2.140625 -2.203125 5.40625 -2.203125q3.25 0 5.375 2.203125q2.140625 2.1875 2.140625 5.4375l0 31.828125q0 7.65625 3.375 11.359375q3.390625 3.6875 10.15625 3.6875q6.890625 0 10.265625 -3.6875q3.390625 -3.703125 3.390625 -11.359375l0 -31.828125q0 -3.25 2.125 -5.4375q2.140625 -2.203125 5.40625 -2.203125zm31.33319 67.046875q-3.265625 0 -5.40625 -2.1875q-2.125 -2.203125 -2.125 -5.453125l0 -51.765625q0 -3.25 2.125 -5.4375q2.140625 -2.203125 5.40625 -2.203125q3.25 0 5.375 2.203125q2.140625 2.1875 2.140625 5.4375l0 11.78125l-0.875 -8.390625q1.375 -3.015625 3.5625 -5.328125q2.203125 -2.328125 4.953125 -3.890625q2.765625 -1.5625 5.890625 -2.3125q3.140625 -0.75 6.265625 -0.75q3.765625 0 6.328125 2.125q2.578125 2.125 2.578125 5.015625q0 4.125 -2.140625 5.953125q-2.125 1.8125 -4.625 1.8125q-2.390625 0 -4.328125 -0.875q-1.9375 -0.875 -4.453125 -0.875q-2.25 0 -4.578125 1.0625q-2.3125 1.0625 -4.265625 3.328125q-1.9375 2.25 -3.125 5.578125q-1.1875 3.3125 -1.1875 7.828125l0 29.703125q0 3.25 -2.140625 5.453125q-2.125 2.1875 -5.375 2.1875zm100.26337 -68.296875q3.25 0 5.375 2.125q2.140625 2.125 2.140625 5.515625l0 53.015625q0 3.25 -2.140625 5.453125q-2.125 2.1875 -5.375 2.1875q-3.265625 0 -5.40625 -2.1875q-2.125 -2.203125 -2.125 -5.453125l0 -6.140625l2.765625 1.125q0 1.625 -1.765625 3.953125q-1.75 2.3125 -4.765625 4.578125q-3.0 2.25 -7.078125 3.8125q-4.0625 1.5625 -8.828125 1.5625q-8.640625 0 -15.671875 -4.4375q-7.015625 -4.453125 -11.09375 -12.28125q-4.0625 -7.84375 -4.0625 -18.0q0 -10.265625 4.0625 -18.09375q4.078125 -7.84375 10.96875 -12.28125q6.90625 -4.453125 15.296875 -4.453125q5.390625 0 9.890625 1.625q4.515625 1.625 7.828125 4.140625q3.328125 2.5 5.140625 5.078125q1.828125 2.5625 1.828125 4.3125l-4.515625 1.625l0 -9.140625q0 -3.265625 2.125 -5.453125q2.140625 -2.1875 5.40625 -2.1875zm-25.328125 55.765625q5.515625 0 9.65625 -2.75q4.140625 -2.765625 6.453125 -7.53125q2.3125 -4.765625 2.3125 -10.65625q0 -6.015625 -2.3125 -10.765625q-2.3125 -4.765625 -6.453125 -7.515625q-4.140625 -2.765625 -9.65625 -2.765625q-5.390625 0 -9.53125 2.765625q-4.125 2.75 -6.453125 7.515625q-2.3125 4.75 -2.3125 10.765625q0 5.890625 2.3125 10.65625q2.328125 4.765625 6.453125 7.53125q4.140625 2.75 9.53125 2.75zm65.42474 4.890625q0 3.25 -2.203125 5.453125q-2.1875 2.1875 -5.4375 2.1875q-3.140625 0 -5.265625 -2.1875q-2.125 -2.203125 -2.125 -5.453125l0 -77.453125q0 -3.265625 2.1875 -5.453125q2.1875 -2.203125 5.453125 -2.203125q3.25 0 5.3125 2.203125q2.078125 2.1875 2.078125 5.453125l0 77.453125zm117.93042 -80.34375q3.140625 0 5.453125 2.078125q2.328125 2.0625 2.328125 5.1875q0 1.640625 -0.765625 3.390625l-30.953125 72.4375q-1.125 2.515625 -3.203125 3.703125q-2.0625 1.1875 -4.1875 1.1875q-2.0 -0.125 -3.890625 -1.3125q-1.875 -1.1875 -2.875 -3.453125l-30.953125 -72.6875q-0.375 -0.75 -0.5 -1.5625q-0.125 -0.8125 -0.125 -1.578125q0 -3.625 2.625 -5.5625q2.640625 -1.953125 5.015625 -1.953125q4.765625 0 6.890625 4.890625l27.453125 64.546875l-4.390625 0.125l25.1875 -64.671875q2.140625 -4.765625 6.890625 -4.765625zm33.847412 80.34375q0 3.25 -2.140625 5.453125q-2.125 2.1875 -5.390625 2.1875q-3.25 0 -5.390625 -2.1875q-2.125 -2.203125 -2.125 -5.453125l0 -51.765625q0 -3.25 2.125 -5.4375q2.140625 -2.203125 5.390625 -2.203125q3.265625 0 5.390625 2.203125q2.140625 2.1875 2.140625 5.4375l0 51.765625zm-7.65625 -67.5625q-4.25 0 -6.015625 -1.375q-1.75 -1.375 -1.75 -4.890625l0 -2.375q0 -3.640625 1.9375 -4.953125q1.953125 -1.3125 5.953125 -1.3125q4.390625 0 6.140625 1.375q1.765625 1.375 1.765625 4.890625l0 2.375q0 3.640625 -1.890625 4.953125q-1.875 1.3125 -6.140625 1.3125zm54.655518 76.453125q-10.65625 0 -18.5 -4.4375q-7.828125 -4.453125 -12.03125 -12.09375q-4.1875 -7.65625 -4.1875 -17.296875q0 -11.28125 4.5625 -19.234375q4.578125 -7.96875 11.96875 -12.21875q7.40625 -4.265625 15.671875 -4.265625q6.390625 0 12.09375 2.625q5.703125 2.625 10.09375 7.203125q4.390625 4.578125 6.953125 10.59375q2.578125 6.015625 2.578125 12.78125q-0.125 3.015625 -2.390625 4.890625q-2.25 1.875 -5.265625 1.875l-47.875 0l-3.75 -12.53125l45.984375 0l-2.75 2.515625l0 -3.390625q-0.25 -3.640625 -2.578125 -6.515625q-2.3125 -2.890625 -5.765625 -4.578125q-3.4375 -1.6875 -7.328125 -1.6875q-3.75 0 -7.015625 1.0q-3.25 1.0 -5.640625 3.390625q-2.375 2.375 -3.765625 6.390625q-1.375 4.0 -1.375 10.140625q0 6.78125 2.8125 11.484375q2.828125 4.6875 7.28125 7.140625q4.453125 2.4375 9.46875 2.4375q4.625 0 7.375 -0.75q2.765625 -0.75 4.453125 -1.8125q1.703125 -1.078125 3.078125 -1.828125q2.25 -1.125 4.265625 -1.125q2.75 0 4.5625 1.890625q1.828125 1.875 1.828125 4.375q0 3.390625 -3.515625 6.140625q-3.25 2.765625 -9.140625 4.828125q-5.890625 2.0625 -12.15625 2.0625zm119.55298 -68.296875q2.890625 0 5.015625 2.203125q2.125 2.1875 2.125 5.5625q0 0.875 -0.125 1.5625q-0.125 0.6875 -0.375 1.328125l-19.171875 51.625q-0.875 2.515625 -3.140625 3.828125q-2.25 1.3125 -4.75 0.9375q-4.265625 -0.25 -6.390625 -4.765625l-12.40625 -35.71875l3.25 0.125l-11.65625 35.59375q-2.125 4.515625 -6.390625 4.765625q-2.375 0.375 -4.703125 -0.9375q-2.3125 -1.3125 -3.1875 -3.828125l-19.171875 -51.625q-0.5 -1.390625 -0.5 -2.890625q0 -3.0 2.0 -5.375q2.0 -2.390625 5.515625 -2.390625q2.375 0 4.25 1.125q1.890625 1.125 2.640625 3.640625l15.171875 41.09375l-3.140625 -0.25l11.40625 -30.953125q2.0 -4.640625 6.890625 -4.640625q2.765625 0 4.203125 1.203125q1.4375 1.1875 2.3125 3.4375l11.40625 30.953125l-3.765625 0.5l15.421875 -41.34375q1.5 -4.765625 7.265625 -4.765625z" fill-rule="nonzero"/><path fill="#8e7cc3" d="m1071.4816 1095.8425l0 0c0 -462.8581 375.2207 -838.07874 838.07886 -838.07874l0 0c222.27234 0 435.4408 88.2973 592.6112 245.46756c157.17017 157.17026 245.46753 370.33884 245.46753 592.6112l0 0c0 462.85815 -375.2207 838.07874 -838.07874 838.07874l0 0c-462.85815 0 -838.07886 -375.22058 -838.07886 -838.07874z" fill-rule="evenodd"/><path stroke="#595959" stroke-width="4.404199475065616" stroke-linejoin="round" stroke-linecap="butt" d="m1071.4816 1095.8425l0 0c0 -462.8581 375.2207 -838.07874 838.07886 -838.07874l0 0c222.27234 0 435.4408 88.2973 592.6112 245.46756c157.17017 157.17026 245.46753 370.33884 245.46753 592.6112l0 0c0 462.85815 -375.2207 838.07874 -838.07874 838.07874l0 0c-462.85815 0 -838.07886 -375.22058 -838.07886 -838.07874z" fill-rule="evenodd"/><path fill="#674ea7" d="m816.28217 764.9475l359.51703 0l116.22266 -109.387695l37.85608 109.387695l102.71924 0l0 32.33069l0 0l0 48.496094l0 113.15747l-102.71924 0l-154.07874 0l0 0l-359.51703 0l0 -113.15747l0 -48.496094l0 0z" fill-rule="evenodd"/><path fill="#ffffff" d="m873.99927 790.5587q1.15625 0 2.421875 0.625q1.28125 0.609375 1.9375 1.59375l19.984375 30.75l-4.109375 -0.15625l20.46875 -30.59375q1.5625 -2.21875 4.03125 -2.21875q1.96875 0 3.53125 1.40625q1.5625 1.390625 1.5625 3.609375l0 47.609375q0 2.140625 -1.40625 3.578125q-1.390625 1.4375 -3.6875 1.4375q-2.3125 0 -3.75 -1.4375q-1.4375 -1.4375 -1.4375 -3.578125l0 -38.71875l3.203125 0.734375l-16.765625 25.5625q-0.734375 0.90625 -1.84375 1.578125q-1.109375 0.65625 -2.265625 0.5625q-1.078125 0.09375 -2.1875 -0.5625q-1.109375 -0.671875 -1.84375 -1.578125l-15.703125 -24.828125l2.140625 -4.359375l0 41.609375q0 2.140625 -1.328125 3.578125q-1.3125 1.4375 -3.4375 1.4375q-2.0625 0 -3.375 -1.4375q-1.3125 -1.4375 -1.3125 -3.578125l0 -47.609375q0 -2.046875 1.515625 -3.53125q1.515625 -1.484375 3.65625 -1.484375zm82.05585 58.46875q-6.984375 0 -12.125 -2.921875q-5.140625 -2.921875 -7.90625 -7.9375q-2.75 -5.015625 -2.75 -11.34375q0 -7.40625 3.0 -12.625q3.015625 -5.21875 7.859375 -8.015625q4.859375 -2.796875 10.28125 -2.796875q4.1875 0 7.921875 1.734375q3.75 1.71875 6.625 4.71875q2.875 3.0 4.5625 6.953125q1.6875 3.9375 1.6875 8.390625q-0.078125 1.96875 -1.5625 3.203125q-1.484375 1.234375 -3.453125 1.234375l-31.40625 0l-2.46875 -8.21875l30.171875 0l-1.796875 1.640625l0 -2.21875q-0.171875 -2.390625 -1.703125 -4.28125q-1.515625 -1.890625 -3.78125 -3.0q-2.25 -1.109375 -4.796875 -1.109375q-2.46875 0 -4.609375 0.65625q-2.140625 0.65625 -3.703125 2.21875q-1.5625 1.5625 -2.46875 4.203125q-0.890625 2.625 -0.890625 6.65625q0 4.4375 1.84375 7.53125q1.84375 3.078125 4.765625 4.6875q2.921875 1.59375 6.203125 1.59375q3.046875 0 4.859375 -0.484375q1.8125 -0.5 2.921875 -1.203125q1.109375 -0.703125 2.015625 -1.1875q1.46875 -0.75 2.796875 -0.75q1.796875 0 2.984375 1.234375q1.203125 1.234375 1.203125 2.875q0 2.21875 -2.296875 4.03125q-2.140625 1.8125 -6.015625 3.171875q-3.859375 1.359375 -7.96875 1.359375zm28.290222 -44.0l19.484375 0q1.96875 0 3.28125 1.328125q1.3125 1.3125 1.3125 3.28125q0 1.890625 -1.3125 3.171875q-1.3125 1.265625 -3.28125 1.265625l-19.484375 0q-1.984375 0 -3.296875 -1.3125q-1.3125 -1.3125 -1.3125 -3.28125q0 -1.890625 1.3125 -3.171875q1.3125 -1.28125 3.296875 -1.28125zm8.796875 -10.265625q2.125 0 3.484375 1.4375q1.359375 1.4375 1.359375 3.578125l0 36.578125q0 1.15625 0.453125 1.90625q0.453125 0.734375 1.234375 1.0625q0.78125 0.328125 1.6875 0.328125q0.984375 0 1.796875 -0.375q0.828125 -0.375 1.90625 -0.375q1.140625 0 2.078125 1.078125q0.953125 1.0625 0.953125 2.953125q0 2.3125 -2.515625 3.796875q-2.5 1.46875 -5.375 1.46875q-1.71875 0 -3.828125 -0.28125q-2.09375 -0.296875 -3.9375 -1.40625q-1.84375 -1.109375 -3.078125 -3.40625q-1.234375 -2.3125 -1.234375 -6.328125l0 -37.0q0 -2.140625 1.4375 -3.578125q1.4375 -1.4375 3.578125 -1.4375zm60.34619 8.625q2.140625 0 3.53125 1.40625q1.40625 1.390625 1.40625 3.609375l0 34.78125q0 2.140625 -1.40625 3.578125q-1.390625 1.4375 -3.53125 1.4375q-2.140625 0 -3.546875 -1.4375q-1.390625 -1.4375 -1.390625 -3.578125l0 -4.03125l1.8125 0.75q0 1.0625 -1.15625 2.59375q-1.15625 1.515625 -3.125 3.0q-1.96875 1.46875 -4.640625 2.5q-2.671875 1.03125 -5.796875 1.03125q-5.671875 0 -10.28125 -2.921875q-4.59375 -2.921875 -7.28125 -8.0625q-2.671875 -5.140625 -2.671875 -11.796875q0 -6.734375 2.671875 -11.875q2.6875 -5.140625 7.203125 -8.0625q4.515625 -2.921875 10.03125 -2.921875q3.53125 0 6.484375 1.078125q2.96875 1.0625 5.140625 2.71875q2.1875 1.640625 3.375 3.328125q1.1875 1.671875 1.1875 2.828125l-2.953125 1.0625l0 -6.0q0 -2.140625 1.390625 -3.578125q1.40625 -1.4375 3.546875 -1.4375zm-16.609375 36.59375q3.609375 0 6.328125 -1.8125q2.71875 -1.8125 4.234375 -4.9375q1.515625 -3.125 1.515625 -6.984375q0 -3.953125 -1.515625 -7.0625q-1.515625 -3.125 -4.234375 -4.9375q-2.71875 -1.8125 -6.328125 -1.8125q-3.53125 0 -6.25 1.8125q-2.71875 1.8125 -4.234375 4.9375q-1.515625 3.109375 -1.515625 7.0625q0 3.859375 1.515625 6.984375q1.515625 3.125 4.234375 4.9375q2.71875 1.8125 6.25 1.8125zm55.0083 -36.59375q5.75 0 10.3125 2.921875q4.5625 2.921875 7.234375 8.015625q2.671875 5.09375 2.671875 11.84375q0 6.734375 -2.671875 11.875q-2.671875 5.140625 -7.15625 8.0625q-4.484375 2.921875 -10.0625 2.921875q-3.296875 0 -6.171875 -1.0625q-2.875 -1.078125 -5.0625 -2.71875q-2.171875 -1.65625 -3.375 -3.328125q-1.1875 -1.6875 -1.1875 -2.84375l2.546875 -1.0625l0 21.609375q0 2.140625 -1.390625 3.578125q-1.390625 1.4375 -3.53125 1.4375q-2.140625 0 -3.546875 -1.40625q-1.390625 -1.390625 -1.390625 -3.609375l0 -50.390625q0 -2.140625 1.390625 -3.578125q1.40625 -1.4375 3.546875 -1.4375q2.140625 0 3.53125 1.4375q1.390625 1.4375 1.390625 3.578125l0 4.03125l-1.390625 -0.75q0 -1.0625 1.140625 -2.578125q1.15625 -1.53125 3.125 -3.046875q1.984375 -1.515625 4.5625 -2.5q2.59375 -1.0 5.484375 -1.0zm-1.234375 9.046875q-3.625 0 -6.34375 1.8125q-2.703125 1.8125 -4.234375 4.890625q-1.515625 3.078125 -1.515625 7.03125q0 3.859375 1.515625 7.03125q1.53125 3.15625 4.234375 4.96875q2.71875 1.8125 6.34375 1.8125q3.609375 0 6.28125 -1.8125q2.671875 -1.8125 4.1875 -4.96875q1.53125 -3.171875 1.53125 -7.03125q0 -3.953125 -1.53125 -7.03125q-1.515625 -3.078125 -4.1875 -4.890625q-2.671875 -1.8125 -6.28125 -1.8125zm53.1958 -9.046875q5.921875 0 9.0 2.546875q3.078125 2.546875 4.21875 6.78125q1.15625 4.234375 1.15625 9.421875l0 21.046875q0 2.140625 -1.390625 3.578125q-1.390625 1.4375 -3.53125 1.4375q-2.140625 0 -3.546875 -1.4375q-1.390625 -1.4375 -1.390625 -3.578125l0 -21.046875q0 -2.71875 -0.65625 -4.890625q-0.65625 -2.1875 -2.390625 -3.5q-1.71875 -1.3125 -4.921875 -1.3125q-3.125 0 -5.34375 1.3125q-2.21875 1.3125 -3.34375 3.5q-1.109375 2.171875 -1.109375 4.890625l0 21.046875q0 2.140625 -1.390625 3.578125q-1.390625 1.4375 -3.53125 1.4375q-2.140625 0 -3.546875 -1.4375q-1.390625 -1.4375 -1.390625 -3.578125l0 -50.8125q0 -2.140625 1.390625 -3.578125q1.40625 -1.4375 3.546875 -1.4375q2.140625 0 3.53125 1.4375q1.390625 1.4375 1.390625 3.578125l0 20.390625l-1.21875 -0.25q0.734375 -1.390625 2.046875 -2.984375q1.3125 -1.609375 3.203125 -3.0q1.890625 -1.40625 4.1875 -2.265625q2.3125 -0.875 5.03125 -0.875zm57.300293 0.828125q2.140625 0 3.53125 1.4375q1.40625 1.4375 1.40625 3.578125l0 34.9375q0 7.5625 -2.84375 12.046875q-2.828125 4.484375 -7.609375 6.453125q-4.765625 1.96875 -10.6875 1.96875q-2.625 0 -5.59375 -0.40625q-2.953125 -0.40625 -4.84375 -1.234375q-2.46875 -1.0625 -3.421875 -2.671875q-0.9375 -1.59375 -0.359375 -3.40625q0.734375 -2.390625 2.375 -3.25q1.65625 -0.859375 3.46875 -0.203125q1.3125 0.40625 3.453125 1.265625q2.140625 0.875 4.921875 0.875q3.78125 0 6.28125 -1.03125q2.515625 -1.03125 3.796875 -3.453125q1.28125 -2.421875 1.28125 -6.625l0 -5.5l1.71875 1.96875q-1.390625 2.71875 -3.5 4.484375q-2.09375 1.765625 -4.96875 2.671875q-2.875 0.90625 -6.578125 0.90625q-4.359375 0 -7.609375 -2.015625q-3.234375 -2.015625 -5.046875 -5.59375q-1.8125 -3.578125 -1.8125 -8.1875l0 -24.0q0 -2.140625 1.390625 -3.578125q1.40625 -1.4375 3.546875 -1.4375q2.140625 0 3.53125 1.4375q1.390625 1.4375 1.390625 3.578125l0 21.046875q0 5.34375 2.34375 7.53125q2.34375 2.171875 6.546875 2.171875q2.875 0 4.84375 -1.109375q1.984375 -1.109375 3.046875 -3.28125q1.0625 -2.1875 1.0625 -5.3125l0 -21.046875q0 -2.140625 1.390625 -3.578125q1.40625 -1.4375 3.546875 -1.4375zm12.252441 37.15625q-0.828125 -1.140625 -0.75 -2.953125q0.09375 -1.8125 2.140625 -3.125q1.328125 -0.828125 2.796875 -0.703125q1.484375 0.125 2.875 1.515625q2.390625 2.390625 5.015625 3.703125q2.640625 1.3125 6.578125 1.3125q1.234375 -0.078125 2.71875 -0.359375q1.484375 -0.296875 2.59375 -1.3125q1.109375 -1.03125 1.109375 -3.171875q0 -1.8125 -1.234375 -2.875q-1.234375 -1.078125 -3.25 -1.8125q-2.015625 -0.734375 -4.484375 -1.390625q-2.546875 -0.75 -5.21875 -1.640625q-2.671875 -0.90625 -4.890625 -2.34375q-2.21875 -1.453125 -3.625 -3.828125q-1.390625 -2.390625 -1.390625 -6.0q0 -4.109375 2.296875 -6.984375q2.3125 -2.890625 5.96875 -4.453125q3.65625 -1.5625 7.6875 -1.5625q2.546875 0 5.34375 0.625q2.796875 0.609375 5.34375 1.96875q2.546875 1.359375 4.28125 3.578125q0.890625 1.234375 1.046875 2.96875q0.171875 1.71875 -1.546875 3.109375q-1.234375 0.984375 -2.875 0.875q-1.640625 -0.125 -2.71875 -1.125q-1.390625 -1.796875 -3.734375 -2.859375q-2.34375 -1.078125 -5.390625 -1.078125q-1.234375 0 -2.671875 0.296875q-1.4375 0.28125 -2.515625 1.234375q-1.0625 0.9375 -1.0625 2.984375q0 1.890625 1.234375 3.0q1.234375 1.109375 3.328125 1.8125q2.09375 0.703125 4.484375 1.359375q2.46875 0.65625 5.015625 1.5625q2.546875 0.90625 4.6875 2.390625q2.140625 1.46875 3.453125 3.8125q1.3125 2.34375 1.3125 5.96875q0 4.1875 -2.46875 7.15625q-2.46875 2.953125 -6.171875 4.484375q-3.6875 1.515625 -7.5625 1.515625q-4.84375 0 -9.703125 -1.6875q-4.84375 -1.6875 -8.046875 -5.96875zm51.473145 1.8125q0 2.140625 -1.40625 3.578125q-1.390625 1.4375 -3.53125 1.4375q-2.140625 0 -3.546875 -1.4375q-1.390625 -1.4375 -1.390625 -3.578125l0 -33.953125q0 -2.140625 1.390625 -3.578125q1.40625 -1.4375 3.546875 -1.4375q2.140625 0 3.53125 1.4375q1.40625 1.4375 1.40625 3.578125l0 33.953125zm-5.03125 -44.3125q-2.796875 0 -3.953125 -0.90625q-1.140625 -0.90625 -1.140625 -3.203125l0 -1.5625q0 -2.390625 1.265625 -3.25q1.28125 -0.859375 3.921875 -0.859375q2.875 0 4.015625 0.90625q1.15625 0.890625 1.15625 3.203125l0 1.5625q0 2.375 -1.234375 3.25q-1.234375 0.859375 -4.03125 0.859375zm34.70056 4.515625q4.6875 0 8.1875 1.0q3.5 0.984375 5.421875 2.75q1.9375 1.765625 1.9375 4.234375q0 1.640625 -0.984375 3.078125q-0.984375 1.4375 -2.875 1.4375q-1.328125 0 -2.1875 -0.359375q-0.859375 -0.375 -1.515625 -0.953125q-0.65625 -0.578125 -1.5625 -1.078125q-0.828125 -0.484375 -2.515625 -0.765625q-1.6875 -0.296875 -2.5 -0.296875q-4.203125 0 -7.125 1.8125q-2.90625 1.8125 -4.46875 4.890625q-1.5625 3.078125 -1.5625 7.109375q0 3.953125 1.59375 7.03125q1.609375 3.078125 4.4375 4.890625q2.84375 1.8125 6.546875 1.8125q2.0625 0 3.53125 -0.25q1.484375 -0.25 2.46875 -0.734375q1.15625 -0.65625 2.0625 -1.390625q0.90625 -0.75 2.703125 -0.75q2.140625 0 3.28125 1.359375q1.15625 1.34375 1.15625 3.328125q0 2.046875 -2.296875 3.734375q-2.296875 1.6875 -6.046875 2.71875q-3.734375 1.03125 -8.09375 1.03125q-6.5 0 -11.265625 -3.0q-4.765625 -3.015625 -7.359375 -8.1875q-2.59375 -5.1875 -2.59375 -11.59375q0 -6.734375 2.75 -11.875q2.765625 -5.140625 7.65625 -8.0625q4.890625 -2.921875 11.21875 -2.921875zm59.206787 0q2.140625 0 3.53125 1.40625q1.40625 1.390625 1.40625 3.609375l0 34.78125q0 2.140625 -1.40625 3.578125q-1.390625 1.4375 -3.53125 1.4375q-2.140625 0 -3.546875 -1.4375q-1.390625 -1.4375 -1.390625 -3.578125l0 -4.03125l1.8125 0.75q0 1.0625 -1.15625 2.59375q-1.15625 1.515625 -3.125 3.0q-1.96875 1.46875 -4.640625 2.5q-2.671875 1.03125 -5.796875 1.03125q-5.671875 0 -10.28125 -2.921875q-4.59375 -2.921875 -7.28125 -8.0625q-2.671875 -5.140625 -2.671875 -11.796875q0 -6.734375 2.671875 -11.875q2.6875 -5.140625 7.203125 -8.0625q4.515625 -2.921875 10.03125 -2.921875q3.53125 0 6.484375 1.078125q2.96875 1.0625 5.140625 2.71875q2.1875 1.640625 3.375 3.328125q1.1875 1.671875 1.1875 2.828125l-2.953125 1.0625l0 -6.0q0 -2.140625 1.390625 -3.578125q1.40625 -1.4375 3.546875 -1.4375zm-16.609375 36.59375q3.609375 0 6.328125 -1.8125q2.71875 -1.8125 4.234375 -4.9375q1.515625 -3.125 1.515625 -6.984375q0 -3.953125 -1.515625 -7.0625q-1.515625 -3.125 -4.234375 -4.9375q-2.71875 -1.8125 -6.328125 -1.8125q-3.53125 0 -6.25 1.8125q-2.71875 1.8125 -4.234375 4.9375q-1.515625 3.109375 -1.515625 7.0625q0 3.859375 1.515625 6.984375q1.515625 3.125 4.234375 4.9375q2.71875 1.8125 6.25 1.8125zm42.91455 3.203125q0 2.140625 -1.4375 3.578125q-1.4375 1.4375 -3.578125 1.4375q-2.046875 0 -3.453125 -1.4375q-1.390625 -1.4375 -1.390625 -3.578125l0 -50.8125q0 -2.140625 1.4375 -3.578125q1.4375 -1.4375 3.578125 -1.4375q2.125 0 3.484375 1.4375q1.359375 1.4375 1.359375 3.578125l0 50.8125z" fill-rule="nonzero"/><path fill="#ffffff" d="m1001.971 859.65247q5.921875 0 10.515625 2.21875q4.609375 2.21875 7.78125 6.203125q3.171875 3.984375 4.765686 9.203125q1.609375 5.21875 1.609375 11.140625q0 7.984375 -2.875061 14.515625q-2.875 6.53125 -8.34375 10.40625q-5.46875 3.859375 -13.453125 3.859375l-19.640625 0q-2.140625 0 -3.578125 -1.4375q-1.4375 -1.4375 -1.4375 -3.578125l0 -47.515625q0 -2.140625 1.4375 -3.578125q1.4375 -1.4375 3.578125 -1.4375l19.640625 0zm-0.8125 48.09375q5.171875 0 8.453125 -2.671875q3.296875 -2.671875 4.8125 -7.0625q1.53125 -4.40625 1.53125 -9.59375q0 -3.859375 -0.875 -7.34375q-0.859375 -3.5 -2.671875 -6.171875q-1.796875 -2.671875 -4.59375 -4.234375q-2.796875 -1.5625 -6.65625 -1.5625l-14.390625 0l0.8125 -0.75l0 40.296875l-0.484375 -0.90625l14.0625 0zm77.44415 -12.5q0 6.75 -3.0 11.890625q-3.0 5.125 -8.0625 8.015625q-5.046875 2.875 -11.296875 2.875q-6.25 0 -11.3125 -2.875q-5.046875 -2.890625 -8.0625 -8.015625q-3.0 -5.140625 -3.0 -11.890625q0 -6.734375 3.0 -11.875q3.015625 -5.140625 8.0625 -8.0625q5.0625 -2.921875 11.3125 -2.921875q6.25 0 11.296875 2.921875q5.0625 2.921875 8.0625 8.0625q3.0 5.140625 3.0 11.875zm-9.859375 0q0 -4.1875 -1.6875 -7.265625q-1.6875 -3.09375 -4.53125 -4.8125q-2.828125 -1.734375 -6.28125 -1.734375q-3.453125 0 -6.296875 1.734375q-2.828125 1.71875 -4.515625 4.8125q-1.6875 3.078125 -1.6875 7.265625q0 4.109375 1.6875 7.203125q1.6875 3.078125 4.515625 4.8125q2.84375 1.71875 6.296875 1.71875q3.453125 0 6.28125 -1.71875q2.84375 -1.734375 4.53125 -4.8125q1.6875 -3.09375 1.6875 -7.203125zm41.60132 -22.859375q6.578125 0 9.703125 3.171875q3.125 3.15625 4.109375 8.171875l-1.40625 -0.734375l0.65625 -1.3125q0.984375 -1.890625 3.046875 -4.0625q2.0625 -2.1875 4.96875 -3.703125q2.921875 -1.53125 6.546875 -1.53125q5.921875 0 9.0 2.546875q3.078125 2.546875 4.234375 6.78125q1.15625 4.234375 1.15625 9.421875l0 21.046875q0 2.140625 -1.40625 3.578125q-1.390625 1.4375 -3.53125 1.4375q-2.140625 0 -3.546875 -1.4375q-1.390625 -1.4375 -1.390625 -3.578125l0 -21.046875q0 -2.71875 -0.65625 -4.890625q-0.65625 -2.1875 -2.390625 -3.5q-1.71875 -1.3125 -4.921875 -1.3125q-3.125 0 -5.34375 1.3125q-2.21875 1.3125 -3.34375 3.5q-1.109375 2.171875 -1.109375 4.890625l0 21.046875q0 2.140625 -1.390625 3.578125q-1.390625 1.4375 -3.53125 1.4375q-2.140625 0 -3.546875 -1.4375q-1.390625 -1.4375 -1.390625 -3.578125l0 -21.046875q0 -2.71875 -0.65625 -4.890625q-0.65625 -2.1875 -2.390625 -3.5q-1.71875 -1.3125 -4.921875 -1.3125q-3.125 0 -5.34375 1.3125q-2.21875 1.3125 -3.34375 3.5q-1.109375 2.171875 -1.109375 4.890625l0 21.046875q0 2.140625 -1.390625 3.578125q-1.390625 1.4375 -3.53125 1.4375q-2.140625 0 -3.546875 -1.4375q-1.390625 -1.4375 -1.390625 -3.578125l0 -33.953125q0 -2.140625 1.390625 -3.578125q1.40625 -1.4375 3.546875 -1.4375q2.140625 0 3.53125 1.4375q1.390625 1.4375 1.390625 3.578125l0 3.53125l-1.21875 -0.25q0.734375 -1.390625 2.046875 -2.984375q1.3125 -1.609375 3.203125 -3.0q1.890625 -1.40625 4.1875 -2.265625q2.3125 -0.875 5.03125 -0.875zm88.711914 0q2.140625 0 3.53125 1.40625q1.40625 1.390625 1.40625 3.609375l0 34.78125q0 2.140625 -1.40625 3.578125q-1.390625 1.4375 -3.53125 1.4375q-2.140625 0 -3.546875 -1.4375q-1.390625 -1.4375 -1.390625 -3.578125l0 -4.03125l1.8125 0.75q0 1.0625 -1.15625 2.59375q-1.15625 1.515625 -3.125 3.0q-1.96875 1.46875 -4.640625 2.5q-2.671875 1.03125 -5.796875 1.03125q-5.671875 0 -10.28125 -2.921875q-4.59375 -2.921875 -7.28125 -8.0625q-2.671875 -5.140625 -2.671875 -11.796875q0 -6.734375 2.671875 -11.875q2.6875 -5.140625 7.203125 -8.0625q4.515625 -2.921875 10.03125 -2.921875q3.53125 0 6.484375 1.078125q2.96875 1.0625 5.140625 2.71875q2.1875 1.640625 3.375 3.328125q1.1875 1.671875 1.1875 2.828125l-2.953125 1.0625l0 -6.0q0 -2.140625 1.390625 -3.578125q1.40625 -1.4375 3.546875 -1.4375zm-16.609375 36.59375q3.609375 0 6.328125 -1.8125q2.71875 -1.8125 4.234375 -4.9375q1.515625 -3.125 1.515625 -6.984375q0 -3.953125 -1.515625 -7.0625q-1.515625 -3.125 -4.234375 -4.9375q-2.71875 -1.8125 -6.328125 -1.8125q-3.53125 0 -6.25 1.8125q-2.71875 1.8125 -4.234375 4.9375q-1.515625 3.109375 -1.515625 7.0625q0 3.859375 1.515625 6.984375q1.515625 3.125 4.234375 4.9375q2.71875 1.8125 6.25 1.8125zm41.523926 3.203125q0 2.140625 -1.40625 3.578125q-1.390625 1.4375 -3.53125 1.4375q-2.140625 0 -3.546875 -1.4375q-1.390625 -1.4375 -1.390625 -3.578125l0 -33.953125q0 -2.140625 1.390625 -3.578125q1.40625 -1.4375 3.546875 -1.4375q2.140625 0 3.53125 1.4375q1.40625 1.4375 1.40625 3.578125l0 33.953125zm-5.03125 -44.3125q-2.796875 0 -3.953125 -0.90625q-1.140625 -0.90625 -1.140625 -3.203125l0 -1.5625q0 -2.390625 1.265625 -3.25q1.28125 -0.859375 3.921875 -0.859375q2.875 0 4.015625 0.90625q1.15625 0.890625 1.15625 3.203125l0 1.5625q0 2.375 -1.234375 3.25q-1.234375 0.859375 -4.03125 0.859375zm38.653564 4.515625q6.078125 0 9.25 2.546875q3.171875 2.546875 4.359375 6.78125q1.1875 4.234375 1.1875 9.421875l0 21.046875q0 2.140625 -1.40625 3.578125q-1.390625 1.4375 -3.53125 1.4375q-2.125 0 -3.53125 -1.4375q-1.390625 -1.4375 -1.390625 -3.578125l0 -21.046875q0 -2.71875 -0.703125 -4.890625q-0.703125 -2.1875 -2.515625 -3.5q-1.796875 -1.3125 -5.171875 -1.3125q-3.296875 0 -5.5625 1.3125q-2.25 1.3125 -3.453125 3.5q-1.1875 2.171875 -1.1875 4.890625l0 21.046875q0 2.140625 -1.390625 3.578125q-1.390625 1.4375 -3.53125 1.4375q-2.140625 0 -3.546875 -1.4375q-1.390625 -1.4375 -1.390625 -3.578125l0 -33.953125q0 -2.140625 1.390625 -3.578125q1.40625 -1.4375 3.546875 -1.4375q2.140625 0 3.53125 1.4375q1.390625 1.4375 1.390625 3.578125l0 3.53125l-1.21875 -0.25q0.734375 -1.390625 2.125 -2.984375q1.40625 -1.609375 3.296875 -3.0q1.890625 -1.40625 4.265625 -2.265625q2.390625 -0.875 5.1875 -0.875z" fill-rule="nonzero"/><path fill="#ffffff" d="m1867.2456 1095.8423l0 0c0 -23.369995 18.945068 -42.315063 42.315063 -42.315063l0 0c11.222534 0 21.985596 4.458252 29.921143 12.393799c7.935547 7.935669 12.393799 18.698608 12.393799 29.921265l0 0c0 23.369873 -18.945068 42.31494 -42.31494 42.31494l0 0c-23.369995 0 -42.315063 -18.945068 -42.315063 -42.31494z" fill-rule="evenodd"/><path fill="#000000" fill-opacity="0.0" d="m1909.5604 886.8084l0 -379.74805" fill-rule="evenodd"/><path stroke="#ea9999" stroke-width="24.0" stroke-linejoin="round" stroke-linecap="butt" d="m1909.5604 886.8084l0 -235.74805" fill-rule="evenodd"/><path fill="#ea9999" stroke="#ea9999" stroke-width="24.0" stroke-linecap="butt" d="m1949.2019 651.06036l-39.64148 -108.91437l-39.6416 108.91437z" fill-rule="evenodd"/><path fill="#000000" fill-opacity="0.0" d="m1909.5604 1280.332l0 379.74805" fill-rule="evenodd"/><path stroke="#ea9999" stroke-width="24.0" stroke-linejoin="round" stroke-linecap="butt" d="m1909.5604 1280.332l0 235.74805" fill-rule="evenodd"/><path fill="#ea9999" stroke="#ea9999" stroke-width="24.0" stroke-linecap="butt" d="m1869.9188 1516.0801l39.6416 108.91431l39.64148 -108.91431z" fill-rule="evenodd"/><path fill="#000000" fill-opacity="0.0" d="m2100.9304 1095.8425l379.74805 0" fill-rule="evenodd"/><path stroke="#ea9999" stroke-width="24.0" stroke-linejoin="round" stroke-linecap="butt" d="m2100.9304 1095.8425l235.74805 0" fill-rule="evenodd"/><path fill="#ea9999" stroke="#ea9999" stroke-width="24.0" stroke-linecap="butt" d="m2336.6785 1135.4841l108.91431 -39.6416l-108.91431 -39.6416z" fill-rule="evenodd"/><path fill="#000000" fill-opacity="0.0" d="m1715.9489 1095.8425l-379.74805 0" fill-rule="evenodd"/><path stroke="#ea9999" stroke-width="24.0" stroke-linejoin="round" stroke-linecap="butt" d="m1715.9489 1095.8425l-235.74805 0" fill-rule="evenodd"/><path fill="#ea9999" stroke="#ea9999" stroke-width="24.0" stroke-linecap="butt" d="m1480.2008 1056.2009l-108.91431 39.6416l108.91431 39.6416z" fill-rule="evenodd"/><path fill="#000000" fill-opacity="0.0" d="m2288.7966 681.0184l-251.90552 266.2047" fill-rule="evenodd"/><path stroke="#00ff00" stroke-width="24.0" stroke-linejoin="round" stroke-linecap="butt" d="m2288.7966 681.0184l-152.92993 161.61096" fill-rule="evenodd"/><path fill="#00ff00" stroke="#00ff00" stroke-width="24.0" stroke-linecap="butt" d="m2107.073 815.3825l-46.066406 106.35626l103.653564 -51.86261z" fill-rule="evenodd"/><path fill="#000000" fill-opacity="0.0" d="m2288.7966 1487.2467l-251.90552 -266.2047" fill-rule="evenodd"/><path stroke="#00ff00" stroke-width="24.0" stroke-linejoin="round" stroke-linecap="butt" d="m2288.7966 1487.2467l-152.92993 -161.61096" fill-rule="evenodd"/><path fill="#00ff00" stroke="#00ff00" stroke-width="24.0" stroke-linecap="butt" d="m2164.6602 1298.3889l-103.653564 -51.86267l46.066406 106.35632z" fill-rule="evenodd"/><path fill="#000000" fill-opacity="0.0" d="m1509.7704 692.72705l251.90552 266.2047" fill-rule="evenodd"/><path stroke="#00ff00" stroke-width="24.0" stroke-linejoin="round" stroke-linecap="butt" d="m1509.7704 692.72705l152.92993 161.61096" fill-rule="evenodd"/><path fill="#00ff00" stroke="#00ff00" stroke-width="24.0" stroke-linecap="butt" d="m1633.9069 881.58484l103.653564 51.86261l-46.06653 -106.35626z" fill-rule="evenodd"/><path fill="#000000" fill-opacity="0.0" d="m1509.7704 1487.2467l251.90552 -266.2047" fill-rule="evenodd"/><path stroke="#00ff00" stroke-width="24.0" stroke-linejoin="round" stroke-linecap="butt" d="m1509.7704 1487.2467l152.92993 -161.61096" fill-rule="evenodd"/><path fill="#00ff00" stroke="#00ff00" stroke-width="24.0" stroke-linecap="butt" d="m1691.4939 1352.8826l46.06653 -106.35632l-103.653564 51.86267z" fill-rule="evenodd"/><path fill="#38761d" d="m2018.8989 569.4199l90.635254 0l0 0l135.95264 0l317.22314 0l0 71.92914l0 0l0 30.826782l0 20.551208l-317.22314 0l-19.983154 47.692688l-115.96948 -47.692688l-90.635254 0l0 -20.551208l0 -30.826782l0 0z" fill-rule="evenodd"/><path fill="#ffffff" d="m2081.4424 651.8332q-2.3125 0 -4.125 -1.4375q-1.796875 -1.4375 -1.796875 -3.578125l0 -47.515625q0 -2.140625 1.4375 -3.578125q1.4375 -1.4375 3.578125 -1.4375l23.671875 0q4.28125 0 8.015625 2.265625q3.75 2.25 6.046875 6.234375q2.296875 3.984375 2.296875 9.171875q0 3.125 -1.28125 6.09375q-1.265625 2.953125 -3.453125 5.34375q-2.171875 2.375 -4.875 3.6875l0.078125 -1.890625q2.296875 1.234375 3.8125 2.921875q1.53125 1.6875 2.390625 3.625q0.859375 1.921875 1.03125 4.140625q0.328125 2.0625 0.453125 3.625q0.125 1.5625 0.484375 2.625q0.375 1.0625 1.4375 1.640625q1.8125 1.078125 2.265625 3.09375q0.453125 2.015625 -0.9375 3.578125q-0.90625 1.0625 -2.3125 1.359375q-1.390625 0.28125 -2.796875 0q-1.390625 -0.296875 -2.296875 -0.796875q-1.390625 -0.8125 -2.796875 -2.40625q-1.390625 -1.609375 -2.265625 -4.328125q-0.859375 -2.71875 -0.859375 -6.984375q0 -1.40625 -0.5 -2.59375q-0.484375 -1.1875 -1.390625 -2.046875q-0.90625 -0.875 -2.3125 -1.328125q-1.390625 -0.453125 -3.28125 -0.453125l-16.609375 0l1.234375 -1.890625l0 17.84375q0 2.140625 -1.15625 3.578125q-1.140625 1.4375 -3.1875 1.4375zm3.203125 -29.4375l19.15625 0q1.46875 0 2.859375 -1.34375q1.40625 -1.359375 2.3125 -3.703125q0.90625 -2.34375 0.90625 -5.140625q0 -3.625 -1.9375 -6.046875q-1.921875 -2.421875 -4.140625 -2.421875l-19.0 0l0.984375 -2.640625l0 23.265625l-1.140625 -1.96875zm66.83862 30.265625q-6.984375 0 -12.125 -2.921875q-5.140625 -2.921875 -7.90625 -7.9375q-2.75 -5.015625 -2.75 -11.34375q0 -7.40625 3.0 -12.625q3.015625 -5.21875 7.859375 -8.015625q4.859375 -2.796875 10.28125 -2.796875q4.1875 0 7.921875 1.734375q3.75 1.71875 6.625 4.71875q2.875 3.0 4.5625 6.953125q1.6875 3.9375 1.6875 8.390625q-0.078125 1.96875 -1.5625 3.203125q-1.484375 1.234375 -3.453125 1.234375l-31.40625 0l-2.46875 -8.21875l30.171875 0l-1.796875 1.640625l0 -2.21875q-0.171875 -2.390625 -1.703125 -4.28125q-1.515625 -1.890625 -3.78125 -3.0q-2.25 -1.109375 -4.796875 -1.109375q-2.46875 0 -4.609375 0.65625q-2.140625 0.65625 -3.703125 2.21875q-1.5625 1.5625 -2.46875 4.203125q-0.890625 2.625 -0.890625 6.65625q0 4.4375 1.84375 7.53125q1.84375 3.078125 4.765625 4.6875q2.921875 1.59375 6.203125 1.59375q3.046875 0 4.859375 -0.484375q1.8125 -0.5 2.921875 -1.203125q1.109375 -0.703125 2.015625 -1.1875q1.46875 -0.75 2.796875 -0.75q1.796875 0 2.984375 1.234375q1.203125 1.234375 1.203125 2.875q0 2.21875 -2.296875 4.03125q-2.140625 1.8125 -6.015625 3.171875q-3.859375 1.359375 -7.96875 1.359375zm64.134766 -45.640625q2.140625 0 3.53125 1.40625q1.40625 1.390625 1.40625 3.609375l0 34.78125q0 2.140625 -1.40625 3.578125q-1.390625 1.4375 -3.53125 1.4375q-2.140625 0 -3.546875 -1.4375q-1.390625 -1.4375 -1.390625 -3.578125l0 -4.03125l1.8125 0.75q0 1.0625 -1.15625 2.59375q-1.15625 1.515625 -3.125 3.0q-1.96875 1.46875 -4.640625 2.5q-2.671875 1.03125 -5.796875 1.03125q-5.671875 0 -10.28125 -2.921875q-4.59375 -2.921875 -7.28125 -8.0625q-2.671875 -5.140625 -2.671875 -11.796875q0 -6.734375 2.671875 -11.875q2.6875 -5.140625 7.203125 -8.0625q4.515625 -2.921875 10.03125 -2.921875q3.53125 0 6.484375 1.078125q2.96875 1.0625 5.140625 2.71875q2.1875 1.640625 3.375 3.328125q1.1875 1.671875 1.1875 2.828125l-2.953125 1.0625l0 -6.0q0 -2.140625 1.390625 -3.578125q1.40625 -1.4375 3.546875 -1.4375zm-16.609375 36.59375q3.609375 0 6.328125 -1.8125q2.71875 -1.8125 4.234375 -4.9375q1.515625 -3.125 1.515625 -6.984375q0 -3.953125 -1.515625 -7.0625q-1.515625 -3.125 -4.234375 -4.9375q-2.71875 -1.8125 -6.328125 -1.8125q-3.53125 0 -6.25 1.8125q-2.71875 1.8125 -4.234375 4.9375q-1.515625 3.109375 -1.515625 7.0625q0 3.859375 1.515625 6.984375q1.515625 3.125 4.234375 4.9375q2.71875 1.8125 6.25 1.8125zm42.91455 3.203125q0 2.140625 -1.4375 3.578125q-1.4375 1.4375 -3.578125 1.4375q-2.046875 0 -3.453125 -1.4375q-1.390625 -1.4375 -1.390625 -3.578125l0 -50.8125q0 -2.140625 1.4375 -3.578125q1.4375 -1.4375 3.578125 -1.4375q2.125 0 3.484375 1.4375q1.359375 1.4375 1.359375 3.578125l0 50.8125zm20.80835 0q0 2.140625 -1.40625 3.578125q-1.390625 1.4375 -3.53125 1.4375q-2.140625 0 -3.546875 -1.4375q-1.390625 -1.4375 -1.390625 -3.578125l0 -33.953125q0 -2.140625 1.390625 -3.578125q1.40625 -1.4375 3.546875 -1.4375q2.140625 0 3.53125 1.4375q1.40625 1.4375 1.40625 3.578125l0 33.953125zm-5.03125 -44.3125q-2.796875 0 -3.953125 -0.90625q-1.140625 -0.90625 -1.140625 -3.203125l0 -1.5625q0 -2.390625 1.265625 -3.25q1.28125 -0.859375 3.921875 -0.859375q2.875 0 4.015625 0.90625q1.15625 0.890625 1.15625 3.203125l0 1.5625q0 2.375 -1.234375 3.25q-1.234375 0.859375 -4.03125 0.859375zm43.16919 40.28125q1.984375 0 3.296875 1.28125q1.3125 1.265625 1.3125 3.25q0 1.890625 -1.3125 3.203125q-1.3125 1.3125 -3.296875 1.3125l-26.46875 0q-2.0625 0 -3.296875 -1.46875q-1.21875 -1.484375 -1.140625 -2.96875q0.078125 -1.234375 0.328125 -2.171875q0.25 -0.953125 1.234375 -2.1875l20.46875 -26.46875l-0.15625 1.140625l-16.703125 0q-1.96875 0 -3.28125 -1.3125q-1.3125 -1.3125 -1.3125 -3.28125q0 -1.890625 1.3125 -3.171875q1.3125 -1.28125 3.28125 -1.28125l25.328125 0q1.890625 0 3.203125 1.40625q1.3125 1.390625 1.15625 3.53125q-0.078125 0.828125 -0.296875 1.65625q-0.203125 0.8125 -1.109375 1.96875l-20.140625 26.0625l0 -0.5l17.59375 0zm47.77832 -35.765625q2.140625 0 3.53125 1.40625q1.40625 1.390625 1.40625 3.609375l0 34.78125q0 2.140625 -1.40625 3.578125q-1.390625 1.4375 -3.53125 1.4375q-2.140625 0 -3.546875 -1.4375q-1.390625 -1.4375 -1.390625 -3.578125l0 -4.03125l1.8125 0.75q0 1.0625 -1.15625 2.59375q-1.15625 1.515625 -3.125 3.0q-1.96875 1.46875 -4.640625 2.5q-2.671875 1.03125 -5.796875 1.03125q-5.671875 0 -10.28125 -2.921875q-4.59375 -2.921875 -7.28125 -8.0625q-2.671875 -5.140625 -2.671875 -11.796875q0 -6.734375 2.671875 -11.875q2.6875 -5.140625 7.203125 -8.0625q4.515625 -2.921875 10.03125 -2.921875q3.53125 0 6.484375 1.078125q2.96875 1.0625 5.140625 2.71875q2.1875 1.640625 3.375 3.328125q1.1875 1.671875 1.1875 2.828125l-2.953125 1.0625l0 -6.0q0 -2.140625 1.390625 -3.578125q1.40625 -1.4375 3.546875 -1.4375zm-16.609375 36.59375q3.609375 0 6.328125 -1.8125q2.71875 -1.8125 4.234375 -4.9375q1.515625 -3.125 1.515625 -6.984375q0 -3.953125 -1.515625 -7.0625q-1.515625 -3.125 -4.234375 -4.9375q-2.71875 -1.8125 -6.328125 -1.8125q-3.53125 0 -6.25 1.8125q-2.71875 1.8125 -4.234375 4.9375q-1.515625 3.109375 -1.515625 7.0625q0 3.859375 1.515625 6.984375q1.515625 3.125 4.234375 4.9375q2.71875 1.8125 6.25 1.8125zm32.72705 -34.953125l19.484375 0q1.96875 0 3.28125 1.328125q1.3125 1.3125 1.3125 3.28125q0 1.890625 -1.3125 3.171875q-1.3125 1.265625 -3.28125 1.265625l-19.484375 0q-1.984375 0 -3.296875 -1.3125q-1.3125 -1.3125 -1.3125 -3.28125q0 -1.890625 1.3125 -3.171875q1.3125 -1.28125 3.296875 -1.28125zm8.796875 -10.265625q2.125 0 3.484375 1.4375q1.359375 1.4375 1.359375 3.578125l0 36.578125q0 1.15625 0.453125 1.90625q0.453125 0.734375 1.234375 1.0625q0.78125 0.328125 1.6875 0.328125q0.984375 0 1.796875 -0.375q0.828125 -0.375 1.90625 -0.375q1.140625 0 2.078125 1.078125q0.953125 1.0625 0.953125 2.953125q0 2.3125 -2.515625 3.796875q-2.5 1.46875 -5.375 1.46875q-1.71875 0 -3.828125 -0.28125q-2.09375 -0.296875 -3.9375 -1.40625q-1.84375 -1.109375 -3.078125 -3.40625q-1.234375 -2.3125 -1.234375 -6.328125l0 -37.0q0 -2.140625 1.4375 -3.578125q1.4375 -1.4375 3.578125 -1.4375zm33.62744 48.421875q0 2.140625 -1.40625 3.578125q-1.390625 1.4375 -3.53125 1.4375q-2.140625 0 -3.546875 -1.4375q-1.390625 -1.4375 -1.390625 -3.578125l0 -33.953125q0 -2.140625 1.390625 -3.578125q1.40625 -1.4375 3.546875 -1.4375q2.140625 0 3.53125 1.4375q1.40625 1.4375 1.40625 3.578125l0 33.953125zm-5.03125 -44.3125q-2.796875 0 -3.953125 -0.90625q-1.140625 -0.90625 -1.140625 -3.203125l0 -1.5625q0 -2.390625 1.265625 -3.25q1.28125 -0.859375 3.921875 -0.859375q2.875 0 4.015625 0.90625q1.15625 0.890625 1.15625 3.203125l0 1.5625q0 2.375 -1.234375 3.25q-1.234375 0.859375 -4.03125 0.859375zm57.809814 27.375q0 6.75 -3.0 11.890625q-3.0 5.125 -8.0625 8.015625q-5.046875 2.875 -11.296875 2.875q-6.25 0 -11.3125 -2.875q-5.046875 -2.890625 -8.0625 -8.015625q-3.0 -5.140625 -3.0 -11.890625q0 -6.734375 3.0 -11.875q3.015625 -5.140625 8.0625 -8.0625q5.0625 -2.921875 11.3125 -2.921875q6.25 0 11.296875 2.921875q5.0625 2.921875 8.0625 8.0625q3.0 5.140625 3.0 11.875zm-9.859375 0q0 -4.1875 -1.6875 -7.265625q-1.6875 -3.09375 -4.53125 -4.8125q-2.828125 -1.734375 -6.28125 -1.734375q-3.453125 0 -6.296875 1.734375q-2.828125 1.71875 -4.515625 4.8125q-1.6875 3.078125 -1.6875 7.265625q0 4.109375 1.6875 7.203125q1.6875 3.078125 4.515625 4.8125q2.84375 1.71875 6.296875 1.71875q3.453125 0 6.28125 -1.71875q2.84375 -1.734375 4.53125 -4.8125q1.6875 -3.09375 1.6875 -7.203125zm42.00757 -22.859375q6.078125 0 9.25 2.546875q3.171875 2.546875 4.359375 6.78125q1.1875 4.234375 1.1875 9.421875l0 21.046875q0 2.140625 -1.40625 3.578125q-1.390625 1.4375 -3.53125 1.4375q-2.125 0 -3.53125 -1.4375q-1.390625 -1.4375 -1.390625 -3.578125l0 -21.046875q0 -2.71875 -0.703125 -4.890625q-0.703125 -2.1875 -2.515625 -3.5q-1.796875 -1.3125 -5.171875 -1.3125q-3.296875 0 -5.5625 1.3125q-2.25 1.3125 -3.453125 3.5q-1.1875 2.171875 -1.1875 4.890625l0 21.046875q0 2.140625 -1.390625 3.578125q-1.390625 1.4375 -3.53125 1.4375q-2.140625 0 -3.546875 -1.4375q-1.390625 -1.4375 -1.390625 -3.578125l0 -33.953125q0 -2.140625 1.390625 -3.578125q1.40625 -1.4375 3.546875 -1.4375q2.140625 0 3.53125 1.4375q1.390625 1.4375 1.390625 3.578125l0 3.53125l-1.21875 -0.25q0.734375 -1.390625 2.125 -2.984375q1.40625 -1.609375 3.296875 -3.0q1.890625 -1.40625 4.265625 -2.265625q2.390625 -0.875 5.1875 -0.875z" fill-rule="nonzero"/><path fill="#990000" d="m1323.0931 1538.2467l300.39368 0l247.37 -97.71692l-118.62976 97.71692l85.82678 0l0 23.748047l0 0l0 35.62207l0 83.11804l-85.82678 0l-128.74023 0l0 0l-300.39368 0l0 -83.11804l0 -35.62207l0 0z" fill-rule="evenodd"/><path fill="#ffffff" d="m1381.7336 1572.7036l27.53125 0q2.140625 0 3.578125 1.359375q1.4375 1.34375 1.4375 3.484375q0 2.0625 -1.4375 3.34375q-1.4375 1.265625 -3.578125 1.265625l-23.015625 0l0.734375 -1.40625l0 16.03125l-0.65625 -0.65625l19.25 0q2.125 0 3.5625 1.359375q1.453125 1.359375 1.453125 3.5q0 2.046875 -1.453125 3.328125q-1.4375 1.265625 -3.5625 1.265625l-19.0 0l0.40625 -0.65625l0 16.609375l-0.65625 -0.734375l22.9375 0q2.140625 0 3.578125 1.4375q1.4375 1.4375 1.4375 3.328125q0 2.0625 -1.4375 3.375q-1.4375 1.3125 -3.578125 1.3125l-27.53125 0q-2.140625 0 -3.578125 -1.4375q-1.4375 -1.4375 -1.4375 -3.578125l0 -47.515625q0 -2.140625 1.4375 -3.578125q1.4375 -1.4375 3.578125 -1.4375zm42.091553 13.5625q2.390625 0 4.03125 2.046875l27.453125 34.125q1.078125 1.3125 1.078125 2.96875q0 2.046875 -1.5625 3.53125q-1.5625 1.484375 -3.453125 1.484375q-2.390625 0 -4.03125 -2.140625l-27.46875 -34.125q-1.0625 -1.3125 -1.0625 -2.953125q0 -2.140625 1.515625 -3.53125q1.53125 -1.40625 3.5 -1.40625zm0.078125 44.0625q-1.640625 0 -3.25 -1.265625q-1.59375 -1.28125 -1.59375 -3.09375q0 -1.640625 1.234375 -3.125l12.578125 -15.375l4.921875 8.234375l-9.9375 12.578125q-1.5625 2.046875 -3.953125 2.046875zm27.375 -44.0625q1.984375 0 3.328125 1.359375q1.359375 1.34375 1.359375 3.078125q0 0.828125 -0.25 1.65625q-0.234375 0.8125 -0.890625 1.546875l-12.421875 15.125l-5.171875 -7.140625l10.109375 -13.40625q1.640625 -2.21875 3.9375 -2.21875zm34.46228 -0.828125q5.75 0 10.3125 2.921875q4.5625 2.921875 7.234375 8.015625q2.671875 5.09375 2.671875 11.84375q0 6.734375 -2.671875 11.875q-2.671875 5.140625 -7.15625 8.0625q-4.484375 2.921875 -10.0625 2.921875q-3.296875 0 -6.171875 -1.0625q-2.875 -1.078125 -5.0625 -2.71875q-2.171875 -1.65625 -3.375 -3.328125q-1.1875 -1.6875 -1.1875 -2.84375l2.546875 -1.0625l0 21.609375q0 2.140625 -1.390625 3.578125q-1.390625 1.4375 -3.53125 1.4375q-2.140625 0 -3.546875 -1.40625q-1.390625 -1.390625 -1.390625 -3.609375l0 -50.390625q0 -2.140625 1.390625 -3.578125q1.40625 -1.4375 3.546875 -1.4375q2.140625 0 3.53125 1.4375q1.390625 1.4375 1.390625 3.578125l0 4.03125l-1.390625 -0.75q0 -1.0625 1.140625 -2.578125q1.15625 -1.53125 3.125 -3.046875q1.984375 -1.515625 4.5625 -2.5q2.59375 -1.0 5.484375 -1.0zm-1.234375 9.046875q-3.625 0 -6.34375 1.8125q-2.703125 1.8125 -4.234375 4.890625q-1.515625 3.078125 -1.515625 7.03125q0 3.859375 1.515625 7.03125q1.53125 3.15625 4.234375 4.96875q2.71875 1.8125 6.34375 1.8125q3.609375 0 6.28125 -1.8125q2.671875 -1.8125 4.1875 -4.96875q1.53125 -3.171875 1.53125 -7.03125q0 -3.953125 -1.53125 -7.03125q-1.515625 -3.078125 -4.1875 -4.890625q-2.671875 -1.8125 -6.28125 -1.8125zm35.023926 35.765625q-2.140625 0 -3.546875 -1.4375q-1.390625 -1.4375 -1.390625 -3.578125l0 -33.953125q0 -2.140625 1.390625 -3.578125q1.40625 -1.4375 3.546875 -1.4375q2.140625 0 3.53125 1.4375q1.390625 1.4375 1.390625 3.578125l0 7.71875l-0.5625 -5.5q0.90625 -1.96875 2.34375 -3.484375q1.4375 -1.53125 3.234375 -2.5625q1.8125 -1.03125 3.859375 -1.515625q2.0625 -0.5 4.125 -0.5q2.46875 0 4.140625 1.40625q1.6875 1.390625 1.6875 3.28125q0 2.71875 -1.390625 3.90625q-1.390625 1.1875 -3.046875 1.1875q-1.5625 0 -2.84375 -0.5625q-1.265625 -0.578125 -2.90625 -0.578125q-1.484375 0 -3.0 0.703125q-1.515625 0.6875 -2.796875 2.171875q-1.28125 1.484375 -2.0625 3.65625q-0.78125 2.171875 -0.78125 5.140625l0 19.484375q0 2.140625 -1.390625 3.578125q-1.390625 1.4375 -3.53125 1.4375zm49.65515 0.828125q-6.984375 0 -12.125 -2.921875q-5.140625 -2.921875 -7.90625 -7.9375q-2.75 -5.015625 -2.75 -11.34375q0 -7.40625 3.0 -12.625q3.015625 -5.21875 7.859375 -8.015625q4.859375 -2.796875 10.28125 -2.796875q4.1875 0 7.921875 1.734375q3.75 1.71875 6.625 4.71875q2.875 3.0 4.5625 6.953125q1.6875 3.9375 1.6875 8.390625q-0.078125 1.96875 -1.5625 3.203125q-1.484375 1.234375 -3.453125 1.234375l-31.40625 0l-2.46875 -8.21875l30.171875 0l-1.796875 1.640625l0 -2.21875q-0.171875 -2.390625 -1.703125 -4.28125q-1.515625 -1.890625 -3.78125 -3.0q-2.25 -1.109375 -4.796875 -1.109375q-2.46875 0 -4.609375 0.65625q-2.140625 0.65625 -3.703125 2.21875q-1.5625 1.5625 -2.46875 4.203125q-0.890625 2.625 -0.890625 6.65625q0 4.4375 1.84375 7.53125q1.84375 3.078125 4.765625 4.6875q2.921875 1.59375 6.203125 1.59375q3.046875 0 4.859375 -0.484375q1.8125 -0.5 2.921875 -1.203125q1.109375 -0.703125 2.015625 -1.1875q1.46875 -0.75 2.796875 -0.75q1.796875 0 2.984375 1.234375q1.203125 1.234375 1.203125 2.875q0 2.21875 -2.296875 4.03125q-2.140625 1.8125 -6.015625 3.171875q-3.859375 1.359375 -7.96875 1.359375zm25.243286 -7.65625q-0.828125 -1.140625 -0.75 -2.953125q0.09375 -1.8125 2.140625 -3.125q1.328125 -0.828125 2.796875 -0.703125q1.484375 0.125 2.875 1.515625q2.390625 2.390625 5.015625 3.703125q2.640625 1.3125 6.578125 1.3125q1.234375 -0.078125 2.71875 -0.359375q1.484375 -0.296875 2.59375 -1.3125q1.109375 -1.03125 1.109375 -3.171875q0 -1.8125 -1.234375 -2.875q-1.234375 -1.078125 -3.25 -1.8125q-2.015625 -0.734375 -4.484375 -1.390625q-2.546875 -0.75 -5.21875 -1.640625q-2.671875 -0.90625 -4.890625 -2.34375q-2.21875 -1.453125 -3.625 -3.828125q-1.390625 -2.390625 -1.390625 -6.0q0 -4.109375 2.296875 -6.984375q2.3125 -2.890625 5.96875 -4.453125q3.65625 -1.5625 7.6875 -1.5625q2.546875 0 5.34375 0.625q2.796875 0.609375 5.34375 1.96875q2.546875 1.359375 4.28125 3.578125q0.890625 1.234375 1.046875 2.96875q0.171875 1.71875 -1.546875 3.109375q-1.234375 0.984375 -2.875 0.875q-1.640625 -0.125 -2.71875 -1.125q-1.390625 -1.796875 -3.734375 -2.859375q-2.34375 -1.078125 -5.390625 -1.078125q-1.234375 0 -2.671875 0.296875q-1.4375 0.28125 -2.515625 1.234375q-1.0625 0.9375 -1.0625 2.984375q0 1.890625 1.234375 3.0q1.234375 1.109375 3.328125 1.8125q2.09375 0.703125 4.484375 1.359375q2.46875 0.65625 5.015625 1.5625q2.546875 0.90625 4.6875 2.390625q2.140625 1.46875 3.453125 3.8125q1.3125 2.34375 1.3125 5.96875q0 4.1875 -2.46875 7.15625q-2.46875 2.953125 -6.171875 4.484375q-3.6875 1.515625 -7.5625 1.515625q-4.84375 0 -9.703125 -1.6875q-4.84375 -1.6875 -8.046875 -5.96875zm39.629395 0q-0.828125 -1.140625 -0.75 -2.953125q0.09375 -1.8125 2.140625 -3.125q1.328125 -0.828125 2.796875 -0.703125q1.484375 0.125 2.875 1.515625q2.390625 2.390625 5.015625 3.703125q2.640625 1.3125 6.578125 1.3125q1.234375 -0.078125 2.71875 -0.359375q1.484375 -0.296875 2.59375 -1.3125q1.109375 -1.03125 1.109375 -3.171875q0 -1.8125 -1.234375 -2.875q-1.234375 -1.078125 -3.25 -1.8125q-2.015625 -0.734375 -4.484375 -1.390625q-2.546875 -0.75 -5.21875 -1.640625q-2.671875 -0.90625 -4.890625 -2.34375q-2.21875 -1.453125 -3.625 -3.828125q-1.390625 -2.390625 -1.390625 -6.0q0 -4.109375 2.296875 -6.984375q2.3125 -2.890625 5.96875 -4.453125q3.65625 -1.5625 7.6875 -1.5625q2.546875 0 5.34375 0.625q2.796875 0.609375 5.34375 1.96875q2.546875 1.359375 4.28125 3.578125q0.890625 1.234375 1.046875 2.96875q0.171875 1.71875 -1.546875 3.109375q-1.234375 0.984375 -2.875 0.875q-1.640625 -0.125 -2.71875 -1.125q-1.390625 -1.796875 -3.734375 -2.859375q-2.34375 -1.078125 -5.390625 -1.078125q-1.234375 0 -2.671875 0.296875q-1.4375 0.28125 -2.515625 1.234375q-1.0625 0.9375 -1.0625 2.984375q0 1.890625 1.234375 3.0q1.234375 1.109375 3.328125 1.8125q2.09375 0.703125 4.484375 1.359375q2.46875 0.65625 5.015625 1.5625q2.546875 0.90625 4.6875 2.390625q2.140625 1.46875 3.453125 3.8125q1.3125 2.34375 1.3125 5.96875q0 4.1875 -2.46875 7.15625q-2.46875 2.953125 -6.171875 4.484375q-3.6875 1.515625 -7.5625 1.515625q-4.84375 0 -9.703125 -1.6875q-4.84375 -1.6875 -8.046875 -5.96875zm51.473145 1.8125q0 2.140625 -1.40625 3.578125q-1.390625 1.4375 -3.53125 1.4375q-2.140625 0 -3.546875 -1.4375q-1.390625 -1.4375 -1.390625 -3.578125l0 -33.953125q0 -2.140625 1.390625 -3.578125q1.40625 -1.4375 3.546875 -1.4375q2.140625 0 3.53125 1.4375q1.40625 1.4375 1.40625 3.578125l0 33.953125zm-5.03125 -44.3125q-2.796875 0 -3.953125 -0.90625q-1.140625 -0.90625 -1.140625 -3.203125l0 -1.5625q0 -2.390625 1.265625 -3.25q1.28125 -0.859375 3.921875 -0.859375q2.875 0 4.015625 0.90625q1.15625 0.890625 1.15625 3.203125l0 1.5625q0 2.375 -1.234375 3.25q-1.234375 0.859375 -4.03125 0.859375zm57.809937 27.375q0 6.75 -3.0 11.890625q-3.0 5.125 -8.0625 8.015625q-5.046875 2.875 -11.296875 2.875q-6.25 0 -11.3125 -2.875q-5.046875 -2.890625 -8.0625 -8.015625q-3.0 -5.140625 -3.0 -11.890625q0 -6.734375 3.0 -11.875q3.015625 -5.140625 8.0625 -8.0625q5.0625 -2.921875 11.3125 -2.921875q6.25 0 11.296875 2.921875q5.0625 2.921875 8.0625 8.0625q3.0 5.140625 3.0 11.875zm-9.859375 0q0 -4.1875 -1.6875 -7.265625q-1.6875 -3.09375 -4.53125 -4.8125q-2.828125 -1.734375 -6.28125 -1.734375q-3.453125 0 -6.296875 1.734375q-2.828125 1.71875 -4.515625 4.8125q-1.6875 3.078125 -1.6875 7.265625q0 4.109375 1.6875 7.203125q1.6875 3.078125 4.515625 4.8125q2.84375 1.71875 6.296875 1.71875q3.453125 0 6.28125 -1.71875q2.84375 -1.734375 4.53125 -4.8125q1.6875 -3.09375 1.6875 -7.203125zm42.00757 -22.859375q6.078125 0 9.25 2.546875q3.171875 2.546875 4.359375 6.78125q1.1875 4.234375 1.1875 9.421875l0 21.046875q0 2.140625 -1.40625 3.578125q-1.390625 1.4375 -3.53125 1.4375q-2.125 0 -3.53125 -1.4375q-1.390625 -1.4375 -1.390625 -3.578125l0 -21.046875q0 -2.71875 -0.703125 -4.890625q-0.703125 -2.1875 -2.515625 -3.5q-1.796875 -1.3125 -5.171875 -1.3125q-3.296875 0 -5.5625 1.3125q-2.25 1.3125 -3.453125 3.5q-1.1875 2.171875 -1.1875 4.890625l0 21.046875q0 2.140625 -1.390625 3.578125q-1.390625 1.4375 -3.53125 1.4375q-2.140625 0 -3.546875 -1.4375q-1.390625 -1.4375 -1.390625 -3.578125l0 -33.953125q0 -2.140625 1.390625 -3.578125q1.40625 -1.4375 3.546875 -1.4375q2.140625 0 3.53125 1.4375q1.390625 1.4375 1.390625 3.578125l0 3.53125l-1.21875 -0.25q0.734375 -1.390625 2.125 -2.984375q1.40625 -1.609375 3.296875 -3.0q1.890625 -1.40625 4.265625 -2.265625q2.390625 -0.875 5.1875 -0.875z" fill-rule="nonzero"/><path fill="#000000" d="m1031.7441 1191.0958l260.286 0l0 0l111.55127 0l74.36743 0l0 33.83203l399.26843 -96.26428l-399.26843 147.01233l0 118.41199l-74.36743 0l-111.55127 0l0 0l-260.286 0l0 -118.41199l0 -50.748047l0 0z" fill-rule="evenodd"/><path fill="#ffffff" d="m1112.649 1235.9143l-17.28125 40.640625q-0.5625 1.515625 -1.71875 2.359375q-1.15625 0.84375 -2.515625 0.84375q-2.171875 0 -3.21875 -1.203125q-1.03125 -1.203125 -1.03125 -2.96875q0 -0.71875 0.25 -1.515625l19.90625 -47.84375q0.640625 -1.59375 1.953125 -2.46875q1.328125 -0.890625 2.859375 -0.71875q1.4375 0 2.671875 0.84375q1.25 0.828125 1.796875 2.34375l19.6875 46.890625q0.390625 1.03125 0.390625 1.921875q0 2.15625 -1.40625 3.4375q-1.390625 1.28125 -3.0625 1.28125q-1.4375 0 -2.609375 -0.875q-1.15625 -0.890625 -1.796875 -2.40625l-17.203125 -40.078125l2.328125 -0.484375zm-14.796875 30.875l4.390625 -9.203125l21.609375 0l1.515625 9.203125l-27.515625 0zm66.713745 -31.03125q5.59375 0 10.03125 2.84375q4.453125 2.828125 7.046875 7.796875q2.609375 4.953125 2.609375 11.515625q0 6.5625 -2.609375 11.5625q-2.59375 5.0 -6.953125 7.84375q-4.359375 2.828125 -9.796875 2.828125q-3.203125 0 -6.015625 -1.03125q-2.796875 -1.046875 -4.921875 -2.640625q-2.109375 -1.609375 -3.28125 -3.25q-1.15625 -1.640625 -1.15625 -2.75l2.484375 -1.046875l0 5.84375q0 2.078125 -1.359375 3.484375q-1.359375 1.390625 -3.4375 1.390625q-2.078125 0 -3.4375 -1.359375q-1.359375 -1.359375 -1.359375 -3.515625l0 -50.234375q0 -2.09375 1.359375 -3.484375q1.359375 -1.40625 3.4375 -1.40625q2.078125 0 3.4375 1.40625q1.359375 1.390625 1.359375 3.484375l0 20.3125l-1.359375 -0.71875q0 -1.046875 1.125 -2.515625q1.125 -1.484375 3.03125 -2.96875q1.921875 -1.484375 4.4375 -2.4375q2.53125 -0.953125 5.328125 -0.953125zm-1.203125 8.796875q-3.515625 0 -6.15625 1.765625q-2.640625 1.75 -4.125 4.75q-1.46875 3.0 -1.46875 6.84375q0 3.75 1.46875 6.84375q1.484375 3.078125 4.125 4.84375q2.640625 1.75 6.15625 1.75q3.53125 0 6.125 -1.75q2.59375 -1.765625 4.078125 -4.84375q1.484375 -3.09375 1.484375 -6.84375q0 -3.84375 -1.484375 -6.84375q-1.484375 -3.0 -4.078125 -4.75q-2.59375 -1.765625 -6.125 -1.765625zm26.80249 28.15625q-0.796875 -1.125 -0.71875 -2.875q0.078125 -1.765625 2.078125 -3.046875q1.28125 -0.796875 2.71875 -0.671875q1.4375 0.109375 2.796875 1.46875q2.328125 2.328125 4.890625 3.609375q2.5625 1.28125 6.390625 1.28125q1.203125 -0.078125 2.640625 -0.359375q1.4375 -0.28125 2.515625 -1.28125q1.09375 -1.0 1.09375 -3.078125q0 -1.765625 -1.203125 -2.796875q-1.203125 -1.046875 -3.171875 -1.765625q-1.953125 -0.71875 -4.34375 -1.359375q-2.484375 -0.71875 -5.09375 -1.59375q-2.59375 -0.890625 -4.75 -2.28125q-2.15625 -1.40625 -3.515625 -3.71875q-1.359375 -2.328125 -1.359375 -5.84375q0 -4.0 2.234375 -6.796875q2.234375 -2.8125 5.796875 -4.328125q3.5625 -1.515625 7.484375 -1.515625q2.484375 0 5.203125 0.59375q2.71875 0.59375 5.1875 1.921875q2.484375 1.3125 4.171875 3.484375q0.875 1.1875 1.03125 2.875q0.15625 1.671875 -1.515625 3.03125q-1.203125 0.96875 -2.8125 0.859375q-1.59375 -0.125 -2.625 -1.09375q-1.359375 -1.765625 -3.640625 -2.796875q-2.28125 -1.046875 -5.25 -1.046875q-1.1875 0 -2.59375 0.28125q-1.40625 0.28125 -2.453125 1.203125q-1.03125 0.921875 -1.03125 2.921875q0 1.84375 1.203125 2.921875q1.203125 1.078125 3.234375 1.765625q2.046875 0.671875 4.375 1.3125q2.390625 0.640625 4.875 1.53125q2.484375 0.875 4.5625 2.3125q2.078125 1.4375 3.359375 3.71875q1.28125 2.28125 1.28125 5.796875q0 4.078125 -2.40625 6.96875q-2.40625 2.875 -6.0 4.359375q-3.59375 1.46875 -7.359375 1.46875q-4.71875 0 -9.4375 -1.640625q-4.71875 -1.640625 -7.84375 -5.796875zm82.55994 -14.71875q0 6.5625 -2.921875 11.5625q-2.921875 5.0 -7.84375 7.796875q-4.90625 2.796875 -11.0 2.796875q-6.078125 0 -11.0 -2.796875q-4.90625 -2.796875 -7.828125 -7.796875q-2.921875 -5.0 -2.921875 -11.5625q0 -6.5625 2.921875 -11.5625q2.921875 -5.0 7.828125 -7.828125q4.921875 -2.84375 11.0 -2.84375q6.09375 0 11.0 2.84375q4.921875 2.828125 7.84375 7.828125q2.921875 5.0 2.921875 11.5625zm-9.59375 0q0 -4.078125 -1.640625 -7.078125q-1.640625 -3.0 -4.40625 -4.671875q-2.765625 -1.6875 -6.125 -1.6875q-3.359375 0 -6.125 1.6875q-2.75 1.671875 -4.390625 4.671875q-1.640625 3.0 -1.640625 7.078125q0 4.0 1.640625 7.0q1.640625 3.0 4.390625 4.6875q2.765625 1.671875 6.125 1.671875q3.359375 0 6.125 -1.671875q2.765625 -1.6875 4.40625 -4.6875q1.640625 -3.0 1.640625 -7.0zm28.388672 16.484375q0 2.078125 -1.40625 3.484375q-1.390625 1.390625 -3.46875 1.390625q-2.0 0 -3.359375 -1.390625q-1.359375 -1.40625 -1.359375 -3.484375l0 -49.4375q0 -2.09375 1.390625 -3.484375q1.40625 -1.40625 3.484375 -1.40625q2.078125 0 3.390625 1.40625q1.328125 1.390625 1.328125 3.484375l0 49.4375zm42.55945 -37.921875q2.09375 0 3.453125 1.40625q1.359375 1.390625 1.359375 3.46875l0 20.328125q0 8.46875 -4.734375 13.4375q-4.71875 4.953125 -13.59375 4.953125q-8.875 0 -13.5625 -4.953125q-4.671875 -4.96875 -4.671875 -13.4375l0 -20.328125q0 -2.078125 1.359375 -3.46875q1.359375 -1.40625 3.4375 -1.40625q2.078125 0 3.4375 1.40625q1.359375 1.390625 1.359375 3.46875l0 20.328125q0 4.875 2.15625 7.234375q2.171875 2.359375 6.484375 2.359375q4.40625 0 6.5625 -2.359375q2.15625 -2.359375 2.15625 -7.234375l0 -20.328125q0 -2.078125 1.359375 -3.46875q1.359375 -1.40625 3.4375 -1.40625zm15.694336 0.796875l18.953125 0q1.921875 0 3.203125 1.28125q1.28125 1.28125 1.28125 3.203125q0 1.828125 -1.28125 3.078125q-1.28125 1.234375 -3.203125 1.234375l-18.953125 0q-1.921875 0 -3.203125 -1.28125q-1.28125 -1.28125 -1.28125 -3.203125q0 -1.828125 1.28125 -3.0625q1.28125 -1.25 3.203125 -1.25zm8.546875 -10.0q2.078125 0 3.390625 1.40625q1.328125 1.390625 1.328125 3.46875l0 35.609375q0 1.109375 0.4375 1.84375q0.453125 0.71875 1.203125 1.046875q0.765625 0.3125 1.640625 0.3125q0.96875 0 1.765625 -0.359375q0.796875 -0.375 1.84375 -0.375q1.109375 0 2.03125 1.046875q0.921875 1.046875 0.921875 2.875q0 2.25 -2.4375 3.6875q-2.4375 1.4375 -5.234375 1.4375q-1.6875 0 -3.734375 -0.28125q-2.03125 -0.28125 -3.828125 -1.359375q-1.796875 -1.078125 -3.0 -3.3125q-1.203125 -2.25 -1.203125 -6.171875l0 -36.0q0 -2.078125 1.390625 -3.46875q1.40625 -1.40625 3.484375 -1.40625zm43.444946 52.796875q-6.796875 0 -11.796875 -2.828125q-5.0 -2.84375 -7.6875 -7.71875q-2.671875 -4.890625 -2.671875 -11.046875q0 -7.203125 2.921875 -12.28125q2.921875 -5.078125 7.640625 -7.796875q4.71875 -2.71875 10.0 -2.71875q4.078125 0 7.71875 1.6875q3.640625 1.671875 6.4375 4.59375q2.796875 2.90625 4.4375 6.75q1.640625 3.84375 1.640625 8.15625q-0.078125 1.921875 -1.515625 3.125q-1.4375 1.203125 -3.359375 1.203125l-30.5625 0l-2.40625 -8.0l29.359375 0l-1.75 1.59375l0 -2.15625q-0.171875 -2.3125 -1.65625 -4.15625q-1.46875 -1.84375 -3.671875 -2.921875q-2.203125 -1.078125 -4.671875 -1.078125q-2.40625 0 -4.484375 0.640625q-2.078125 0.640625 -3.609375 2.15625q-1.515625 1.515625 -2.390625 4.078125q-0.875 2.5625 -0.875 6.484375q0 4.3125 1.796875 7.3125q1.796875 3.0 4.640625 4.5625q2.84375 1.5625 6.03125 1.5625q2.96875 0 4.71875 -0.46875q1.765625 -0.484375 2.84375 -1.15625q1.078125 -0.6875 1.96875 -1.171875q1.4375 -0.71875 2.71875 -0.71875q1.75 0 2.90625 1.203125q1.171875 1.1875 1.171875 2.796875q0 2.15625 -2.25 3.921875q-2.078125 1.75 -5.84375 3.078125q-3.75 1.3125 -7.75 1.3125z" fill-rule="nonzero"/><path fill="#ffffff" d="m1153.3616 1290.3518l26.8125 0q2.078125 0 3.46875 1.328125q1.40625 1.3125 1.40625 3.390625q0 2.0 -1.40625 3.25q-1.390625 1.234375 -3.46875 1.234375l-22.40625 0l0.71875 -1.359375l0 15.59375l-0.640625 -0.640625l18.71875 0q2.078125 0 3.46875 1.328125q1.40625 1.3125 1.40625 3.390625q0 2.0 -1.40625 3.25q-1.390625 1.234375 -3.46875 1.234375l-18.484375 0l0.40625 -0.640625l0 16.15625l-0.640625 -0.71875l22.328125 0q2.078125 0 3.46875 1.40625q1.40625 1.390625 1.40625 3.234375q0 2.0 -1.40625 3.28125q-1.390625 1.28125 -3.46875 1.28125l-26.8125 0q-2.078125 0 -3.484375 -1.390625q-1.390625 -1.40625 -1.390625 -3.484375l0 -46.25q0 -2.078125 1.390625 -3.46875q1.40625 -1.40625 3.484375 -1.40625zm62.963013 12.40625q5.921875 0 9.0 2.484375q3.078125 2.46875 4.234375 6.59375q1.171875 4.109375 1.171875 9.15625l0 20.484375q0 2.078125 -1.359375 3.484375q-1.359375 1.390625 -3.4375 1.390625q-2.09375 0 -3.453125 -1.390625q-1.359375 -1.40625 -1.359375 -3.484375l0 -20.484375q0 -2.640625 -0.6875 -4.75q-0.671875 -2.125 -2.4375 -3.40625q-1.75 -1.28125 -5.03125 -1.28125q-3.203125 0 -5.40625 1.28125q-2.1875 1.28125 -3.359375 3.40625q-1.15625 2.109375 -1.15625 4.75l0 20.484375q0 2.078125 -1.359375 3.484375q-1.359375 1.390625 -3.4375 1.390625q-2.078125 0 -3.4375 -1.390625q-1.359375 -1.40625 -1.359375 -3.484375l0 -33.046875q0 -2.078125 1.359375 -3.46875q1.359375 -1.40625 3.4375 -1.40625q2.078125 0 3.4375 1.40625q1.359375 1.390625 1.359375 3.46875l0 3.4375l-1.203125 -0.234375q0.71875 -1.359375 2.078125 -2.921875q1.375 -1.5625 3.203125 -2.921875q1.84375 -1.359375 4.15625 -2.1875q2.328125 -0.84375 5.046875 -0.84375zm25.289429 1.59375l18.953125 0q1.921875 0 3.203125 1.28125q1.28125 1.28125 1.28125 3.203125q0 1.828125 -1.28125 3.078125q-1.28125 1.234375 -3.203125 1.234375l-18.953125 0q-1.921875 0 -3.203125 -1.28125q-1.28125 -1.28125 -1.28125 -3.203125q0 -1.828125 1.28125 -3.0625q1.28125 -1.25 3.203125 -1.25zm8.546875 -10.0q2.078125 0 3.390625 1.40625q1.328125 1.390625 1.328125 3.46875l0 35.609375q0 1.109375 0.4375 1.84375q0.453125 0.71875 1.203125 1.046875q0.765625 0.3125 1.640625 0.3125q0.96875 0 1.765625 -0.359375q0.796875 -0.375 1.84375 -0.375q1.109375 0 2.03125 1.046875q0.921875 1.046875 0.921875 2.875q0 2.25 -2.4375 3.6875q-2.4375 1.4375 -5.234375 1.4375q-1.6875 0 -3.734375 -0.28125q-2.03125 -0.28125 -3.828125 -1.359375q-1.796875 -1.078125 -3.0 -3.3125q-1.203125 -2.25 -1.203125 -6.171875l0 -36.0q0 -2.078125 1.390625 -3.46875q1.40625 -1.40625 3.484375 -1.40625zm32.71997 47.125q0 2.078125 -1.359375 3.484375q-1.359375 1.390625 -3.4375 1.390625q-2.078125 0 -3.4375 -1.390625q-1.359375 -1.40625 -1.359375 -3.484375l0 -33.046875q0 -2.078125 1.359375 -3.46875q1.359375 -1.40625 3.4375 -1.40625q2.078125 0 3.4375 1.40625q1.359375 1.390625 1.359375 3.46875l0 33.046875zm-4.875 -43.125q-2.71875 0 -3.84375 -0.875q-1.109375 -0.890625 -1.109375 -3.125l0 -1.515625q0 -2.328125 1.234375 -3.15625q1.25 -0.84375 3.8125 -0.84375q2.796875 0 3.90625 0.875q1.125 0.875 1.125 3.125l0 1.515625q0 2.3125 -1.203125 3.15625q-1.1875 0.84375 -3.921875 0.84375zm15.20813 6.0l18.953125 0q1.921875 0 3.203125 1.28125q1.28125 1.28125 1.28125 3.203125q0 1.828125 -1.28125 3.078125q-1.28125 1.234375 -3.203125 1.234375l-18.953125 0q-1.921875 0 -3.203125 -1.28125q-1.28125 -1.28125 -1.28125 -3.203125q0 -1.828125 1.28125 -3.0625q1.28125 -1.25 3.203125 -1.25zm8.546875 -10.0q2.078125 0 3.390625 1.40625q1.328125 1.390625 1.328125 3.46875l0 35.609375q0 1.109375 0.4375 1.84375q0.453125 0.71875 1.203125 1.046875q0.765625 0.3125 1.640625 0.3125q0.96875 0 1.765625 -0.359375q0.796875 -0.375 1.84375 -0.375q1.109375 0 2.03125 1.046875q0.921875 1.046875 0.921875 2.875q0 2.25 -2.4375 3.6875q-2.4375 1.4375 -5.234375 1.4375q-1.6875 0 -3.734375 -0.28125q-2.03125 -0.28125 -3.828125 -1.359375q-1.796875 -1.078125 -3.0 -3.3125q-1.203125 -2.25 -1.203125 -6.171875l0 -36.0q0 -2.078125 1.390625 -3.46875q1.40625 -1.40625 3.484375 -1.40625zm55.43872 9.203125q2.09375 0 3.453125 1.40625q1.359375 1.390625 1.359375 3.46875l0 34.0q0 7.359375 -2.765625 11.71875q-2.765625 4.359375 -7.40625 6.28125q-4.640625 1.921875 -10.390625 1.921875q-2.5625 0 -5.453125 -0.40625q-2.875 -0.390625 -4.703125 -1.1875q-2.40625 -1.046875 -3.328125 -2.609375q-0.921875 -1.5625 -0.359375 -3.3125q0.71875 -2.328125 2.3125 -3.171875q1.609375 -0.828125 3.375 -0.1875q1.265625 0.390625 3.34375 1.234375q2.09375 0.84375 4.8125 0.84375q3.671875 0 6.109375 -1.0q2.453125 -1.0 3.6875 -3.359375q1.234375 -2.359375 1.234375 -6.4375l0 -5.359375l1.6875 1.90625q-1.359375 2.640625 -3.40625 4.375q-2.03125 1.71875 -4.84375 2.59375q-2.796875 0.875 -6.390625 0.875q-4.234375 0 -7.40625 -1.953125q-3.15625 -1.96875 -4.921875 -5.4375q-1.75 -3.484375 -1.75 -7.96875l0 -23.359375q0 -2.078125 1.359375 -3.46875q1.359375 -1.40625 3.4375 -1.40625q2.078125 0 3.4375 1.40625q1.359375 1.390625 1.359375 3.46875l0 20.484375q0 5.203125 2.28125 7.328125q2.28125 2.109375 6.359375 2.109375q2.796875 0 4.71875 -1.078125q1.921875 -1.078125 2.953125 -3.203125q1.046875 -2.125 1.046875 -5.15625l0 -20.484375q0 -2.078125 1.359375 -3.46875q1.359375 -1.40625 3.4375 -1.40625z" fill-rule="nonzero"/><path fill="#000000" fill-opacity="0.0" d="m3154.6497 996.7349l1049.134 0l0 179.52753l-1049.134 0z" fill-rule="evenodd"/><path fill="#595959" d="m3192.4465 1071.2001q-6.71875 0 -12.09375 -1.671875q-5.375 -1.6875 -10.265625 -5.90625q-1.25 -1.0625 -1.921875 -2.40625q-0.671875 -1.34375 -0.671875 -2.6875q0 -2.203125 1.578125 -3.875q1.59375 -1.6875 3.984375 -1.6875q1.828125 0 3.265625 1.15625q3.640625 2.96875 7.234375 4.515625q3.609375 1.53125 8.890625 1.53125q3.5625 0 6.53125 -1.09375q2.96875 -1.109375 4.796875 -2.984375q1.828125 -1.875 1.828125 -4.28125q0 -2.875 -1.734375 -4.890625q-1.71875 -2.015625 -5.28125 -3.40625q-3.546875 -1.390625 -9.015625 -2.15625q-5.1875 -0.765625 -9.125 -2.34375q-3.9375 -1.59375 -6.578125 -4.046875q-2.640625 -2.453125 -3.984375 -5.765625q-1.34375 -3.3125 -1.34375 -7.437561q0 -6.234375 3.21875 -10.640625q3.21875 -4.421875 8.6875 -6.71875q5.46875 -2.3125 12.09375 -2.3125q6.25 0 11.578125 1.875q5.328125 1.859375 8.6875 4.75q2.78125 2.203125 2.78125 5.078125q0 2.109375 -1.640625 3.84375q-1.625 1.734375 -3.828125 1.734375q-1.4375 0 -2.59375 -0.875q-1.53125 -1.34375 -4.125 -2.53125q-2.59375 -1.203125 -5.484375 -2.015625q-2.875 -0.828125 -5.375 -0.828125q-4.125 0 -6.953125 1.0625q-2.828125 1.046875 -4.28125 2.875q-1.4375 1.828125 -1.4375 4.234375q0 2.875061 1.671875 4.750061q1.6875 1.859375 4.859375 2.96875q3.171875 1.109375 7.59375 1.96875q5.75 1.0625 10.109375 2.5q4.375 1.4375 7.25 3.703125q2.890625 2.25 4.328125 5.65625q1.4375 3.40625 1.4375 8.296875q0 6.25 -3.453125 10.765625q-3.453125 4.5 -9.078125 6.90625q-5.609375 2.390625 -12.140625 2.390625zm72.87451 -52.31256q2.484375 0 4.109375 1.6875q1.640625 1.671875 1.640625 4.171936l0 24.375q0 10.1875 -5.671875 16.140625q-5.65625 5.9375 -16.3125 5.9375q-10.65625 0 -16.28125 -5.9375q-5.609375 -5.953125 -5.609375 -16.140625l0 -24.375q0 -2.500061 1.625 -4.171936q1.640625 -1.6875 4.140625 -1.6875q2.5 0 4.125 1.6875q1.640625 1.671875 1.640625 4.171936l0 24.375q0 5.859375 2.578125 8.703125q2.59375 2.828125 7.78125 2.828125q5.28125 0 7.875 -2.828125q2.59375 -2.84375 2.59375 -8.703125l0 -24.375q0 -2.500061 1.625 -4.171936q1.640625 -1.6875 4.140625 -1.6875zm44.820557 -0.953125q6.71875 0 12.046875 3.40625q5.328125 3.406311 8.453125 9.359436q3.125 5.953125 3.125 13.8125q0 7.875 -3.125 13.875q-3.125 6.0 -8.359375 9.40625q-5.21875 3.40625 -11.75 3.40625q-3.84375 0 -7.203125 -1.234375q-3.359375 -1.25 -5.90625 -3.171875q-2.546875 -1.921875 -3.9375 -3.890625q-1.390625 -1.96875 -1.390625 -3.3125l2.984375 -1.25l0 25.25q0 2.5 -1.640625 4.171875q-1.625 1.6875 -4.125 1.6875q-2.5 0 -4.140625 -1.640625q-1.625 -1.625 -1.625 -4.21875l0 -58.84375q0 -2.500061 1.625 -4.171936q1.640625 -1.6875 4.140625 -1.6875q2.5 0 4.125 1.6875q1.640625 1.671875 1.640625 4.171936l0 4.703125l-1.640625 -0.859375q0 -1.25 1.34375 -3.03125q1.34375 -1.781311 3.640625 -3.546936q2.3125 -1.78125 5.328125 -2.921875q3.03125 -1.15625 6.390625 -1.15625zm-1.4375 10.546936q-4.21875 0 -7.390625 2.125q-3.171875 2.109375 -4.953125 5.703125q-1.765625 3.59375 -1.765625 8.203125q0 4.515625 1.765625 8.21875q1.78125 3.6875 4.953125 5.8125q3.171875 2.109375 7.390625 2.109375q4.21875 0 7.34375 -2.109375q3.125 -2.125 4.890625 -5.8125q1.78125 -3.703125 1.78125 -8.21875q0 -4.609375 -1.78125 -8.203125q-1.765625 -3.59375 -4.890625 -5.703125q-3.125 -2.125 -7.34375 -2.125zm40.89746 41.765625q-2.5 0 -4.140625 -1.671875q-1.625 -1.6875 -1.625 -4.1875l0 -39.640625q0 -2.500061 1.625 -4.171936q1.640625 -1.6875 4.140625 -1.6875q2.5 0 4.125 1.6875q1.640625 1.671875 1.640625 4.171936l0 9.015625l-0.671875 -6.421875q1.046875 -2.3125 2.71875 -4.078186q1.6875 -1.78125 3.796875 -2.984375q2.125 -1.203125 4.515625 -1.765625q2.40625 -0.578125 4.796875 -0.578125q2.890625 0 4.859375 1.625q1.96875 1.625 1.96875 3.84375q0 3.156311 -1.640625 4.562561q-1.625 1.390625 -3.546875 1.390625q-1.828125 0 -3.3125 -0.671875q-1.484375 -0.671875 -3.40625 -0.671875q-1.734375 0 -3.515625 0.8125q-1.765625 0.8125 -3.265625 2.546875q-1.484375 1.71875 -2.390625 4.265625q-0.90625 2.546875 -0.90625 6.0l0 22.75q0 2.5 -1.640625 4.1875q-1.625 1.671875 -4.125 1.671875zm57.989502 0.953125q-8.171875 0 -14.171875 -3.40625q-6.0 -3.40625 -9.21875 -9.25q-3.203125 -5.859375 -3.203125 -13.25q0 -8.640625 3.5 -14.734375q3.5 -6.109375 9.15625 -9.359436q5.671875 -3.265625 12.015625 -3.265625q4.890625 0 9.25 2.015625q4.375 2.015625 7.734375 5.515686q3.359375 3.5 5.328125 8.109375q1.96875 4.609375 1.96875 9.796875q-0.09375 2.296875 -1.828125 3.734375q-1.71875 1.4375 -4.03125 1.4375l-36.671875 0l-2.875 -9.59375l35.234375 0l-2.109375 1.921875l0 -2.59375q-0.203125 -2.78125 -1.984375 -4.984375q-1.765625 -2.21875 -4.40625 -3.515625q-2.640625 -1.296875 -5.609375 -1.296875q-2.890625 0 -5.390625 0.78125q-2.484375 0.765625 -4.3125 2.59375q-1.828125 1.8125 -2.890625 4.890625q-1.046875 3.0625 -1.046875 7.765625q0 5.1875 2.15625 8.796875q2.171875 3.59375 5.578125 5.46875q3.40625 1.875 7.25 1.875q3.546875 0 5.65625 -0.578125q2.109375 -0.578125 3.40625 -1.390625q1.296875 -0.828125 2.359375 -1.390625q1.734375 -0.875 3.265625 -0.875q2.109375 0 3.5 1.453125q1.390625 1.4375 1.390625 3.34375q0 2.59375 -2.6875 4.71875q-2.5 2.109375 -7.015625 3.6875q-4.5 1.578125 -9.296875 1.578125zm59.421143 -53.265686q7.671875 0 11.3125 3.703125q3.65625 3.687561 4.8125 9.531311l-1.625 -0.859375l0.765625 -1.53125q1.140625 -2.21875 3.546875 -4.75q2.40625 -2.546936 5.8125 -4.312561q3.40625 -1.78125 7.625 -1.78125q6.921875 0 10.515625 2.96875q3.59375 2.96875 4.9375 7.921936q1.34375 4.9375 1.34375 10.984375l0 24.578125q0 2.5 -1.625 4.1875q-1.625 1.671875 -4.125 1.671875q-2.5 0 -4.140625 -1.671875q-1.625 -1.6875 -1.625 -4.1875l0 -24.578125q0 -3.15625 -0.765625 -5.703125q-0.765625 -2.546875 -2.78125 -4.078125q-2.015625 -1.546875 -5.765625 -1.546875q-3.640625 0 -6.234375 1.546875q-2.59375 1.53125 -3.890625 4.078125q-1.296875 2.546875 -1.296875 5.703125l0 24.578125q0 2.5 -1.640625 4.1875q-1.625 1.671875 -4.125 1.671875q-2.484375 0 -4.125 -1.671875q-1.625 -1.6875 -1.625 -4.1875l0 -24.578125q0 -3.15625 -0.78125 -5.703125q-0.765625 -2.546875 -2.78125 -4.078125q-2.015625 -1.546875 -5.75 -1.546875q-3.65625 0 -6.25 1.546875q-2.578125 1.53125 -3.875 4.078125q-1.296875 2.546875 -1.296875 5.703125l0 24.578125q0 2.5 -1.640625 4.1875q-1.625 1.671875 -4.125 1.671875q-2.5 0 -4.140625 -1.671875q-1.625 -1.6875 -1.625 -4.1875l0 -39.640625q0 -2.500061 1.625 -4.171936q1.640625 -1.6875 4.140625 -1.6875q2.5 0 4.125 1.6875q1.640625 1.671875 1.640625 4.171936l0 4.125l-1.453125 -0.28125q0.875 -1.640625 2.40625 -3.515625q1.53125 -1.875061 3.734375 -3.500061q2.21875 -1.625 4.90625 -2.625q2.6875 -1.015625 5.859375 -1.015625zm85.73071 53.265686q-8.171875 0 -14.171875 -3.40625q-6.0 -3.40625 -9.21875 -9.25q-3.203125 -5.859375 -3.203125 -13.25q0 -8.640625 3.5 -14.734375q3.5 -6.109375 9.15625 -9.359436q5.671875 -3.265625 12.015625 -3.265625q4.890625 0 9.25 2.015625q4.375 2.015625 7.734375 5.515686q3.359375 3.5 5.328125 8.109375q1.96875 4.609375 1.96875 9.796875q-0.09375 2.296875 -1.828125 3.734375q-1.71875 1.4375 -4.03125 1.4375l-36.671875 0l-2.875 -9.59375l35.234375 0l-2.109375 1.921875l0 -2.59375q-0.203125 -2.78125 -1.984375 -4.984375q-1.765625 -2.21875 -4.40625 -3.515625q-2.640625 -1.296875 -5.609375 -1.296875q-2.890625 0 -5.390625 0.78125q-2.484375 0.765625 -4.3125 2.59375q-1.828125 1.8125 -2.890625 4.890625q-1.046875 3.0625 -1.046875 7.765625q0 5.1875 2.15625 8.796875q2.171875 3.59375 5.578125 5.46875q3.40625 1.875 7.25 1.875q3.546875 0 5.65625 -0.578125q2.109375 -0.578125 3.40625 -1.390625q1.296875 -0.828125 2.359375 -1.390625q1.734375 -0.875 3.265625 -0.875q2.109375 0 3.5 1.453125q1.390625 1.4375 1.390625 3.34375q0 2.59375 -2.6875 4.71875q-2.5 2.109375 -7.015625 3.6875q-4.5 1.578125 -9.296875 1.578125z" fill-rule="nonzero"/><path fill="#595959" d="m3176.7122 1083.6837l32.15625 0q2.5 0 4.171875 1.59375q1.6875 1.578125 1.6875 4.078125q0 2.390625 -1.6875 3.890625q-1.671875 1.484375 -4.171875 1.484375l-26.875 0l0.859375 -1.640625l0 18.71875l-0.765625 -0.765625l22.453125 0q2.5 0 4.171875 1.59375q1.6875 1.578125 1.6875 4.078125q0 2.390625 -1.6875 3.890625q-1.671875 1.484375 -4.171875 1.484375l-22.171875 0l0.484375 -0.765625l0 19.390625l-0.765625 -0.875l26.78125 0q2.5 0 4.171875 1.6875q1.6875 1.671875 1.6875 3.890625q0 2.390625 -1.6875 3.9375q-1.671875 1.53125 -4.171875 1.53125l-32.15625 0q-2.5 0 -4.1875 -1.671875q-1.671875 -1.6875 -1.671875 -4.1875l0 -55.484375q0 -2.5 1.671875 -4.171875q1.6875 -1.6875 4.1875 -1.6875zm75.55249 14.890625q7.09375 0 10.78125 2.96875q3.703125 2.96875 5.09375 7.921875q1.390625 4.9375 1.390625 10.984375l0 24.578125q0 2.5 -1.625 4.1875q-1.625 1.671875 -4.125 1.671875q-2.5 0 -4.140625 -1.671875q-1.625 -1.6875 -1.625 -4.1875l0 -24.578125q0 -3.15625 -0.8125 -5.703125q-0.8125 -2.546875 -2.9375 -4.078125q-2.109375 -1.546875 -6.046875 -1.546875q-3.828125 0 -6.46875 1.546875q-2.640625 1.53125 -4.03125 4.078125q-1.390625 2.546875 -1.390625 5.703125l0 24.578125q0 2.5 -1.640625 4.1875q-1.625 1.671875 -4.125 1.671875q-2.5 0 -4.140625 -1.671875q-1.625 -1.6875 -1.625 -4.1875l0 -39.640625q0 -2.5 1.625 -4.171875q1.640625 -1.6875 4.140625 -1.6875q2.5 0 4.125 1.6875q1.640625 1.671875 1.640625 4.171875l0 4.125l-1.453125 -0.28125q0.875 -1.640625 2.5 -3.515625q1.640625 -1.875 3.84375 -3.5q2.203125 -1.625 4.984375 -2.625q2.796875 -1.015625 6.0625 -1.015625zm30.32544 1.90625l22.75 0q2.3125 0 3.84375 1.546875q1.53125 1.53125 1.53125 3.828125q0 2.21875 -1.53125 3.703125q-1.53125 1.484375 -3.84375 1.484375l-22.75 0q-2.296875 0 -3.84375 -1.53125q-1.53125 -1.53125 -1.53125 -3.84375q0 -2.203125 1.53125 -3.6875q1.546875 -1.5 3.84375 -1.5zm10.28125 -12.0q2.484375 0 4.0625 1.6875q1.59375 1.671875 1.59375 4.171875l0 42.71875q0 1.34375 0.53125 2.21875q0.53125 0.859375 1.4375 1.25q0.90625 0.375 1.96875 0.375q1.15625 0 2.109375 -0.421875q0.96875 -0.4375 2.21875 -0.4375q1.34375 0 2.4375 1.25q1.109375 1.234375 1.109375 3.453125q0 2.6875 -2.9375 4.421875q-2.921875 1.71875 -6.28125 1.71875q-2.015625 0 -4.46875 -0.328125q-2.4375 -0.34375 -4.609375 -1.640625q-2.15625 -1.296875 -3.59375 -3.984375q-1.4375 -2.6875 -1.4375 -7.390625l0 -43.203125q0 -2.5 1.671875 -4.171875q1.6875 -1.6875 4.1875 -1.6875zm39.263916 56.546875q0 2.5 -1.640625 4.1875q-1.625 1.671875 -4.125 1.671875q-2.5 0 -4.140625 -1.671875q-1.625 -1.6875 -1.625 -4.1875l0 -39.640625q0 -2.5 1.625 -4.171875q1.640625 -1.6875 4.140625 -1.6875q2.5 0 4.125 1.6875q1.640625 1.671875 1.640625 4.171875l0 39.640625zm-5.859375 -51.734375q-3.265625 0 -4.609375 -1.0625q-1.34375 -1.0625 -1.34375 -3.75l0 -1.8125q0 -2.796875 1.484375 -3.796875q1.5 -1.015625 4.5625 -1.015625q3.359375 0 4.703125 1.0625q1.34375 1.0625 1.34375 3.75l0 1.8125q0 2.796875 -1.4375 3.8125q-1.4375 1.0 -4.703125 1.0zm18.23413 7.1875l22.75 0q2.3125 0 3.84375 1.546875q1.53125 1.53125 1.53125 3.828125q0 2.21875 -1.53125 3.703125q-1.53125 1.484375 -3.84375 1.484375l-22.75 0q-2.296875 0 -3.84375 -1.53125q-1.53125 -1.53125 -1.53125 -3.84375q0 -2.203125 1.53125 -3.6875q1.546875 -1.5 3.84375 -1.5zm10.28125 -12.0q2.484375 0 4.0625 1.6875q1.59375 1.671875 1.59375 4.171875l0 42.71875q0 1.34375 0.53125 2.21875q0.53125 0.859375 1.4375 1.25q0.90625 0.375 1.96875 0.375q1.15625 0 2.109375 -0.421875q0.96875 -0.4375 2.21875 -0.4375q1.34375 0 2.4375 1.25q1.109375 1.234375 1.109375 3.453125q0 2.6875 -2.9375 4.421875q-2.921875 1.71875 -6.28125 1.71875q-2.015625 0 -4.46875 -0.328125q-2.4375 -0.34375 -4.609375 -1.640625q-2.15625 -1.296875 -3.59375 -3.984375q-1.4375 -2.6875 -1.4375 -7.390625l0 -43.203125q0 -2.5 1.671875 -4.171875q1.6875 -1.6875 4.1875 -1.6875zm66.52954 11.046875q2.484375 0 4.109375 1.6875q1.640625 1.671875 1.640625 4.171875l0 40.796875q0 8.828125 -3.3125 14.0625q-3.3125 5.234375 -8.875 7.53125q-5.5625 2.3125 -12.484375 2.3125q-3.0625 0 -6.53125 -0.484375q-3.453125 -0.484375 -5.65625 -1.4375q-2.875 -1.25 -3.984375 -3.125q-1.109375 -1.875 -0.4375 -3.984375q0.875 -2.78125 2.78125 -3.796875q1.921875 -1.0 4.03125 -0.234375q1.546875 0.484375 4.03125 1.484375q2.5 1.015625 5.765625 1.015625q4.421875 0 7.34375 -1.203125q2.9375 -1.203125 4.421875 -4.03125q1.484375 -2.828125 1.484375 -7.71875l0 -6.4375l2.015625 2.296875q-1.625 3.171875 -4.078125 5.234375q-2.453125 2.0625 -5.8125 3.125q-3.359375 1.046875 -7.671875 1.046875q-5.09375 0 -8.890625 -2.34375q-3.78125 -2.359375 -5.90625 -6.53125q-2.109375 -4.171875 -2.109375 -9.546875l0 -28.03125q0 -2.5 1.625 -4.171875q1.640625 -1.6875 4.140625 -1.6875q2.5 0 4.125 1.6875q1.640625 1.671875 1.640625 4.171875l0 24.578125q0 6.234375 2.734375 8.78125q2.734375 2.546875 7.625 2.546875q3.359375 0 5.65625 -1.296875q2.3125 -1.296875 3.5625 -3.84375q1.25 -2.546875 1.25 -6.1875l0 -24.578125q0 -2.5 1.625 -4.171875q1.640625 -1.6875 4.140625 -1.6875z" fill-rule="nonzero"/><path fill="#000000" fill-opacity="0.0" d="m2747.6392 186.97113l0 0c48.39038 0 94.79907 19.223053 129.01636 53.440323c34.217285 34.21727 53.440186 80.62584 53.440186 129.01637l0 534.61414c0 100.76807 81.68872 182.45667 182.45679 182.45667l0 0c-100.76807 0 -182.45679 81.68872 -182.45679 182.45667l0 534.61426c0 100.76807 -81.68848 182.45667 -182.45654 182.45667z" fill-rule="evenodd"/><path fill="#000000" fill-opacity="0.0" d="m2747.6392 186.97113l0 0c48.39038 0 94.79907 19.223053 129.01636 53.440323c34.217285 34.21727 53.440186 80.62584 53.440186 129.01637l0 534.61414c0 100.76807 81.68872 182.45667 182.45679 182.45667l0 0c-100.76807 0 -182.45679 81.68872 -182.45679 182.45667l0 534.61426c0 100.76807 -81.68848 182.45667 -182.45654 182.45667" fill-rule="evenodd"/><path stroke="#595959" stroke-width="24.0" stroke-linejoin="round" stroke-linecap="butt" d="m2747.6392 186.97113l0 0c48.39038 0 94.79907 19.223053 129.01636 53.440323c34.217285 34.21727 53.440186 80.62584 53.440186 129.01637l0 534.61414c0 100.76807 81.68872 182.45667 182.45679 182.45667l0 0c-100.76807 0 -182.45679 81.68872 -182.45679 182.45667l0 534.61426c0 100.76807 -81.68848 182.45667 -182.45654 182.45667" fill-rule="evenodd"/></g></svg>