<svg xmlns="http://www.w3.org/2000/svg" fill="none" stroke-linecap="square" stroke-miterlimit="10" viewBox="0 0 960 540"><clipPath id="a"><path d="M0 0h960v540H0z"/></clipPath><g clip-path="url(#a)"><path fill="#000" fill-rule="evenodd" d="M0 0h960v540H0z"/><path fill="none" d="M34.974 125.815c26.677 39.87 98.795 241.563 160.065 239.218S331.505 108.52 402.596 111.744c71.09 3.225 153.029 270.44 218.99 272.638 65.96 2.199 124.152-240.537 176.774-259.446s115.798 121.662 138.958 145.995"/><path stroke="#cc4125" stroke-linecap="butt" stroke-linejoin="round" stroke-width="24" d="M34.974 125.815c26.677 39.87 98.795 241.563 160.065 239.218S331.505 108.52 402.596 111.744c71.09 3.225 153.029 270.44 218.99 272.638 65.96 2.199 124.152-240.537 176.774-259.446s115.798 121.662 138.958 145.995"/><path fill="none" d="M34.974 361.655c26.677-39.87 98.795-241.563 160.065-239.218s136.466 256.514 207.557 253.289 153.029-270.44 218.99-272.638c65.96-2.198 124.152 240.538 176.774 259.446S914.158 240.872 937.318 216.54"/><path stroke="#8e7cc3" stroke-linecap="butt" stroke-linejoin="round" stroke-width="4" d="M34.974 361.655c26.677-39.87 98.795-241.563 160.065-239.218s136.466 256.514 207.557 253.289 153.029-270.44 218.99-272.638c65.96-2.198 124.152 240.538 176.774 259.446S914.158 240.872 937.318 216.54"/><path fill="none" d="M688.866 533.018V6.215h57.165v526.803z"/><path stroke="#fff" stroke-dasharray="4.0,12.0" stroke-linecap="butt" stroke-linejoin="round" stroke-width="4" d="M688.866 533.018V6.215h57.165v526.803z"/><path fill="#fff" d="M703.849 329.197q0-2.875 1.078-5.11 1.078-2.25 3.031-3.78 1.938-1.548 4.485-2.329 2.53-.781 5.406-.781 3.875 0 7.062 1.406 3.172 1.39 5.063 4.062 1.875 2.657 1.875 6.532v9.562q0 1.031-.703 1.735-.703.703-1.735.703h-23.125q-1.03 0-1.734-.703-.703-.704-.703-1.735zm23.406.406q0-2.531-1.297-4.125-1.312-1.594-3.453-2.328-2.14-.75-4.656-.75-1.875 0-3.578.422t-3 1.297-2.063 2.234-.765 3.25v7l-.36-.406h19.61l-.438.234zm-6.094-37.686q3.282 0 5.782 1.47 2.5 1.452 3.906 3.921 1.406 2.453 1.406 5.484 0 3.047-1.406 5.516-1.406 2.453-3.906 3.922-2.5 1.453-5.782 1.453-3.265 0-5.765-1.453-2.5-1.469-3.922-3.922-1.422-2.469-1.422-5.516 0-3.03 1.422-5.484 1.422-2.469 3.922-3.922 2.5-1.469 5.765-1.469m0 4.797q-2.03 0-3.53.828-1.5.813-2.345 2.203-.843 1.375-.843 3.047 0 1.688.843 3.063.844 1.375 2.344 2.203 1.5.812 3.531.812 2 0 3.5-.812 1.5-.828 2.344-2.203t.844-3.063q0-1.672-.844-3.047-.844-1.39-2.344-2.203-1.5-.828-3.5-.828m-11.11-20.241q0-3.203 1.548-4.719 1.531-1.515 3.969-2l-.36.688-.64-.328q-.922-.485-1.97-1.485-1.062-1-1.796-2.406-.75-1.422-.75-3.187 0-2.875 1.25-4.375 1.234-1.5 3.297-2.063 2.047-.562 4.562-.562h10.25q1.032 0 1.735.687.703.672.703 1.719 0 1.031-.703 1.719-.703.671-1.735.671h-10.25q-1.312 0-2.375.329-1.062.312-1.703 1.156-.64.844-.64 2.406 0 1.516.64 2.594t1.703 1.625q1.063.531 2.375.531h10.25q1.032 0 1.735.688.703.671.703 1.718 0 1.032-.703 1.719-.703.672-1.735.672h-10.25q-1.312 0-2.375.328-1.062.313-1.703 1.156-.64.844-.64 2.406 0 1.516.64 2.594t1.703 1.625q1.063.531 2.375.531h10.25q1.032 0 1.735.688.703.672.703 1.719t-.703 1.734q-.703.672-1.735.672h-16.515q-1.047 0-1.75-.672-.703-.687-.703-1.734t.703-1.719q.703-.688 1.75-.688h1.718l-.125.61q-.687-.36-1.453-1-.78-.64-1.453-1.563-.687-.922-1.11-2.03-.421-1.126-.421-2.454m0-43.161q0-1.031.688-1.703.672-.688 1.75-.688h16.922q1.032 0 1.735.688.703.672.703 1.703 0 1.047-.703 1.734-.703.672-1.735.672h-1.968l.359-.875q.531 0 1.266.563.734.546 1.468 1.515.72.953 1.22 2.266.5 1.297.5 2.812 0 2.75-1.423 5-1.422 2.235-3.922 3.547-2.5 1.297-5.75 1.297-3.265 0-5.765-1.297-2.5-1.312-3.922-3.5-1.422-2.203-1.422-4.89 0-1.72.516-3.157.515-1.437 1.328-2.5.797-1.062 1.625-1.64.812-.578 1.375-.578l.515 1.437h-2.922q-1.046 0-1.734-.672-.703-.687-.703-1.734m17.798 8.078q0-1.75-.875-3.063-.89-1.328-2.406-2.062-1.516-.75-3.407-.75-1.906 0-3.422.75-1.53.734-2.406 2.062-.89 1.313-.89 3.063 0 1.734.89 3.047.875 1.312 2.406 2.062 1.516.735 3.422.735 1.89 0 3.407-.735 1.515-.75 2.406-2.062.875-1.313.875-3.047m1.562-20.198q1.032 0 1.735.687.703.672.703 1.72 0 1.03-.703 1.718t-1.735.687h-16.515q-1.047 0-1.75-.687t-.703-1.719q0-1.047.703-1.719.703-.687 1.75-.687zm-21.562 2.437q0 1.36-.438 1.922-.437.563-1.562.563h-.766q-1.156 0-1.578-.61-.422-.625-.422-1.906 0-1.406.453-1.969.438-.562 1.547-.562h.766q1.156 0 1.578.61.422.593.422 1.952m2.203-18.799q0-2.953 1.25-4.484 1.234-1.547 3.297-2.125 2.047-.579 4.562-.579h10.25q1.032 0 1.735.688.703.672.703 1.703 0 1.047-.703 1.734-.703.672-1.735.672h-10.25q-1.312 0-2.375.344-1.062.328-1.703 1.219-.64.875-.64 2.515 0 1.594.64 2.704.64 1.093 1.703 1.671t2.375.579h10.25q1.032 0 1.735.687.703.672.703 1.719t-.703 1.734q-.703.672-1.735.672h-16.515q-1.047 0-1.75-.672-.703-.687-.703-1.734t.703-1.719q.703-.687 1.75-.687h1.718l-.125.609q-.687-.36-1.453-1.031-.78-.688-1.453-1.61-.687-.922-1.11-2.078-.421-1.172-.421-2.531"/><path fill="#000" fill-rule="evenodd" d="M328.72 397.58h132.87l114.003-41.23-57.058 41.23H556.5v95.874h-227.78V413.56z"/><path stroke="#fff" stroke-linecap="butt" stroke-linejoin="round" stroke-width="4" d="M328.72 397.58h132.87l114.003-41.23-57.058 41.23H556.5v95.874h-227.78V413.56z"/><path fill="#fff" d="M378.367 433.55q1.046 0 1.734.671.703.657.703 1.704 0 1-.703 1.656-.688.656-1.735.656h-13q-1.03 0-1.734-.703-.703-.703-.703-1.734v-23.125q0-1.032.719-1.735.718-.703 1.843-.703.954 0 1.688.703.75.703.75 1.735v21.562l-.875-.687zm24.167-17.11q1.031 0 1.703.688.688.672.688 1.75V435.8q0 1.03-.688 1.734-.672.703-1.703.703-1.047 0-1.734-.703-.672-.703-.672-1.734v-1.97l.875.36q0 .531-.563 1.266-.547.734-1.515 1.469-.954.718-2.266 1.218-1.297.5-2.813.5-2.75 0-5-1.422-2.234-1.421-3.546-3.921-1.297-2.5-1.297-5.75 0-3.266 1.297-5.766 1.312-2.5 3.5-3.922 2.203-1.422 4.89-1.422 1.719 0 3.156.516 1.438.515 2.5 1.328 1.063.797 1.641 1.625.578.812.578 1.375l-1.437.516v-2.922q0-1.047.672-1.735.687-.703 1.734-.703m-8.078 17.797q1.75 0 3.062-.875 1.328-.89 2.063-2.406.75-1.516.75-3.406 0-1.907-.75-3.422-.735-1.532-2.063-2.407-1.312-.89-3.062-.89-1.735 0-3.047.89-1.313.875-2.063 2.407-.734 1.515-.734 3.422 0 1.89.734 3.406.75 1.515 2.063 2.406 1.312.875 3.047.875m31.557-17.406q1.032 0 1.703.703.688.703.688 1.75v17q0 3.672-1.375 5.844-1.375 2.187-3.703 3.14-2.313.97-5.203.97-1.282 0-2.719-.204-1.438-.203-2.36-.594-1.203-.515-1.656-1.297-.453-.78-.172-1.672.36-1.156 1.157-1.578t1.672-.093q.64.203 1.671.609 1.047.422 2.407.422 1.843 0 3.062-.5t1.844-1.688q.625-1.172.625-3.203v-2.687l.828.968q-.672 1.313-1.703 2.172-1.016.86-2.422 1.313-1.39.437-3.187.437-2.125 0-3.704-.984-1.578-.984-2.468-2.719-.875-1.75-.875-3.984v-11.672q0-1.047.672-1.75.687-.703 1.734-.703t1.719.703q.687.703.687 1.75v10.234q0 2.594 1.14 3.657 1.141 1.062 3.173 1.062 1.406 0 2.36-.531.968-.547 1.483-1.61.516-1.062.516-2.578v-10.234q0-1.047.672-1.75.687-.703 1.734-.703m17.483 21.812q-3.406 0-5.906-1.422t-3.844-3.859-1.343-5.531q0-3.594 1.453-6.125 1.469-2.547 3.828-3.906 2.36-1.36 5-1.36 2.047 0 3.86.844 1.827.828 3.218 2.297 1.406 1.453 2.219 3.375.828 1.922.828 4.078-.047.969-.766 1.562-.718.594-1.672.594h-15.28l-1.204-4h14.688l-.891.813v-1.078q-.078-1.172-.828-2.079-.735-.921-1.828-1.468-1.094-.547-2.344-.547-1.188 0-2.234.328-1.047.312-1.813 1.078-.75.766-1.187 2.047-.438 1.266-.438 3.234 0 2.157.89 3.657.907 1.5 2.329 2.28 1.422.782 3.015.782 1.485 0 2.36-.234.89-.25 1.422-.578.547-.344.984-.594.719-.36 1.36-.36.874 0 1.453.61.578.594.578 1.39 0 1.079-1.11 1.97-1.047.874-2.922 1.546-1.875.656-3.875.656m15.913-.406q-1.047 0-1.734-.703-.672-.703-.672-1.734v-16.516q0-1.047.672-1.75.687-.703 1.734-.703t1.719.703q.687.703.687 1.75v3.75l-.281-2.672q.437-.969 1.125-1.703.703-.734 1.578-1.234.89-.5 1.89-.735 1-.25 2-.25 1.204 0 2.016.688.828.672.828 1.593 0 1.313-.687 1.891-.672.578-1.469.578-.765 0-1.39-.265-.61-.282-1.422-.282-.72 0-1.453.344-.735.328-1.36 1.047t-1 1.781-.375 2.5v9.485q0 1.03-.687 1.734-.672.703-1.72.703m46.92-10.687q0 3.28-1.47 5.78-1.453 2.5-3.921 3.907-2.453 1.406-5.485 1.406-3.047 0-5.515-1.406-2.453-1.406-3.922-3.906-1.453-2.5-1.453-5.781 0-3.266 1.453-5.766 1.469-2.5 3.922-3.922 2.468-1.422 5.515-1.422 3.032 0 5.485 1.422 2.468 1.422 3.922 3.922 1.468 2.5 1.468 5.766m-4.798 0q0-2.032-.828-3.532-.812-1.5-2.203-2.343-1.375-.844-3.047-.844-1.687 0-3.062.844-1.375.843-2.203 2.343-.813 1.5-.813 3.532 0 2 .813 3.5.828 1.5 2.203 2.343 1.375.844 3.062.844 1.672 0 3.047-.844 1.39-.843 2.203-2.343.828-1.5.828-3.5m11.398 10.687q-1.047 0-1.734-.703-.672-.703-.672-1.734v-16.516q0-1.047.672-1.75.687-.703 1.734-.703t1.719.703q.687.703.687 1.75v3.75l-.281-2.672q.437-.969 1.125-1.703.703-.734 1.578-1.234.89-.5 1.89-.735 1-.25 2-.25 1.204 0 2.016.688.828.672.828 1.593 0 1.313-.687 1.891-.672.578-1.469.578-.765 0-1.39-.265-.61-.282-1.422-.282-.72 0-1.453.344-.735.328-1.36 1.047t-1 1.781-.375 2.5v9.485q0 1.03-.687 1.734-.672.703-1.72.703M369.267 448.237h13.406q1.031 0 1.734.656.703.657.703 1.703 0 1-.703 1.625-.703.61-1.734.61H371.47l.359-.672v7.797l-.312-.313h9.359q1.031 0 1.734.657.703.656.703 1.703 0 1-.703 1.625-.703.61-1.734.61h-9.25l.203-.313v8.078l-.312-.36h11.156q1.031 0 1.734.703.703.688.703 1.61 0 1-.703 1.64-.703.641-1.734.641h-13.406q-1.032 0-1.735-.703t-.703-1.734v-23.125q0-1.032.703-1.735t1.735-.703m25.239 25.563q0 1.03-.703 1.734-.688.703-1.735.703-1 0-1.687-.703-.672-.703-.672-1.734v-24.72q0-1.046.703-1.734.703-.703 1.734-.703 1.047 0 1.704.703.656.688.656 1.735zm15.29 2.843q-3.406 0-5.906-1.422t-3.844-3.859-1.343-5.531q0-3.594 1.453-6.125 1.469-2.547 3.828-3.906 2.36-1.36 5-1.36 2.047 0 3.86.844 1.827.828 3.218 2.297 1.406 1.453 2.219 3.375.828 1.922.828 4.078-.047.969-.766 1.562-.718.594-1.672.594h-15.28l-1.204-4h14.688l-.891.813v-1.078q-.078-1.172-.828-2.079-.735-.921-1.828-1.468-1.094-.547-2.344-.547-1.188 0-2.234.328-1.047.312-1.813 1.078-.75.766-1.187 2.047-.438 1.266-.438 3.234 0 2.157.89 3.657.907 1.5 2.329 2.28 1.422.782 3.015.782 1.485 0 2.36-.234.89-.25 1.422-.578.547-.344.984-.594.719-.36 1.36-.36.874 0 1.453.61.578.594.578 1.39 0 1.079-1.11 1.97-1.047.874-2.922 1.546-1.875.656-3.875.656m24.757-22.203q3.203 0 4.718 1.547 1.516 1.531 2 3.969l-.687-.36.328-.64q.484-.922 1.484-1.969 1-1.062 2.407-1.797 1.422-.75 3.187-.75 2.875 0 4.375 1.25 1.5 1.235 2.063 3.297.562 2.047.562 4.563v10.25q0 1.03-.687 1.734-.672.703-1.72.703-1.03 0-1.718-.703-.672-.703-.672-1.734v-10.25q0-1.313-.328-2.375-.312-1.063-1.156-1.704-.844-.64-2.406-.64-1.516 0-2.594.64-1.078.641-1.625 1.704-.531 1.062-.531 2.375v10.25q0 1.03-.688 1.734-.672.703-1.719.703-1.03 0-1.718-.703-.672-.703-.672-1.734v-10.25q0-1.313-.328-2.375-.313-1.063-1.157-1.704-.843-.64-2.406-.64-1.515 0-2.594.64-1.078.641-1.625 1.704-.53 1.062-.53 2.375v10.25q0 1.03-.688 1.734-.672.703-1.72.703-1.046 0-1.733-.703-.672-.703-.672-1.734v-16.516q0-1.047.672-1.75.687-.703 1.734-.703t1.719.703q.687.703.687 1.75v1.719l-.61-.125q.36-.688 1-1.453.641-.782 1.563-1.454.922-.687 2.032-1.109 1.125-.422 2.453-.422m35.723 22.203q-3.406 0-5.906-1.422t-3.844-3.859-1.343-5.531q0-3.594 1.453-6.125 1.469-2.547 3.828-3.906 2.36-1.36 5-1.36 2.047 0 3.86.844 1.827.828 3.218 2.297 1.406 1.453 2.219 3.375.828 1.922.828 4.078-.047.969-.766 1.562-.718.594-1.672.594h-15.28l-1.204-4h14.688l-.891.813v-1.078q-.078-1.172-.828-2.079-.735-.921-1.828-1.468-1.094-.547-2.344-.547-1.188 0-2.234.328-1.047.312-1.813 1.078-.75.766-1.187 2.047-.438 1.266-.438 3.234 0 2.157.89 3.657.907 1.5 2.329 2.28 1.422.782 3.015.782 1.485 0 2.36-.234.89-.25 1.422-.578.547-.344.984-.594.719-.36 1.36-.36.874 0 1.453.61.578.594.578 1.39 0 1.079-1.11 1.97-1.047.874-2.922 1.546-1.875.656-3.875.656m24.96-22.203q2.953 0 4.484 1.25 1.547 1.235 2.125 3.297.578 2.047.578 4.563v10.25q0 1.03-.687 1.734-.672.703-1.703.703-1.047 0-1.735-.703-.672-.703-.672-1.734v-10.25q0-1.313-.343-2.375-.329-1.063-1.22-1.704-.874-.64-2.515-.64-1.594 0-2.703.64-1.094.641-1.672 1.704t-.578 2.375v10.25q0 1.03-.687 1.734-.672.703-1.72.703-1.046 0-1.734-.703-.671-.703-.671-1.734v-16.516q0-1.047.671-1.75.688-.703 1.735-.703t1.719.703q.687.703.687 1.75v1.719l-.61-.125q.36-.688 1.032-1.453.687-.782 1.61-1.454.921-.687 2.077-1.109 1.172-.422 2.532-.422m12.637.797h9.468q.97 0 1.61.64.64.641.64 1.594 0 .922-.64 1.547t-1.61.625h-9.468q-.97 0-1.61-.64t-.64-1.61q0-.922.64-1.53.64-.626 1.61-.626m4.28-5q1.032 0 1.688.703.672.703.672 1.735v17.796q0 .563.219.922t.594.532q.39.156.828.156.469 0 .875-.172.406-.188.922-.188.562 0 1.015.516.47.516.47 1.438 0 1.125-1.235 1.843-1.219.72-2.61.72-.843 0-1.859-.142-1.016-.14-1.922-.671-.906-.547-1.5-1.657-.594-1.125-.594-3.093v-18q0-1.032.688-1.735.703-.703 1.75-.703"/><path fill="none" d="M71.919 191.487H204.79l114.003-41.23-57.058 41.23h37.963v95.874H71.92v-79.895z"/><path fill="#fff" d="M104.588 248.706q0 1.032-.765 1.735-.75.703-1.75.703-1.125 0-1.813-.703-.672-.703-.672-1.735v-23.125q0-1.03.72-1.734.718-.703 1.843-.703.953 0 1.687.703.75.703.75 1.734zm17.047-19.359q2.953 0 4.485 1.25 1.547 1.234 2.125 3.297.578 2.047.578 4.562v10.25q0 1.032-.688 1.735-.672.703-1.703.703-1.047 0-1.734-.703-.672-.703-.672-1.735v-10.25q0-1.312-.344-2.375-.328-1.062-1.219-1.703-.875-.64-2.515-.64-1.594 0-2.703.64-1.094.64-1.672 1.703t-.578 2.375v10.25q0 1.032-.688 1.735-.672.703-1.719.703-1.046 0-1.734-.703-.672-.703-.672-1.735v-16.515q0-1.047.672-1.75.688-.703 1.734-.703t1.72.703q.687.703.687 1.75v1.719l-.61-.125q.36-.688 1.032-1.454.687-.78 1.609-1.453.922-.687 2.078-1.11 1.172-.421 2.531-.421m23.387-7.797q.89 0 1.719.235.844.234 1.406.78.563.532.563 1.423 0 1-.578 1.578-.579.578-1.344.578-.36 0-1.078-.172-.719-.187-1.407-.187-1 0-1.546.437-.532.438-.735 1.031-.187.578-.187 1.016v20.437q0 1.032-.688 1.735-.672.703-1.719.703-1.046 0-1.734-.703-.672-.703-.672-1.735V228.3q0-2.844 2-4.797t6-1.953m.453 8.594q.953 0 1.594.625.64.61.64 1.578 0 .953-.64 1.578t-1.594.625h-10.609q-.953 0-1.594-.625-.64-.625-.64-1.578 0-.969.64-1.578.64-.625 1.594-.625zm11.235 18.562q0 1.032-.703 1.735-.688.703-1.735.703-1 0-1.687-.703-.672-.703-.672-1.735v-24.718q0-1.047.703-1.735.703-.703 1.734-.703 1.047 0 1.703.703.657.688.657 1.735zm21.483-18.968q1.031 0 1.703.703.687.703.687 1.75v10.156q0 4.234-2.359 6.719-2.36 2.484-6.797 2.484t-6.781-2.484-2.344-6.719v-10.156q0-1.047.672-1.75.688-.703 1.734-.703t1.72.703q.687.703.687 1.75v10.156q0 2.438 1.078 3.625 1.078 1.172 3.234 1.172 2.203 0 3.281-1.172 1.079-1.187 1.079-3.625v-10.156q0-1.047.671-1.75.688-.703 1.735-.703m17.683 21.812q-3.406 0-5.906-1.422t-3.844-3.86-1.344-5.53q0-3.594 1.453-6.125 1.469-2.547 3.828-3.907t5-1.359q2.047 0 3.86.844 1.828.828 3.219 2.297 1.406 1.453 2.218 3.375.828 1.922.828 4.078-.046.969-.765 1.562t-1.672.594H187.47l-1.203-4h14.687l-.89.813v-1.079q-.079-1.171-.829-2.078-.734-.922-1.828-1.468-1.094-.547-2.344-.547-1.187 0-2.234.328-1.047.312-1.812 1.078-.75.766-1.188 2.047-.437 1.265-.437 3.234 0 2.156.89 3.656.906 1.5 2.328 2.282 1.422.78 3.016.78 1.484 0 2.36-.233.89-.25 1.421-.579.547-.343.985-.593.718-.36 1.359-.36.875 0 1.453.61.578.593.578 1.39 0 1.078-1.11 1.969-1.046.875-2.921 1.547-1.875.656-3.875.656m24.96-22.203q2.952 0 4.484 1.25 1.547 1.234 2.125 3.297.578 2.047.578 4.562v10.25q0 1.032-.688 1.735-.672.703-1.703.703-1.047 0-1.734-.703-.672-.703-.672-1.735v-10.25q0-1.312-.344-2.375-.328-1.062-1.219-1.703-.875-.64-2.515-.64-1.594 0-2.703.64-1.094.64-1.672 1.703t-.578 2.375v10.25q0 1.032-.688 1.735-.672.703-1.719.703-1.046 0-1.734-.703-.672-.703-.672-1.735v-16.515q0-1.047.672-1.75.688-.703 1.734-.703t1.72.703q.687.703.687 1.75v1.719l-.61-.125q.36-.688 1.032-1.454.687-.78 1.609-1.453.922-.687 2.078-1.11 1.172-.421 2.531-.421m21.917 0q2.282 0 3.97.484 1.702.47 2.64 1.329.953.859.953 2.062 0 .797-.485 1.5-.484.703-1.406.703-.64 0-1.062-.172-.422-.187-.735-.468-.312-.282-.765-.516-.39-.25-1.219-.39-.813-.141-1.219-.141-2.031 0-3.453.89-1.422.875-2.187 2.375-.75 1.5-.75 3.453 0 1.922.765 3.422.781 1.5 2.156 2.39 1.391.876 3.188.876 1 0 1.719-.11.718-.124 1.203-.374.562-.313 1-.672t1.328-.36q1.031 0 1.594.657.562.656.562 1.625 0 1-1.125 1.828-1.11.812-2.937 1.312-1.813.5-3.938.5-3.156 0-5.484-1.453-2.313-1.469-3.578-3.984-1.266-2.532-1.266-5.657 0-3.265 1.344-5.765t3.719-3.922q2.39-1.422 5.468-1.422m21.363 22.203q-3.406 0-5.906-1.422t-3.844-3.86-1.344-5.53q0-3.594 1.453-6.125 1.469-2.547 3.828-3.907t5-1.359q2.047 0 3.86.844 1.828.828 3.218 2.297 1.407 1.453 2.22 3.375.827 1.922.827 4.078-.047.969-.765 1.562-.719.594-1.672.594H255.71l-1.204-4h14.688l-.89.813v-1.079q-.079-1.171-.829-2.078-.734-.922-1.828-1.468-1.094-.547-2.344-.547-1.187 0-2.234.328-1.047.312-1.813 1.078-.75.766-1.187 2.047-.438 1.265-.438 3.234 0 2.156.891 3.656.906 1.5 2.328 2.282 1.422.78 3.016.78 1.484 0 2.36-.233.89-.25 1.421-.579.547-.343.984-.593.72-.36 1.36-.36.875 0 1.453.61.578.593.578 1.39 0 1.078-1.11 1.969-1.046.875-2.921 1.547-1.875.656-3.875.656"/><path fill="none" d="M370.06 373.661c-19.43 0-35.18-15.75-35.18-35.18v-63.875c0-19.43-15.752-35.18-35.182-35.18 19.43 0 35.181-15.752 35.181-35.182V140.37c0-19.43 15.751-35.181 35.181-35.181z"/><path fill="none" d="M370.06 373.661c-19.43 0-35.18-15.75-35.18-35.18v-63.875c0-19.43-15.752-35.18-35.182-35.18 19.43 0 35.181-15.752 35.181-35.182V140.37c0-19.43 15.751-35.181 35.181-35.181"/><path stroke="#fff" stroke-linecap="butt" stroke-linejoin="round" stroke-width="4" d="M370.06 373.661c-19.43 0-35.18-15.75-35.18-35.18v-63.875c0-19.43-15.752-35.18-35.182-35.18 19.43 0 35.181-15.752 35.181-35.182V140.37c0-19.43 15.751-35.181 35.181-35.181"/></g></svg>