<?xml version="1.0" encoding="utf-8" standalone="yes"?>
<!DOCTYPE svg PUBLIC "-//W3C//DTD SVG 1.1//EN" "http://www.w3.org/Graphics/SVG/1.1/DTD/svg11.dtd">
<svg width="672" height="444" viewBox="0 0 672 444" style="fill:none;stroke:none;fill-rule:evenodd;clip-rule:evenodd;stroke-linecap:round;stroke-linejoin:round;stroke-miterlimit:1.5;" version="1.1" xmlns="http://www.w3.org/2000/svg" xmlns:xlink="http://www.w3.org/1999/xlink"><style class="text-font-style fontImports" data-font-family="Comfortaa">@import url('https://fonts.googleapis.com/css2?family=Comfortaa:wght@400;700&amp;display=block');</style><g id="items" style="isolation: isolate"><g id="blend" style="mix-blend-mode: normal"><g id="g-root-sy_3_cu_4067ror9de2-fill" data-item-order="-92154" transform="translate(350, 146)"><g id="sy_3_cu_4067ror9de2-fill" stroke="none" fill="#fd6a65"><g><path d="M 45.6 12.5L 34.8 14.2L 37.1 34L 48.7 32.2ZM 37.1 34L 115.8 27.9L 111.7 8.2L 34.8 14.2ZM 111.7 8.2L 23.1 38.1L 27.8 57.6L 115.8 27.9ZM 27.8 57.6L 147.2 39.9L 142.4 20.4L 23.1 38.1ZM 142.4 20.4L 39.9 56.2L 44.2 75.9L 147.2 39.9ZM 44.2 75.9L 176.3 63.2L 172.4 43.5L 39.9 56.2ZM 172.4 43.5L 49.2 80.8L 53.5 100.4L 176.3 63.2ZM 53.5 100.4L 188.6 82.3L 184.1 62.7L 49.2 80.8ZM 184.1 62.7L 59.4 103.3L 64.5 122.7L 188.6 82.3ZM 64.5 122.7L 196.2 96.4L 191 77L 59.4 103.3ZM 191 77L 53.7 123.4L 58.6 142.8L 196.2 96.4ZM 58.6 142.8L 204.8 117.3L 199.7 97.8L 53.7 123.4ZM 199.7 97.8L 52.7 149L 57.4 168.5L 204.8 117.3ZM 57.4 168.5L 205.5 146.9L 201 127.4L 52.7 149ZM 201 127.4L 49.5 176.6L 54.3 196.1L 205.5 146.9ZM 54.3 196.1L 199.2 171L 194.5 151.5L 49.5 176.6ZM 194.5 151.5L 25.8 203.1L 30.7 222.5L 199.2 171ZM 30.7 222.5L 185.1 191.2L 179.8 171.8L 25.8 203.1ZM 179.8 171.8L 32.7 223.6L 37.5 243.1L 185.1 191.2ZM 37.5 243.1L 159 225.1L 154.2 205.6L 32.7 223.6ZM 154.2 205.6L 74.2 233.4L 80.8 252.3L 159 225.1Z" fill-rule="nonzero"></path></g></g></g><g id="g-root-sy_1_cu_1qbcn7bor9czv-fill" data-item-order="-92150" transform="translate(158, 146)"><g id="sy_1_cu_1qbcn7bor9czv-fill" stroke="none" fill="#cd6afb"><g><path d="M 68.5 240.3L 109.1 255.1L 118 237L 75.3 221.5ZM 118 237L 34.8 185.1L 26.3 203.3L 109.1 255.1ZM 26.3 203.3L 164.3 249.3L 172.1 230.9L 34.8 185.1ZM 172.1 230.9L 26.6 154.4L 18.6 172.8L 164.3 249.3ZM 18.6 172.8L 191.5 233.3L 199.2 214.8L 26.6 154.4ZM 199.2 214.8L 18.3 127.7L 10.6 146.1L 191.5 233.3ZM 10.6 146.1L 164.8 202.2L 172.3 183.7L 18.3 127.7ZM 172.3 183.7L 13.4 112.9L 6.6 131.8L 164.8 202.2ZM 6.6 131.8L 152.8 172.5L 159.9 153.7L 13.4 112.9ZM 159.9 153.7L 19.5 85.9L 11.8 104.4L 152.8 172.5ZM 11.8 104.4L 151.4 153.8L 159.3 135.4L 19.5 85.9ZM 159.3 135.4L 28.7 68.1L 21.4 86.8L 151.4 153.8ZM 21.4 86.8L 153.3 122.9L 160.5 104.2L 28.7 68.1ZM 160.5 104.2L 44.7 46.4L 36.9 64.8L 153.3 122.9ZM 36.9 64.8L 156 106.4L 164.3 88.1L 44.7 46.4ZM 164.3 88.1L 59.9 27.7L 51.4 45.9L 156 106.4ZM 51.4 45.9L 161.9 87.4L 171.2 69.6L 59.9 27.7ZM 171.2 69.6L 89.6 13.3L 80.7 31.5L 161.9 87.4ZM 80.7 31.5L 173 61.1L 182 42.9L 89.6 13.3ZM 182 42.9L 124.5 3.1L 114.9 20.8L 173 61.1ZM 114.9 20.8L 185.6 50L 193.3 31.5L 124.5 3.1Z" fill-rule="nonzero"></path></g></g></g><g id="g-root-sy_2_cu_1czw4tzor9eks-fill" data-item-order="-92146" transform="translate(302, 170)"><g id="sy_2_cu_1czw4tzor9eks-fill" stroke="none" fill="#44e095"><g><path d="M 53.4 203.8L 65.6 200L 68.7 178L 47.4 184.7ZM 68.7 178L 38.6 158.1L 32.6 178.1L 65.6 200ZM 32.6 178.1L 83.8 178L 85.6 157.9L 38.6 158.1ZM 85.6 157.9L 21.4 146.1L 20.2 166.2L 83.8 178ZM 20.2 166.2L 95.3 161.5L 97.8 141.3L 21.4 146.1ZM 97.8 141.3L 18 115.7L 14.5 135.5L 95.3 161.5ZM 14.5 135.5L 95.9 138.9L 98.7 119L 18 115.7ZM 98.7 119L 14.2 98.7L 12.1 118.7L 95.9 138.9ZM 12.1 118.7L 104.1 116.9L 106.6 96.8L 14.2 98.7ZM 106.6 96.8L 17.8 72L 14.6 91.9L 104.1 116.9ZM 14.6 91.9L 102.5 96L 105.8 76.2L 17.8 72ZM 105.8 76.2L 18.3 50.6L 16 70.8L 102.5 96ZM 16 70.8L 94.5 66.7L 95.7 46.6L 18.3 50.6ZM 95.7 46.6L 35.6 36L 34.6 56.1L 94.5 66.7ZM 34.6 56.1L 82.7 52.3L 87.3 31.8L 35.6 36ZM 87.3 31.8L 52.9 12.3L 51.2 34.3L 82.7 52.3ZM 51.2 34.3L 71.9 26.6L 64.9 7.8L 52.9 12.3Z" fill-rule="nonzero"></path></g></g></g><g id="g-root-tx_currentp_14309knoqwr2b-fill" data-item-order="0" transform="translate(248, 110)"><g id="tx_currentp_14309knoqwr2b-fill" stroke="none" fill="#484848"><g><text style="font: 20px Comfortaa, sans-serif; white-space: pre;" font-size="20px" font-family="Comfortaa, sans-serif"><tspan x="13.08" y="33" dominant-baseline="ideographic">Current Perception</tspan></text></g></g></g><g id="g-root-tx_metaphys_mdll6forarym-fill" data-item-order="0" transform="translate(2, 242)"><g id="tx_metaphys_mdll6forarym-fill" stroke="none" fill="#484848"><g><text style="font: 20px Comfortaa, sans-serif; white-space: pre;" font-size="20px" font-family="Comfortaa, sans-serif"><tspan x="12.23" y="33" dominant-baseline="ideographic">Metaphysical </tspan><tspan x="71.25" y="57" dominant-baseline="ideographic">Domain</tspan></text></g></g></g><g id="g-root-ic_4_hx5lyvordmo9-fill" data-item-order="0" transform="translate(326, 242)"></g><g id="g-root-tx_physical_zp23jror9czx-fill" data-item-order="0" transform="translate(554, 242)"><g id="tx_physical_zp23jror9czx-fill" stroke="none" fill="#484848"><g><text style="font: 20px Comfortaa, sans-serif; white-space: pre;" font-size="20px" font-family="Comfortaa, sans-serif"><tspan x="12" y="33" dominant-baseline="ideographic">Physical </tspan><tspan x="12" y="57" dominant-baseline="ideographic">Domain</tspan></text></g></g></g><g id="g-root-sy_3_cu_4067ror9de2-stroke" data-item-order="-92154" transform="translate(350, 146)"><g id="sy_3_cu_4067ror9de2-stroke" fill="none" stroke-linecap="round" stroke-linejoin="round" stroke-miterlimit="4" stroke="#543a3a" stroke-width="4"><g><path d="M 10 226C 19.9 220.8 27 211.5 33.7 202.5C 41.3 192.1 46.2 180.1 51.8 168.2C 57.2 156.8 57.7 143.4 58 130C 58.8 90.7 39.2 55.8 10 34C 28.9 17.5 55 11.6 82 10C 117.8 7.8 148.9 26.8 172.1 50.7C 191.7 70.9 200.5 99.6 202 130C 203.2 153.6 193.4 174.8 183.3 194.3C 174.2 211.9 157.9 224.4 140.9 234.6C 123.7 244.8 103.4 250.8 82 250C 55 249 30.5 240.4 10 226M 10 226.009C 39.147 204.116 58 169.26 58 130C 58 90.74 39.147 55.884 10 33.991C 30.056 18.927 54.985 10 82 10C 148.274 10 202 63.726 202 130C 202 196.274 148.274 250 82 250C 54.985 250 30.056 241.073 10 226.009Z"></path></g></g></g><g id="g-root-sy_1_cu_1qbcn7bor9czv-stroke" data-item-order="-92150" transform="translate(158, 146)"><g id="sy_1_cu_1qbcn7bor9czv-stroke" fill="none" stroke-linecap="round" stroke-linejoin="round" stroke-miterlimit="4" stroke="#4f3d58" stroke-width="4"><g><path d="M 202 34C 172.1 54.8 152.7 90.8 154 130C 154.4 143 156.4 155.4 159.9 167.2C 163.6 180 169.5 192.1 178 202C 185.4 210.6 193.5 218.4 202 226C 183.2 242.6 157 250.5 130 250C 106.7 249.6 85.8 241.9 66.5 231.9C 49.6 223 35.8 208.4 26.9 191.4C 17.2 172.9 8.1 152.4 10 130C 11.4 112.7 13.8 96.2 20.3 81.2C 26.7 66.7 35.5 53.2 47.3 43.1C 58.8 33.1 71.2 23.8 85.7 18.4C 99.5 13.3 114.4 11.2 130 10C 156.9 7.9 181.6 19.3 202 34M 202 33.991C 172.853 55.884 154 90.74 154 130C 154 169.26 172.853 204.116 202 226.009C 181.944 241.073 157.015 250 130 250C 63.726 250 10 196.274 10 130C 10 63.726 63.726 10 130 10C 157.015 10 181.944 18.927 202 33.991Z"></path></g></g></g><g id="g-root-sy_2_cu_1czw4tzor9eks-stroke" data-item-order="-92146" transform="translate(302, 170)"><g id="sy_2_cu_1czw4tzor9eks-stroke" fill="none" stroke-linecap="round" stroke-linejoin="round" stroke-miterlimit="4" stroke="#374840" stroke-width="4"><g><path d="M 58 202C 86.8 179.6 105 145.3 106 106C 106.5 88.2 102.2 71.2 95.1 56C 86.6 37.8 74.7 20.8 58 10C 48.5 15.6 41.3 24.4 34.7 33.1C 27.2 42.9 21.7 54.1 16.9 65.8C 11.8 78.1 10.4 91.9 10 106C 9.5 124.2 13.7 141.7 21.3 157C 30.1 174.6 43 189.5 58 202M 58 202.018C 87.147 180.125 106 145.268 106 106.009C 106 66.749 87.147 31.893 58 10C 28.853 31.893 10 66.749 10 106.009C 10 145.268 28.853 180.125 58 202.018Z"></path></g></g></g><g id="g-root-tx_currentp_14309knoqwr2b-stroke" data-item-order="0" transform="translate(248, 110)"></g><g id="g-root-tx_metaphys_mdll6forarym-stroke" data-item-order="0" transform="translate(2, 242)"></g><g id="g-root-ic_4_hx5lyvordmo9-stroke" data-item-order="0" transform="translate(326, 242)"><g id="ic_4_hx5lyvordmo9-stroke" fill="none" stroke-linecap="round" stroke-linejoin="round" stroke-miterlimit="4" stroke="#484848" stroke-width="2"><g><path d="M 43.200001 56C 43 56.599998 42.599998 56.599998 42.599998 56C 42.200001 48.599998 37.400002 42.200001 34.599998 35.400002C 34.400002 34.799999 34.799999 34.799999 35.200001 34.799999C 42.599998 34.799999 50 38.400002 56 42.599998C 56.400002 42.799999 56.599998 43 56 43.200001C 52.400002 43.599998 49.200001 45.799999 45.599998 45.799999C 46 49.200001 44 52.599998 43.200001 56M 50.599998 34.799999C 50.400002 35.200001 50.200001 35.599998 50.200001 36M 35 50.599998C 34.200001 50.799999 33.200001 50.599998 32.400002 50.799999M 26.6 50.400002C 24.799999 50.400002 23.200001 49.799999 21.799999 48.599998M 17.799999 46C 16.6 44.799999 15.2 43.799999 14.4 42.200001M 11.8 36.799999C 11.2 35.200001 10.8 33.599998 11 32M 11.4 27C 11.6 25.4 12 23.6 13 22.200001M 16.200001 17.4C 17.6 16.200001 18.6 15 20.200001 14.2M 24.6 12C 25.200001 11.4 26.200001 11.8 27 11.4C 27.799999 11.4 28.6 10.8 29.4 11M 35.400002 11.4C 36.799999 12.2 38.400002 12.6 40 13.2M 44.200001 16C 45.200001 17 46.200001 18.6 47.400002 19.6M 50 25C 50.599998 26.6 50.799999 28.200001 51 30M 43.133999 55.948002C 43.001999 56.481998 42.734001 56.498001 42.534 55.984001L 34.678001 35.313999C 34.478001 34.799999 34.743999 34.538002 35.257999 34.73L 56.014 42.514C 56.528 42.714001 56.514 42.973999 55.98 43.113998L 45.636002 45.700001ZM 50.562 34.834C 50.478001 35.195999 50.391998 35.557999 50.296001 35.917999M 34.956001 50.515999C 34.127998 50.618 33.312 50.82 32.478001 50.841999M 26.52 50.400002C 24.892807 50.030464 23.318481 49.457985 21.834 48.695999M 17.765999 45.931999C 16.512474 44.831909 15.398202 43.582634 14.448 42.212002M 11.84 36.832001C 11.36237 35.233986 11.080311 33.583939 11 31.918001M 11.338 27C 11.675068 25.365536 12.212459 23.778889 12.938 22.276001M 16.292 17.341999C 17.420328 16.112982 18.701416 15.033533 20.104 14.13M 24.538 11.988C 25.316 11.688 26.138 11.544 26.938 11.32C 27.77 11.218 28.586 11.018 29.42 11M 35.379997 11.427999C 37.007118 11.796837 38.581448 12.368649 40.066002 13.13M 44.132 15.903999C 45.387177 17.003757 46.502228 18.253822 47.452 19.625999M 50.060001 25C 50.537804 26.597979 50.819866 28.248047 50.900002 29.914001"></path></g></g></g><g id="g-root-tx_physical_zp23jror9czx-stroke" data-item-order="0" transform="translate(554, 242)"></g></g></g><path id="wmagih3oh8cnh" d="M65.283 12.757a.35.35 0 0 0 .584.157l5.203-5.141-6.183 3.523.396 1.461zm-2.216-11.7a.35.35 0 0 0-.522.305v3.111l3.276-1.868-2.754-1.548zm3.728 2.105l-4.25 2.421v2.445l6.391-3.644-2.141-1.222zm4.708 3.303a.35.35 0 0 0 0-.609l-1.592-.9-7.365 4.199v1.782a.35.35 0 0 0 .523.305l8.435-4.777z M44.542 2.513c0-.433.355-.783.792-.783s.792.35.792.783-.355.783-.792.783-.792-.35-.792-.783zm59.171 0c0-.433.355-.783.792-.783s.792.35.792.783-.355.783-.792.783-.792-.35-.792-.783zm-85.951 7.636h-1.27v-.487c-.276.201-.864.609-1.881.609-1.202 0-2.274-.794-2.137-2.078.118-1.106 1.153-1.584 1.848-1.727l2.17-.345c0-.539-.29-.956-1.064-1.006s-1.21.305-1.571 1.017l-1.124-.605c1.218-2.631 5.029-1.764 5.029.414v4.207zm-1.27-2.86c.006.396-.062 1.112-.819 1.59-.587.37-1.841.299-1.903-.395-.049-.555.461-.791.906-.898l1.816-.297zm72.662 2.86h-1.27v-.487c-.276.201-.864.609-1.881.609-1.202 0-2.274-.794-2.137-2.078.118-1.106 1.153-1.584 1.848-1.727l2.17-.345c0-.539-.29-.956-1.064-1.006s-1.21.305-1.571 1.017l-1.124-.605c1.218-2.631 5.029-1.764 5.029.414v4.207zm-1.27-2.86c.006.396-.062 1.112-.82 1.59-.587.37-1.841.299-1.903-.395-.049-.555.461-.791.906-.898l1.816-.297zM99.096 10.149H97.85v-8.45h1.246v4.895l2.68-2.559h1.738l-2.633 2.535 2.715 3.578h-1.556l-2.077-2.707-.867.844v1.863zm6.053-6.114h-1.255v6.113h1.255V4.035zm-59.2 0h-1.255v6.113h1.255V4.035zm5.584 6.113V1.697h1.255v2.695c.361-.346 1-.485 1.47-.485 1.452 0 2.477 1.082 2.457 2.448v3.792h-1.27v-3.68c0-.408-.214-1.339-1.315-1.339-.968 0-1.342.756-1.342 1.339v3.681h-1.255zm-4.76-4.894V4.039h.621a.45.45 0 0 0 .45-.45v-.855h1.251v1.305h1.309v1.215h-1.309v3.109c0 .293.105.664.648.664.365 0 .531-.035.736-.07v1.137s-.361.113-.857.113c-1.398 0-1.777-1.051-1.777-1.788V5.254h-1.071zM36.528 4.039h-1.394l2.191 6.106h1.125l1.234-3.918 1.238 3.918h1.129l2.188-6.106h-1.383l-1.359 3.93-1.256-3.93h-1.124l-1.242 3.957-1.348-3.957zM26.212 7.141c-.02 1.566 1.187 3.129 3.223 3.129 1.566 0 2.383-.918 2.734-1.719L31.172 8c-.315.399-.801 1.094-1.738 1.094-1.145 0-1.825-.781-1.891-1.52h4.625c.074-.284.148-.995-.03-1.559-.336-1.064-1.221-2.102-2.839-2.102s-3.088 1.152-3.088 3.227zm1.363-.75h3.348c-.055-.43-.566-1.301-1.623-1.301a1.79 1.79 0 0 0-1.725 1.301zm-8.758.75c.038 1.758 1.277 3.133 3.145 3.133 1.074 0 1.723-.477 1.961-.672v.547h1.242V1.703h-1.258v2.888c-.414-.36-1.062-.68-1.93-.68-1.91 0-3.198 1.473-3.16 3.23zm1.309-.08c0 1.119.723 1.978 1.836 1.978a1.88 1.88 0 0 0 1.94-1.904c0-1.371-1.011-1.99-1.972-1.99s-1.805.798-1.805 1.916zm76.683-.028C96.771 5.275 95.532 3.9 93.664 3.9c-1.074 0-1.723.477-1.961.672v-.547h-1.242v8.22h1.258V9.583c.414.36 1.063.68 1.93.68 1.91 0 3.198-1.473 3.16-3.23zm-1.309.08c0-1.119-.723-1.978-1.836-1.978a1.88 1.88 0 0 0-1.94 1.904c0 1.371 1.011 1.99 1.972 1.99S95.5 8.231 95.5 7.113zM106.441 10.173V4.036h1.254v.382c.361-.346 1-.485 1.47-.485 1.452 0 2.477 1.082 2.457 2.448v3.792h-1.27V6.492c0-.408-.214-1.339-1.315-1.339-.969 0-1.342.756-1.342 1.339v3.681h-1.254zm-30.383-.021V1.824h1.084l4.215 5.777V1.824h1.32v8.328h-1.094l-4.207-5.796v5.796h-1.319zM5.24 10.149H4V2.377h1.014l2.664 3.597 2.654-3.592h1.03v7.766h-1.256V4.762L7.678 8.068 5.24 4.742v5.407z" transform="translate(20, 410)" fill="#80808088" stroke="none"></path></svg>