<svg xmlns="http://www.w3.org/2000/svg" fill="none" stroke-linecap="square" stroke-miterlimit="10" viewBox="0 0 960 540"><clipPath id="a"><path d="M0 0h960v540H0z"/></clipPath><g clip-path="url(#a)"><path fill="#000" fill-rule="evenodd" d="M0 0h960v540H0z"/><path fill="none" d="M57.84-6.105h119.622v555.843H57.84z"/><path stroke="#fff" stroke-dasharray="4.0,12.0" stroke-linecap="butt" stroke-linejoin="round" stroke-width="4" d="M57.84-6.105h119.622v555.843H57.84z"/><path fill="none" d="M24.42 59.853c39.576 41.336 155.228 247.28 237.46 248.013 82.23.733 166.659-246.839 255.926-243.614s207.85 241.27 279.674 262.963 126.059-110.667 151.27-132.8"/><path stroke="#dd7e6b" stroke-linecap="butt" stroke-linejoin="round" stroke-width="24" d="M24.42 59.853c39.576 41.336 155.228 247.28 237.46 248.013 82.23.733 166.659-246.839 255.926-243.614s207.85 241.27 279.674 262.963 126.059-110.667 151.27-132.8"/><path fill="none" d="M18.714 311.46C58.29 270.123 173.942 64.18 256.174 63.445c82.23-.733 166.659 246.84 255.926 243.614 89.267-3.224 207.85-241.27 279.674-262.963s126.059 110.667 151.27 132.8"/><path stroke="#dd7e6b" stroke-linecap="butt" stroke-linejoin="round" stroke-width="24" d="M18.714 311.46C58.29 270.123 173.942 64.18 256.174 63.445c82.23-.733 166.659 246.84 255.926 243.614 89.267-3.224 207.85-241.27 279.674-262.963s126.059 110.667 151.27 132.8"/><path fill="none" d="M20.9 146.924c16.564 6.45 60.98 39.429 99.383 38.696 38.405-.734 84.87-44.854 131.042-43.095 46.173 1.76 101.726 53.062 145.993 53.648s74.315-49.984 119.609-50.13 104.364 50.423 152.15 49.251c47.784-1.172 89.56-56.726 134.56-56.286s109.348 49.103 135.44 58.924c26.09 9.82 17.589 0 21.107 0"/><path stroke="#b4a7d6" stroke-linecap="butt" stroke-linejoin="round" stroke-width="8" d="M20.9 146.924c16.564 6.45 60.98 39.429 99.383 38.696 38.405-.734 84.87-44.854 131.042-43.095 46.173 1.76 101.726 53.062 145.993 53.648s74.315-49.984 119.609-50.13 104.364 50.423 152.15 49.251c47.784-1.172 89.56-56.726 134.56-56.286s109.348 49.103 135.44 58.924c26.09 9.82 17.589 0 21.107 0"/><path fill="none" d="M14.745 230.472C75.43 206.14 245.314 80.229 378.848 84.48c133.534 4.25 339.187 147.166 437.102 171.498 97.916 24.332 125.326-21.255 150.391-25.506"/><path stroke="#8e7cc3" stroke-linecap="butt" stroke-linejoin="round" stroke-width="8" d="M14.745 230.472C75.43 206.14 245.314 80.229 378.848 84.48c133.534 4.25 339.187 147.166 437.102 171.498 97.916 24.332 125.326-21.255 150.391-25.506"/><path fill="none" d="M20.9 114.383c63.03 32.54 225.293 197.883 378.176 195.244 152.883-2.638 449.267-175.896 539.12-211.076"/><path stroke="#cc4125" stroke-linecap="butt" stroke-linejoin="round" stroke-width="16" d="M20.9 114.383c63.03 32.54 225.293 197.883 378.176 195.244 152.883-2.638 449.267-175.896 539.12-211.076"/><path fill="none" d="M64.874 176.507c0-26.962 21.857-48.82 48.819-48.82a48.82 48.82 0 0 1 48.819 48.82c0 26.961-21.857 48.818-48.82 48.818-26.961 0-48.818-21.857-48.818-48.818"/><path stroke="#00b883" stroke-linecap="butt" stroke-linejoin="round" stroke-width="8" d="M64.874 176.507c0-26.962 21.857-48.82 48.819-48.82a48.82 48.82 0 0 1 48.819 48.82c0 26.961-21.857 48.818-48.82 48.818-26.961 0-48.818-21.857-48.818-48.818z"/><path fill="none" d="M609.41 184.087c0-24.927 20.207-45.134 45.133-45.134a45.134 45.134 0 0 1 45.134 45.134c0 24.926-20.207 45.133-45.134 45.133-24.926 0-45.134-20.207-45.134-45.133"/><path stroke="#00b883" stroke-linecap="butt" stroke-linejoin="round" stroke-width="8" d="M609.41 184.087c0-24.927 20.207-45.134 45.133-45.134a45.134 45.134 0 0 1 45.134 45.134c0 24.926-20.207 45.133-45.134 45.133-24.926 0-45.134-20.207-45.134-45.133z"/><path fill="none" d="M340.827 189.53c0-24.927 20.207-45.134 45.134-45.134a45.134 45.134 0 0 1 45.133 45.134c0 24.927-20.207 45.134-45.133 45.134s-45.134-20.207-45.134-45.134"/><path stroke="#00b883" stroke-linecap="butt" stroke-linejoin="round" stroke-width="8" d="M340.827 189.53c0-24.927 20.207-45.134 45.134-45.134a45.134 45.134 0 0 1 45.133 45.134c0 24.927-20.207 45.134-45.133 45.134s-45.134-20.207-45.134-45.134z"/><path fill="none" d="M29.696 309.79h183.81v52.756H29.697z"/><path fill="#fff" d="M93.92 325.033q.578 0 .938.39.359.376.359.954v13.984q0 .625-.422 1.047t-1.047.422q-.312 0-.64-.11-.313-.109-.485-.296l-9.437-11.985.625-.375v11.422q0 .578-.375.969-.36.375-.97.375-.577 0-.937-.375-.359-.39-.359-.969v-14q0-.61.422-1.031.422-.422 1.047-.422.328 0 .687.14.36.126.532.391l9.14 11.657-.406.297v-11.141q0-.578.36-.953.359-.39.968-.39m17.109 10.39q0 1.97-.875 3.47t-2.36 2.343q-1.468.828-3.297.828-1.828 0-3.296-.828-1.47-.843-2.36-2.343-.875-1.5-.875-3.47 0-1.968.875-3.468.89-1.5 2.36-2.344 1.468-.86 3.296-.86 1.829 0 3.297.86 1.485.844 2.36 2.344t.875 3.469m-2.875 0q0-1.218-.5-2.124-.485-.906-1.313-1.406t-1.844-.5q-1 0-1.828.5t-1.328 1.406q-.484.906-.484 2.125 0 1.203.484 2.11.5.89 1.328 1.39t1.828.5q1.016 0 1.844-.5t1.313-1.39q.5-.907.5-2.11m15.913-11.359q.625 0 1.031.422.407.407.407 1.047v14.828q0 .625-.407 1.047t-1.03.422q-.626 0-1.048-.422-.406-.422-.406-1.047v-1.172l.531.22q0 .312-.343.765-.329.437-.907.875-.562.422-1.343.719-.782.296-1.704.296-1.656 0-3-.843-1.343-.86-2.125-2.36-.78-1.5-.78-3.437 0-1.969.78-3.469.782-1.5 2.094-2.344 1.328-.86 2.938-.86 1.031 0 1.89.313.875.313 1.5.797.641.469.985.969.36.484.36.828l-.876.313v-6.438q0-.625.406-1.047.422-.422 1.047-.422m-4.86 15.36q1.063 0 1.845-.516.796-.531 1.234-1.437.453-.922.453-2.047 0-1.156-.453-2.063-.438-.922-1.234-1.437-.782-.531-1.844-.531-1.031 0-1.828.53-.782.516-1.235 1.438-.437.907-.437 2.063 0 1.125.437 2.047.453.906 1.235 1.437.797.516 1.828.516m15.463 2.64q-2.046 0-3.546-.843-1.5-.86-2.313-2.313-.797-1.469-.797-3.312 0-2.172.875-3.688.89-1.531 2.297-2.344 1.422-.812 3-.812 1.234 0 2.313.5 1.093.5 1.937 1.39.844.876 1.328 2.032.5 1.14.5 2.437-.031.578-.469.938-.421.36-1 .36h-9.171l-.72-2.407h8.813l-.531.484v-.64q-.047-.703-.5-1.25-.437-.563-1.094-.875-.656-.328-1.406-.328-.719 0-1.344.187-.625.188-1.078.656-.453.453-.719 1.219t-.265 1.938q0 1.296.531 2.203.547.89 1.39 1.359.86.469 1.829.469.89 0 1.406-.14.531-.141.86-.345t.578-.343q.437-.22.828-.22.515 0 .859.36.36.36.36.844 0 .64-.672 1.172-.625.531-1.75.922-1.125.39-2.329.39m18.99-.234q-.672 0-1.11-.422-.437-.422-.437-1.047v-12.093l.344.53-1.75 1.298q-.344.265-.844.265-.578 0-1.016-.437-.422-.438-.422-1.031 0-.766.735-1.25l3.468-2.297q.235-.172.532-.235.297-.078.562-.078.703 0 1.11.422.406.422.406 1.031v13.875q0 .625-.453 1.047-.438.422-1.125.422m6.742-9.39q-.703 0-1.078-.36-.36-.375-.36-1.078v-.406q0-.688.36-1.063.375-.375 1.078-.375h.312q.688 0 1.063.375t.375 1.063v.406q0 .703-.375 1.078-.375.36-1.063.36zm0 9.39q-.703 0-1.078-.375-.36-.375-.36-1.062v-.407q0-.703.36-1.062.375-.375 1.078-.375h.312q.688 0 1.063.375.375.36.375 1.062v.407q0 .687-.375 1.062t-1.063.375zM80.906 370.864q-.89 0-1.906-.265-1-.281-1.64-.813-.313-.265-.5-.672-.172-.421-.172-.812 0-.406.343-.766t1-.36q.438 0 1.079.454.39.234.843.438.453.187.938.187 1.14 0 1.984-.422t1.297-1.156q.453-.75.453-1.766 0-.906-.422-1.547-.422-.656-1.11-1.015-.67-.36-1.468-.36-.734 0-1.297.25-.547.235-1 .485t-.922.25q-.78 0-1.171-.344-.375-.36-.485-.828-.094-.484-.047-.875l.75-5.828q.094-.5.485-.828.406-.328.953-.328h6.937q.578 0 .953.39.391.39.391.953t-.39.938q-.376.36-.954.36h-6.187l.265-.204-.656 4.86-.312-.907q.14-.234.625-.453.484-.219 1.11-.375.624-.156 1.218-.156 1.61 0 2.875.734 1.281.735 2.015 2 .735 1.25.735 2.828 0 1.813-.828 3.157-.813 1.343-2.297 2.078-1.469.718-3.485.718m31.107-13.078q.547 0 .953.422.422.422.422 1.063 0 .172-.031.312-.032.125-.078.25l-3.672 9.89q-.157.47-.594.735-.438.25-.906.172-.828-.047-1.235-.906l-2.375-6.844.625.016-2.234 6.828q-.406.86-1.219.906-.453.078-.906-.172-.438-.265-.61-.734l-3.671-9.89q-.094-.266-.094-.563 0-.563.375-1.016.39-.469 1.062-.469.454 0 .813.219.375.219.516.703l2.906 7.86-.61-.047 2.188-5.922q.39-.89 1.312-.89.532 0 .813.234.281.218.437.656l2.188 5.922-.719.093 2.953-7.906q.282-.922 1.39-.922m14.262-.234q.625 0 1.031.406.407.406.407 1.063v10.14q0 .625-.407 1.047t-1.03.422q-.626 0-1.048-.422-.406-.422-.406-1.047v-1.172l.531.22q0 .312-.343.765-.329.437-.907.875-.562.422-1.343.719-.782.296-1.704.296-1.656 0-3-.843-1.343-.86-2.125-2.36-.78-1.5-.78-3.437 0-1.969.78-3.469.782-1.5 2.094-2.344 1.328-.86 2.938-.86 1.03 0 1.89.313.875.313 1.5.797.64.469.985.969.36.484.36.828l-.876.313v-1.75q0-.625.406-1.047.422-.422 1.047-.422m-4.86 10.672q1.063 0 1.845-.516.796-.531 1.234-1.437.453-.922.453-2.047 0-1.156-.453-2.063-.438-.922-1.234-1.437-.782-.531-1.844-.531-1.031 0-1.828.53-.782.516-1.235 1.438-.437.907-.437 2.063 0 1.125.437 2.047.453.906 1.235 1.437.797.516 1.828.516m9.707-10.438q.453 0 .828.235.39.218.578.687l3.531 8.063-.531.234 3.61-8.281q.406-.953 1.265-.906.61 0 .969.375.375.359.375.921 0 .157-.063.36-.062.187-.125.36l-4.484 9.89q-.39.86-1.235.906-.453.078-.875-.156-.421-.25-.625-.75l-4.468-9.89q-.047-.126-.11-.313-.062-.188-.062-.453 0-.438.375-.86.39-.422 1.047-.422m18.836 13.078q-2.047 0-3.547-.843-1.5-.86-2.312-2.313-.797-1.469-.797-3.312 0-2.172.875-3.688.89-1.531 2.297-2.344 1.422-.812 3-.812 1.234 0 2.312.5 1.094.5 1.938 1.39.844.876 1.328 2.032.5 1.14.5 2.437-.031.578-.469.938-.422.36-1 .36h-9.172l-.718-2.407h8.812l-.531.484v-.64q-.047-.703-.5-1.25-.438-.563-1.094-.875-.656-.328-1.406-.328-.719 0-1.344.187-.625.188-1.078.656-.453.453-.719 1.219t-.265 1.938q0 1.296.531 2.203.547.89 1.39 1.359.86.469 1.829.469.89 0 1.406-.14.531-.141.86-.345.327-.203.577-.343.438-.22.829-.22.515 0 .859.36.36.36.36.844 0 .64-.673 1.172-.625.531-1.75.922-1.125.39-2.328.39m7.363-2.218q-.234-.344-.218-.875.031-.532.625-.907.39-.25.812-.203.438.032.844.438.703.703 1.469 1.094.765.375 1.922.375.359-.032.78-.11.438-.078.766-.375.329-.312.329-.937 0-.532-.36-.828-.36-.313-.953-.532-.594-.218-1.312-.406-.735-.219-1.516-.484-.781-.266-1.438-.688-.64-.422-1.046-1.11-.407-.702-.407-1.75 0-1.202.672-2.046t1.735-1.297 2.25-.453q.734 0 1.546.187.829.172 1.563.579.75.39 1.25 1.03.266.36.312.876.047.5-.453.906-.359.281-.843.25-.485-.031-.782-.328-.422-.531-1.109-.844-.672-.312-1.563-.312-.359 0-.78.093-.423.079-.735.36-.313.265-.313.875 0 .547.36.875t.968.531q.625.203 1.313.39.719.188 1.469.454.75.265 1.36.703.624.422 1.015 1.11.39.687.39 1.75 0 1.218-.734 2.093-.719.86-1.797 1.297t-2.203.437q-1.422 0-2.844-.484-1.406-.5-2.344-1.734"/><path fill="none" d="M302.504 309.79h183.811v52.756H302.504z"/><path fill="#fff" d="M364.568 325.033q.579 0 .938.39.36.376.36.954v13.984q0 .625-.423 1.047-.421.422-1.046.422-.313 0-.641-.11-.313-.109-.484-.296l-9.438-11.985.625-.375v11.422q0 .578-.375.969-.36.375-.969.375-.578 0-.937-.375-.36-.39-.36-.969v-14q0-.61.422-1.031.422-.422 1.047-.422.328 0 .688.14.36.126.53.391l9.142 11.657-.407.297v-11.141q0-.578.36-.953.36-.39.968-.39m17.11 10.39q0 1.97-.876 3.47-.875 1.5-2.36 2.343-1.468.828-3.296.828t-3.297-.828q-1.469-.843-2.36-2.343-.874-1.5-.874-3.47 0-1.968.875-3.468.89-1.5 2.359-2.344 1.469-.86 3.297-.86t3.297.86q1.484.844 2.36 2.344.874 1.5.874 3.469m-2.876 0q0-1.218-.5-2.124-.484-.906-1.312-1.406t-1.844-.5q-1 0-1.828.5t-1.328 1.406q-.485.906-.485 2.125 0 1.203.485 2.11.5.89 1.328 1.39t1.828.5q1.016 0 1.844-.5t1.312-1.39q.5-.907.5-2.11m15.914-11.359q.625 0 1.03.422.407.407.407 1.047v14.828q0 .625-.406 1.047t-1.031.422-1.047-.422q-.407-.422-.407-1.047v-1.172l.532.22q0 .312-.344.765-.328.437-.906.875-.563.422-1.344.719-.781.296-1.703.296-1.656 0-3-.843-1.344-.86-2.125-2.36t-.781-3.437q0-1.969.78-3.469.782-1.5 2.095-2.344 1.328-.86 2.937-.86 1.031 0 1.89.313.876.313 1.5.797.641.469.985.969.36.484.36.828l-.876.313v-6.438q0-.625.407-1.047.422-.422 1.047-.422m-4.86 15.36q1.063 0 1.844-.516.797-.531 1.234-1.437.453-.922.453-2.047 0-1.156-.453-2.063-.437-.922-1.234-1.437-.781-.531-1.844-.531-1.031 0-1.828.53-.781.516-1.234 1.438-.438.907-.438 2.063 0 1.125.438 2.047.453.906 1.234 1.437.797.516 1.828.516m15.463 2.64q-2.047 0-3.547-.843-1.5-.86-2.313-2.313-.796-1.469-.796-3.312 0-2.172.875-3.688.89-1.531 2.296-2.344 1.422-.812 3-.812 1.235 0 2.313.5 1.094.5 1.937 1.39.844.876 1.329 2.032.5 1.14.5 2.437-.032.578-.47.938-.421.36-1 .36h-9.171l-.719-2.407h8.813l-.532.484v-.64q-.046-.703-.5-1.25-.437-.563-1.093-.875-.657-.328-1.407-.328-.718 0-1.343.187-.625.188-1.078.656-.454.453-.72 1.219t-.265 1.938q0 1.296.531 2.203.547.89 1.391 1.359.86.469 1.828.469.89 0 1.406-.14.532-.141.86-.345t.578-.343q.437-.22.828-.22.516 0 .86.36.359.36.359.844 0 .64-.672 1.172-.625.531-1.75.922-1.125.39-2.328.39m24.255-2.875q.578 0 .969.391.39.375.39.953 0 .547-.39.922-.391.375-.97.375h-8.155q-.625 0-.985-.375-.36-.39-.36-1 0-.594.438-1.047l5.235-5.594q.89-.953 1.406-1.953.516-1.015.516-1.765 0-1.203-.704-1.938-.687-.734-1.843-.734-.453 0-.938.219-.484.218-.937.609-.438.375-.813.875-.297.39-.594.484-.28.094-.515.094-.531 0-.985-.39-.437-.391-.437-.922 0-.407.281-.782.281-.39.688-.812.593-.594 1.343-1.047t1.532-.703q.797-.266 1.547-.266 1.593 0 2.78.64 1.204.641 1.845 1.813.64 1.157.64 2.735 0 1.328-.781 2.953-.766 1.61-2.094 3.031l-3.234 3.453-.266-.219zm5.796-6.75q-.703 0-1.078-.359-.36-.375-.36-1.078v-.406q0-.688.36-1.063.375-.375 1.078-.375h.313q.687 0 1.062.375t.375 1.063v.406q0 .703-.375 1.078-.375.36-1.062.36zm0 9.391q-.703 0-1.078-.375-.36-.375-.36-1.062v-.407q0-.703.36-1.062.375-.375 1.078-.375h.313q.687 0 1.062.375.375.36.375 1.062v.407q0 .687-.375 1.062t-1.062.375zM351.09 367.24q.218 0 .468.078t.562.28q.407.313.97.563.562.235 1.312.235t1.406-.36q.656-.375 1.078-1.062.437-.688.437-1.64 0-.923-.375-1.516-.359-.61-.984-.922-.61-.313-1.297-.313-.531 0-.875.11-.344.093-.672.203-.328.109-.765.109-.547 0-.844-.39-.297-.391-.297-.907 0-.344.125-.61.14-.265.406-.577l4.22-4.485.64.547h-5.907q-.562 0-.953-.375-.39-.39-.39-.969 0-.546.39-.921.391-.375.953-.375h7.344q.75 0 1.125.421.375.407.375 1.032 0 .312-.172.609t-.406.531l-4.25 4.563-.656-.813q.265-.125.734-.218.469-.094.781-.094 1.422 0 2.47.734 1.046.735 1.609 1.906.562 1.157.562 2.5 0 1.766-.797 3.063t-2.234 2q-1.438.687-3.36.687-.89 0-1.75-.218-.859-.203-1.484-.563-.531-.297-.719-.64-.172-.344-.172-.657 0-.562.391-1.047.406-.5 1-.5m33.263-9.454q.547 0 .953.422.422.422.422 1.063 0 .172-.031.312-.031.125-.078.25l-3.672 9.89q-.156.47-.594.735-.437.25-.906.172-.828-.047-1.234-.906l-2.375-6.844.625.016-2.235 6.828q-.406.86-1.218.906-.454.078-.907-.172-.437-.265-.61-.734l-3.671-9.89q-.094-.266-.094-.563 0-.563.375-1.016.39-.469 1.063-.469.453 0 .812.219.375.219.516.703l2.906 7.86-.61-.047 2.188-5.922q.39-.89 1.313-.89.531 0 .812.234.282.218.438.656l2.187 5.922-.718.093 2.953-7.906q.28-.922 1.39-.922m14.263-.234q.625 0 1.03.406.407.406.407 1.063v10.14q0 .625-.406 1.047t-1.031.422-1.047-.422q-.407-.422-.407-1.047v-1.172l.532.22q0 .312-.344.765-.328.437-.906.875-.563.422-1.344.719-.781.296-1.703.296-1.656 0-3-.843-1.344-.86-2.125-2.36t-.781-3.437q0-1.969.78-3.469.782-1.5 2.095-2.344 1.328-.86 2.937-.86 1.031 0 1.89.313.876.313 1.5.797.641.469.985.969.36.484.36.828l-.876.313v-1.75q0-.625.407-1.047.422-.422 1.047-.422m-4.86 10.672q1.063 0 1.844-.516.797-.531 1.234-1.437.453-.922.453-2.047 0-1.156-.453-2.063-.437-.922-1.234-1.437-.781-.531-1.844-.531-1.031 0-1.828.53-.781.516-1.234 1.438-.438.907-.438 2.063 0 1.125.438 2.047.453.906 1.234 1.437.797.516 1.828.516m9.706-10.438q.453 0 .828.235.39.218.578.687l3.532 8.063-.532.234 3.61-8.281q.406-.953 1.265-.906.61 0 .97.375.374.359.374.921 0 .157-.062.36-.063.187-.125.36l-4.485 9.89q-.39.86-1.234.906-.453.078-.875-.156-.422-.25-.625-.75l-4.469-9.89q-.047-.126-.11-.313-.062-.188-.062-.453 0-.438.375-.86.39-.422 1.047-.422m18.837 13.078q-2.047 0-3.547-.843-1.5-.86-2.313-2.313-.796-1.469-.796-3.312 0-2.172.875-3.688.89-1.531 2.296-2.344 1.422-.812 3-.812 1.235 0 2.313.5 1.094.5 1.937 1.39.844.876 1.329 2.032.5 1.14.5 2.437-.032.578-.47.938-.421.36-1 .36h-9.171l-.719-2.407h8.813l-.532.484v-.64q-.046-.703-.5-1.25-.437-.563-1.093-.875-.657-.328-1.407-.328-.718 0-1.343.187-.625.188-1.078.656-.454.453-.72 1.219t-.265 1.938q0 1.296.531 2.203.547.89 1.391 1.359.86.469 1.828.469.89 0 1.406-.14.532-.141.86-.345t.578-.343q.437-.22.828-.22.516 0 .86.36.359.36.359.844 0 .64-.672 1.172-.625.531-1.75.922-1.125.39-2.328.39m7.363-2.218q-.235-.344-.219-.875.031-.532.625-.907.39-.25.813-.203.437.032.843.438.703.703 1.47 1.094.765.375 1.921.375.36-.032.781-.11.438-.078.766-.375.328-.312.328-.937 0-.532-.36-.828-.359-.313-.953-.532-.593-.218-1.312-.406-.734-.219-1.516-.484-.78-.266-1.437-.688-.64-.422-1.047-1.11-.406-.702-.406-1.75 0-1.202.672-2.046.671-.844 1.734-1.297t2.25-.453q.734 0 1.547.187.828.172 1.562.579.75.39 1.25 1.03.266.36.313.876.047.5-.453.906-.36.281-.844.25t-.781-.328q-.422-.531-1.11-.844-.672-.312-1.562-.312-.36 0-.781.093-.422.079-.735.36-.312.265-.312.875 0 .547.36.875.358.328.968.531.625.203 1.312.39.72.188 1.47.454.75.265 1.358.703.625.422 1.016 1.11.39.687.39 1.75 0 1.218-.734 2.093-.718.86-1.797 1.297t-2.203.437q-1.422 0-2.843-.484-1.407-.5-2.344-1.734"/><path fill="none" d="M562.365 309.79h183.81v52.756h-183.81z"/><path fill="#fff" d="M624.813 325.033q.578 0 .938.39.36.376.36.954v13.984q0 .625-.423 1.047-.422.422-1.047.422-.312 0-.64-.11-.313-.109-.485-.296l-9.437-11.985.625-.375v11.422q0 .578-.375.969-.36.375-.969.375-.578 0-.937-.375-.36-.39-.36-.969v-14q0-.61.422-1.031.422-.422 1.047-.422.328 0 .688.14.359.126.53.391l9.141 11.657-.406.297v-11.141q0-.578.36-.953.359-.39.968-.39m17.11 10.39q0 1.97-.876 3.47-.875 1.5-2.36 2.343-1.468.828-3.296.828t-3.297-.828q-1.469-.843-2.36-2.343-.874-1.5-.874-3.47 0-1.968.875-3.468.89-1.5 2.359-2.344 1.469-.86 3.297-.86t3.297.86q1.484.844 2.36 2.344.874 1.5.874 3.469m-2.876 0q0-1.218-.5-2.124-.484-.906-1.312-1.406t-1.844-.5q-1 0-1.828.5t-1.328 1.406q-.485.906-.485 2.125 0 1.203.485 2.11.5.89 1.328 1.39t1.828.5q1.015 0 1.844-.5.828-.5 1.312-1.39.5-.907.5-2.11m15.914-11.359q.625 0 1.03.422.407.407.407 1.047v14.828q0 .625-.406 1.047t-1.031.422-1.047-.422q-.407-.422-.407-1.047v-1.172l.532.22q0 .312-.344.765-.328.437-.906.875-.563.422-1.344.719-.781.296-1.703.296-1.656 0-3-.843-1.344-.86-2.125-2.36t-.781-3.437q0-1.969.78-3.469.782-1.5 2.095-2.344 1.328-.86 2.937-.86 1.031 0 1.89.313.876.313 1.5.797.641.469.985.969.36.484.36.828l-.876.313v-6.438q0-.625.407-1.047.422-.422 1.047-.422m-4.86 15.36q1.063 0 1.844-.516.797-.531 1.234-1.437.453-.922.453-2.047 0-1.156-.453-2.063-.437-.922-1.234-1.437-.781-.531-1.844-.531-1.031 0-1.828.53-.781.516-1.234 1.438-.438.907-.438 2.063 0 1.125.438 2.047.453.906 1.234 1.437.797.516 1.828.516m15.463 2.64q-2.047 0-3.547-.843-1.5-.86-2.313-2.313-.797-1.469-.797-3.312 0-2.172.875-3.688.891-1.531 2.297-2.344 1.422-.812 3-.812 1.235 0 2.313.5 1.094.5 1.937 1.39.844.876 1.328 2.032.5 1.14.5 2.437-.03.578-.468.938-.422.36-1 .36h-9.172l-.719-2.407h8.813l-.532.484v-.64q-.047-.703-.5-1.25-.437-.563-1.093-.875-.657-.328-1.407-.328-.718 0-1.343.187-.625.188-1.079.656-.453.453-.718 1.219-.266.766-.266 1.938 0 1.296.531 2.203.547.89 1.391 1.359.86.469 1.828.469.89 0 1.406-.14.532-.141.86-.345t.578-.343q.437-.22.828-.22.516 0 .86.36.359.36.359.844 0 .64-.672 1.172-.625.531-1.75.922-1.125.39-2.328.39m15.958-3.625q.219 0 .469.079.25.078.562.28.406.313.969.563.562.235 1.312.235t1.407-.36q.656-.375 1.078-1.062.437-.688.437-1.64 0-.923-.375-1.516-.36-.61-.984-.922-.61-.313-1.297-.313-.531 0-.875.11-.344.093-.672.203-.328.109-.766.109-.546 0-.843-.39-.297-.391-.297-.907 0-.344.125-.61.14-.265.406-.577l4.219-4.485.64.547h-5.906q-.562 0-.953-.375-.39-.39-.39-.969 0-.546.39-.921t.953-.375h7.344q.75 0 1.125.421.375.407.375 1.032 0 .312-.172.609t-.406.531l-4.25 4.563-.656-.813q.265-.125.734-.218.469-.094.781-.094 1.422 0 2.469.734 1.047.735 1.61 1.906.562 1.157.562 2.5 0 1.766-.797 3.063t-2.234 2q-1.438.687-3.36.687-.89 0-1.75-.218-.86-.203-1.484-.563-.531-.297-.719-.64-.172-.344-.172-.657 0-.562.39-1.047.407-.5 1-.5m13.325-6q-.703 0-1.078-.359-.36-.375-.36-1.078v-.406q0-.688.36-1.063.375-.375 1.078-.375h.313q.687 0 1.062.375t.375 1.063v.406q0 .703-.375 1.078-.375.36-1.062.36zm0 9.391q-.703 0-1.078-.375-.36-.375-.36-1.062v-.407q0-.703.36-1.062.375-.375 1.078-.375h.313q.687 0 1.062.375.375.36.375 1.062v.407q0 .687-.375 1.062t-1.062.375zM616.994 370.63q-.61 0-1.015-.422-.407-.422-.407-1.047V357.88l.5.125-4.625 5.734-.125-.312h8.5q.578 0 .953.39.391.376.391.954 0 .562-.39.937-.376.36-.954.36h-10.484q-.516 0-.984-.407-.47-.406-.47-1 0-.531.36-.968l7.594-9.282q.187-.265.5-.422.312-.156.703-.156.625 0 1.016.422.39.422.39 1.031v13.875q0 .625-.422 1.047-.421.422-1.03.422m27.832-12.844q.547 0 .953.422.422.422.422 1.063 0 .172-.031.312-.031.125-.078.25l-3.672 9.89q-.156.47-.594.735-.437.25-.906.172-.828-.047-1.234-.906l-2.375-6.844.625.016-2.235 6.828q-.406.86-1.219.906-.453.078-.906-.172-.437-.265-.61-.734l-3.671-9.89q-.094-.266-.094-.563 0-.563.375-1.016.39-.469 1.063-.469.453 0 .812.219.375.219.516.703l2.906 7.86-.61-.047 2.188-5.922q.39-.89 1.313-.89.53 0 .812.234.281.218.438.656l2.187 5.922-.719.093 2.954-7.906q.28-.922 1.39-.922m14.262-.234q.625 0 1.032.406.406.406.406 1.063v10.14q0 .625-.406 1.047t-1.032.422-1.046-.422q-.407-.422-.407-1.047v-1.172l.532.22q0 .312-.344.765-.328.437-.906.875-.563.422-1.344.719-.781.296-1.703.296-1.657 0-3-.843-1.344-.86-2.125-2.36-.782-1.5-.782-3.437 0-1.969.782-3.469.781-1.5 2.093-2.344 1.329-.86 2.938-.86 1.031 0 1.89.313.876.313 1.5.797.641.469.985.969.36.484.36.828l-.876.313v-1.75q0-.625.407-1.047.421-.422 1.046-.422m-4.859 10.672q1.063 0 1.844-.516.797-.531 1.234-1.437.453-.922.453-2.047 0-1.156-.453-2.063-.437-.922-1.234-1.437-.781-.531-1.844-.531-1.031 0-1.828.53-.781.516-1.234 1.438-.438.907-.438 2.063 0 1.125.438 2.047.453.906 1.234 1.437.797.516 1.828.516m9.706-10.438q.453 0 .828.235.39.218.578.687l3.531 8.063-.53.234 3.609-8.281q.406-.953 1.265-.906.61 0 .969.375.375.359.375.921 0 .157-.063.36-.062.187-.125.36l-4.484 9.89q-.39.86-1.234.906-.453.078-.875-.156-.422-.25-.625-.75l-4.47-9.89q-.046-.126-.108-.313-.063-.188-.063-.453 0-.438.375-.86.39-.422 1.047-.422m18.837 13.078q-2.047 0-3.547-.843-1.5-.86-2.313-2.313-.797-1.469-.797-3.312 0-2.172.875-3.688.891-1.531 2.297-2.344 1.422-.812 3-.812 1.235 0 2.313.5 1.094.5 1.937 1.39.844.876 1.328 2.032.5 1.14.5 2.437-.03.578-.468.938-.422.36-1 .36h-9.172l-.719-2.407h8.813l-.532.484v-.64q-.047-.703-.5-1.25-.437-.563-1.093-.875-.657-.328-1.407-.328-.718 0-1.343.187-.625.188-1.079.656-.453.453-.718 1.219-.266.766-.266 1.938 0 1.296.531 2.203.547.89 1.39 1.359.86.469 1.829.469.89 0 1.406-.14.532-.141.86-.345t.578-.343q.437-.22.828-.22.516 0 .86.36.359.36.359.844 0 .64-.672 1.172-.625.531-1.75.922-1.125.39-2.328.39m7.363-2.218q-.235-.344-.219-.875.031-.532.625-.907.39-.25.813-.203.437.032.843.438.703.703 1.469 1.094.766.375 1.922.375.36-.032.781-.11.438-.078.766-.375.328-.312.328-.937 0-.532-.36-.828-.359-.313-.953-.532-.593-.218-1.312-.406-.734-.219-1.516-.484-.781-.266-1.437-.688-.64-.422-1.047-1.11-.406-.702-.406-1.75 0-1.202.672-2.046.671-.844 1.734-1.297t2.25-.453q.734 0 1.547.187.828.172 1.562.579.75.39 1.25 1.03.266.36.313.876.047.5-.453.906-.36.281-.844.25t-.781-.328q-.422-.531-1.11-.844-.672-.312-1.562-.312-.36 0-.781.093-.422.079-.735.36-.312.265-.312.875 0 .547.359.875.36.328.969.531.625.203 1.312.39.719.188 1.469.454.75.265 1.36.703.624.422 1.015 1.11.39.687.39 1.75 0 1.218-.734 2.093-.718.86-1.797 1.297t-2.203.437q-1.422 0-2.843-.484-1.407-.5-2.344-1.734"/><path fill="none" d="M23.63 15.955H207.44v52.756H23.63z"/><path fill="#fff" d="M86.504 47.995q-.672 0-1.11-.421-.421-.422-.421-1.047V32.605h3.125v13.922q0 .625-.453 1.047-.438.421-1.141.421M81.207 33.95q-.625 0-1.047-.375-.422-.391-.422-1.016t.422-.984q.422-.375 1.047-.375h10.656q.625 0 1.032.39.421.375.421 1t-.421 1q-.407.36-1.032.36zm17.102 12.578q0 .625-.406 1.047t-1.031.421-1.032-.421-.406-1.047V36.62q0-.625.406-1.046t1.032-.422 1.03.422.407 1.046zm-1.453-12.938q-.813 0-1.156-.25-.328-.265-.328-.937v-.47q0-.687.359-.937.375-.25 1.156-.25.828 0 1.156.266.344.25.344.922v.469q0 .687-.36.937-.359.25-1.171.25m11.148 1.328q1.922 0 2.828.922.922.922 1.22 2.39l-.423-.218.203-.39q.282-.547.875-1.172.61-.641 1.454-1.079.859-.453 1.921-.453 1.72 0 2.61.75.906.735 1.234 1.969.344 1.234.344 2.75v6.14q0 .626-.406 1.048-.407.421-1.032.421t-1.03-.421-.407-1.047v-6.141q0-.797-.203-1.422-.188-.64-.688-1.015-.5-.391-1.437-.391-.906 0-1.563.39-.64.376-.968 1.016-.329.625-.329 1.422v6.14q0 .626-.406 1.048-.406.421-1.031.421t-1.031-.421-.407-1.047v-6.141q0-.797-.203-1.422-.187-.64-.687-1.015-.5-.391-1.438-.391-.906 0-1.562.39-.64.376-.969 1.016-.328.625-.328 1.422v6.14q0 .626-.406 1.048-.407.421-1.032.421t-1.03-.421-.407-1.047V36.62q0-.625.406-1.046t1.031-.422 1.032.422.406 1.046v1.032l-.36-.078q.22-.407.594-.875.391-.47.938-.875.562-.407 1.234-.657t1.453-.25m21.44 13.313q-2.046 0-3.546-.844-1.5-.86-2.313-2.312-.796-1.47-.796-3.313 0-2.172.875-3.687.89-1.532 2.296-2.344 1.422-.813 3-.813 1.235 0 2.313.5 1.094.5 1.937 1.39.844.876 1.329 2.032.5 1.14.5 2.438-.032.578-.47.937-.421.36-1 .36h-9.171l-.719-2.407h8.813l-.532.485v-.641q-.046-.703-.5-1.25-.437-.562-1.093-.875-.657-.328-1.407-.328-.718 0-1.343.187-.625.188-1.078.657-.454.453-.72 1.218-.265.766-.265 1.938 0 1.297.531 2.203.547.89 1.391 1.36.86.468 1.828.468.89 0 1.406-.14.532-.141.86-.344t.578-.344q.437-.219.828-.219.516 0 .86.36.359.359.359.843 0 .641-.672 1.172-.625.532-1.75.922t-2.328.39m18.99-.235q-.672 0-1.11-.421-.437-.422-.437-1.047V34.433l.344.531-1.75 1.297q-.344.266-.844.266-.578 0-1.015-.438-.422-.437-.422-1.031 0-.766.734-1.25l3.469-2.297q.234-.172.531-.234.297-.078.563-.078.703 0 1.109.421.406.422.406 1.032v13.875q0 .625-.453 1.047-.437.421-1.125.421"/><path fill="none" d="M294.055 22.113h183.811v52.756h-183.81z"/><path fill="#fff" d="M354.77 54.153q-.673 0-1.11-.422-.422-.422-.422-1.047V38.762h3.125v13.922q0 .625-.453 1.047-.438.422-1.14.422m-5.298-14.047q-.625 0-1.047-.375-.422-.39-.422-1.016 0-.625.422-.984.422-.375 1.047-.375h10.656q.625 0 1.032.39.422.376.422 1 0 .626-.422 1-.407.36-1.032.36zm17.102 12.578q0 .625-.406 1.047t-1.031.422-1.031-.422-.407-1.047v-9.906q0-.625.407-1.047t1.03-.422 1.032.422.406 1.047zm-1.453-12.937q-.812 0-1.156-.25-.328-.266-.328-.938v-.469q0-.687.36-.937.374-.25 1.155-.25.829 0 1.157.265.343.25.343.922v.47q0 .687-.359.937-.36.25-1.172.25m11.149 1.328q1.921 0 2.828.922.922.921 1.218 2.39l-.421-.219.203-.39q.28-.547.875-1.172.61-.64 1.453-1.078.86-.453 1.922-.453 1.718 0 2.61.75.905.734 1.233 1.968.344 1.235.344 2.75v6.141q0 .625-.406 1.047t-1.031.422-1.032-.422-.406-1.047v-6.14q0-.797-.203-1.422-.187-.641-.687-1.016-.5-.39-1.438-.39-.906 0-1.562.39-.641.375-.97 1.016-.327.625-.327 1.421v6.141q0 .625-.407 1.047t-1.03.422-1.032-.422-.406-1.047v-6.14q0-.797-.203-1.422-.188-.641-.688-1.016-.5-.39-1.437-.39-.907 0-1.563.39-.64.375-.969 1.016-.328.625-.328 1.421v6.141q0 .625-.406 1.047t-1.031.422-1.032-.422-.406-1.047v-9.906q0-.625.406-1.047t1.032-.422 1.03.422.407 1.047v1.031l-.36-.078q.22-.406.595-.875.39-.469.937-.875.563-.406 1.234-.656.672-.25 1.454-.25m21.44 13.312q-2.047 0-3.547-.844-1.5-.859-2.312-2.312-.797-1.469-.797-3.313 0-2.171.875-3.687.89-1.531 2.297-2.344 1.421-.812 3-.812 1.234 0 2.312.5 1.094.5 1.938 1.39.843.875 1.328 2.032.5 1.14.5 2.437-.032.578-.469.938-.422.359-1 .359h-9.172l-.719-2.406h8.813l-.531.484v-.64q-.047-.704-.5-1.25-.438-.563-1.094-.876-.656-.328-1.406-.328-.72 0-1.344.188-.625.187-1.078.656-.453.453-.719 1.219-.266.765-.266 1.937 0 1.297.532 2.203.546.891 1.39 1.36.86.469 1.828.469.891 0 1.407-.141.53-.14.859-.344t.578-.344q.438-.218.828-.218.516 0 .86.36.359.358.359.843 0 .64-.672 1.172-.625.531-1.75.922-1.125.39-2.328.39m24.255-2.875q.578 0 .969.39.39.376.39.954 0 .547-.39.922t-.97.375h-8.155q-.625 0-.985-.375-.36-.39-.36-1 0-.594.438-1.047l5.235-5.594q.89-.953 1.406-1.953.516-1.016.516-1.766 0-1.203-.703-1.937-.688-.734-1.844-.734-.453 0-.938.218-.484.22-.937.61-.438.375-.813.875-.297.39-.593.484-.282.094-.516.094-.531 0-.984-.39-.438-.391-.438-.923 0-.406.281-.78.282-.392.688-.813.594-.594 1.344-1.047t1.53-.703q.798-.266 1.548-.266 1.593 0 2.78.64 1.204.641 1.845 1.813.64 1.156.64 2.734 0 1.329-.78 2.954-.767 1.609-2.095 3.03l-3.234 3.454-.266-.219z"/><path fill="none" d="M564.48 22.113h183.811v52.756h-183.81z"/><path fill="#fff" d="M625.578 54.153q-.672 0-1.11-.422-.42-.422-.42-1.047V38.762h3.124v13.922q0 .625-.453 1.047-.438.422-1.14.422m-5.297-14.047q-.625 0-1.046-.375-.422-.39-.422-1.016 0-.625.422-.984.421-.375 1.046-.375h10.657q.625 0 1.03.39.423.376.423 1 0 .626-.422 1-.406.36-1.031.36zm17.103 12.578q0 .625-.407 1.047t-1.031.422-1.031-.422-.406-1.047v-9.906q0-.625.406-1.047t1.031-.422 1.031.422.407 1.047zm-1.454-12.937q-.812 0-1.156-.25-.328-.266-.328-.938v-.469q0-.687.36-.937.374-.25 1.156-.25.828 0 1.156.265.344.25.344.922v.47q0 .687-.36.937t-1.172.25m11.149 1.328q1.922 0 2.828.922.922.921 1.219 2.39l-.422-.219.203-.39q.281-.547.875-1.172.61-.64 1.453-1.078.86-.453 1.922-.453 1.719 0 2.61.75.905.734 1.234 1.968.343 1.235.343 2.75v6.141q0 .625-.406 1.047t-1.031.422-1.031-.422-.407-1.047v-6.14q0-.797-.203-1.422-.187-.641-.687-1.016-.5-.39-1.438-.39-.906 0-1.562.39-.64.375-.969 1.016-.328.625-.328 1.421v6.141q0 .625-.406 1.047t-1.032.422-1.03-.422-.407-1.047v-6.14q0-.797-.203-1.422-.188-.641-.688-1.016-.5-.39-1.437-.39-.907 0-1.563.39-.64.375-.969 1.016-.328.625-.328 1.421v6.141q0 .625-.406 1.047t-1.031.422-1.031-.422-.407-1.047v-9.906q0-.625.407-1.047t1.03-.422 1.032.422.406 1.047v1.031l-.359-.078q.219-.406.594-.875.39-.469.937-.875.563-.406 1.235-.656.671-.25 1.453-.25m21.44 13.312q-2.047 0-3.547-.844-1.5-.859-2.312-2.312-.797-1.469-.797-3.313 0-2.171.875-3.687.89-1.531 2.297-2.344 1.422-.812 3-.812 1.234 0 2.312.5 1.094.5 1.938 1.39.844.875 1.328 2.032.5 1.14.5 2.437-.031.578-.469.938-.422.359-1 .359h-9.172l-.718-2.406h8.812l-.531.484v-.64q-.047-.704-.5-1.25-.438-.563-1.094-.876-.656-.328-1.406-.328-.719 0-1.344.188-.625.187-1.078.656-.453.453-.719 1.219-.265.765-.265 1.937 0 1.297.53 2.203.548.891 1.391 1.36.86.469 1.829.469.89 0 1.406-.141.531-.14.86-.344.327-.203.577-.344.438-.218.828-.218.516 0 .86.36.36.358.36.843 0 .64-.673 1.172-.625.531-1.75.922-1.125.39-2.328.39m15.958-3.625q.219 0 .469.078t.562.282q.407.312.97.562.562.234 1.312.234t1.406-.359q.656-.375 1.078-1.062.438-.688.438-1.641 0-.922-.375-1.516-.36-.609-.985-.922-.61-.312-1.297-.312-.53 0-.875.11-.343.093-.672.202-.328.11-.765.11-.547 0-.844-.39-.297-.391-.297-.907 0-.344.125-.61.14-.265.406-.578l4.22-4.484.64.547h-5.906q-.563 0-.954-.375-.39-.39-.39-.969 0-.547.39-.922.391-.375.954-.375h7.343q.75 0 1.125.422.375.406.375 1.031 0 .313-.172.61t-.406.531l-4.25 4.563-.656-.813q.266-.125.734-.219.47-.093.782-.093 1.421 0 2.468.734t1.61 1.906q.562 1.156.562 2.5 0 1.766-.797 3.063t-2.234 2q-1.438.687-3.36.687-.89 0-1.75-.219-.859-.203-1.484-.562-.531-.297-.719-.64-.171-.344-.171-.657 0-.562.39-1.047.406-.5 1-.5"/><path fill="#a61c00" fill-rule="evenodd" d="M75 460.013c0-21.37 17.323-38.693 38.693-38.693a38.693 38.693 0 0 1 38.693 38.693c0 21.37-17.324 38.693-38.693 38.693-21.37 0-38.693-17.323-38.693-38.693"/><path fill="#a64d79" fill-rule="evenodd" d="M619.323 460.013c0-21.37 17.323-38.693 38.693-38.693a38.693 38.693 0 0 1 38.693 38.693c0 21.37-17.324 38.693-38.693 38.693-21.37 0-38.693-17.323-38.693-38.693"/><path fill="none" d="M113.693 225.325v196"/><path stroke="#fff" stroke-dasharray="16.0,12.0" stroke-linecap="butt" stroke-linejoin="round" stroke-width="4" d="M113.693 225.325v172"/><path fill="#fff" fill-rule="evenodd" stroke="#fff" stroke-linecap="butt" stroke-width="4" d="m107.086 397.325 6.607 18.153 6.607-18.153z"/><path fill="none" d="m381.118 202.517-.22 218.803"/><path stroke="#fff" stroke-dasharray="16.0,12.0" stroke-linecap="butt" stroke-linejoin="round" stroke-width="4" d="m381.118 202.517-.196 194.803"/><path fill="#fff" fill-rule="evenodd" stroke="#fff" stroke-linecap="butt" stroke-width="4" d="m374.315 397.314 6.589 18.159 6.625-18.146z"/><path fill="#dd7e6b" fill-rule="evenodd" d="M342.205 460.013c0-21.37 17.323-38.693 38.693-38.693a38.693 38.693 0 0 1 38.693 38.693c0 21.37-17.324 38.693-38.693 38.693-21.37 0-38.693-17.323-38.693-38.693"/><path fill="none" d="m658.236 202.517-.22 218.803"/><path stroke="#fff" stroke-dasharray="16.0,12.0" stroke-linecap="butt" stroke-linejoin="round" stroke-width="4" d="m658.236 202.517-.196 194.803"/><path fill="#fff" fill-rule="evenodd" stroke="#fff" stroke-linecap="butt" stroke-width="4" d="m651.433 397.314 6.589 18.159 6.625-18.146z"/><path fill="none" d="M326.15-6.105h119.622v561.953H326.15z"/><path stroke="#fff" stroke-dasharray="4.0,12.0" stroke-linecap="butt" stroke-linejoin="round" stroke-width="4" d="M326.15-6.105h119.622v561.953H326.15z"/><path fill="none" d="M594.46-6.105H714.08v577.89H594.46z"/><path stroke="#fff" stroke-dasharray="4.0,12.0" stroke-linecap="butt" stroke-linejoin="round" stroke-width="4" d="M594.46-6.105H714.08v577.89H594.46z"/><path fill="#000" fill-rule="evenodd" d="M730.703 372.51h153.04v72.125h-153.04v-12.02l-16.771-8.213 16.771-9.82z"/><path stroke="#fff" stroke-linecap="butt" stroke-linejoin="round" stroke-width="3" d="M730.703 372.51h153.04v72.125h-153.04v-12.02l-16.771-8.213 16.771-9.82z"/><path fill="#fff" d="M752.986 402.847q-1.687 0-3.03-.407-1.345-.422-2.563-1.484-.313-.266-.485-.594-.172-.344-.172-.672 0-.562.391-.968.406-.422 1.016-.422.453 0 .812.28.906.75 1.797 1.142.906.375 2.234.375.891 0 1.625-.282.75-.28 1.204-.75.453-.468.453-1.062 0-.719-.438-1.219-.422-.516-1.312-.86t-2.25-.53q-1.297-.204-2.282-.594-.984-.39-1.656-1-.656-.625-1-1.453-.328-.829-.328-1.86 0-1.562.797-2.656.812-1.11 2.172-1.688 1.375-.578 3.031-.578 1.563 0 2.89.47 1.344.468 2.173 1.187.703.562.703 1.28 0 .532-.407.97-.406.421-.968.421-.36 0-.641-.218-.39-.328-1.047-.625-.64-.313-1.36-.516-.718-.203-1.343-.203-1.031 0-1.734.266-.703.265-1.063.718t-.36 1.063q0 .719.407 1.187.422.47 1.219.75.797.266 1.89.485 1.454.265 2.532.625 1.093.36 1.812.922t1.078 1.421q.375.844.375 2.063 0 1.562-.875 2.703-.86 1.125-2.265 1.719-1.407.594-3.032.594m15.328-13.313q1.688 0 3.016.86 1.328.843 2.11 2.328.78 1.484.78 3.453t-.78 3.468-2.094 2.36q-1.297.844-2.938.844-.953 0-1.797-.313-.844-.312-1.484-.781-.625-.485-.969-.969-.344-.5-.344-.828l.735-.313v6.313q0 .61-.407 1.031-.406.422-1.03.422-.626 0-1.032-.406t-.406-1.047v-14.719q0-.625.406-1.047t1.031-.422 1.031.422.407 1.047v1.172l-.407-.219q0-.312.329-.75.343-.437.921-.875.579-.453 1.329-.734.765-.297 1.593-.297m-.359 2.64q-1.047 0-1.844.532-.797.516-1.25 1.422-.437.906-.437 2.047 0 1.14.437 2.062.453.922 1.25 1.453.797.516 1.844.516 1.062 0 1.844-.516.781-.53 1.218-1.453.454-.922.454-2.062t-.454-2.047q-.437-.906-1.218-1.422-.782-.531-1.844-.531m19.306-2.64q.625 0 1.032.406.406.407.406 1.063v10.14q0 .625-.406 1.047t-1.032.422-1.047-.422q-.406-.422-.406-1.047v-1.171l.531.218q0 .313-.343.766-.328.437-.907.875-.562.422-1.343.719-.782.297-1.703.297-1.657 0-3-.844-1.344-.86-2.125-2.36-.782-1.5-.782-3.437 0-1.969.782-3.469.78-1.5 2.093-2.344 1.328-.859 2.938-.859 1.031 0 1.89.313.875.312 1.5.796.641.47.985.97.36.484.36.827l-.876.313v-1.75q0-.625.406-1.047.422-.422 1.047-.422m-4.86 10.672q1.063 0 1.845-.516.797-.53 1.234-1.437.453-.922.453-2.047 0-1.156-.453-2.063-.437-.921-1.234-1.437-.782-.531-1.844-.531-1.031 0-1.828.53-.781.517-1.235 1.438-.437.907-.437 2.063 0 1.125.437 2.047.454.906 1.235 1.437.797.516 1.828.516m15.12-10.672q1.375 0 2.39.297 1.032.281 1.594.797.563.515.563 1.234 0 .485-.297.906-.281.407-.828.407-.391 0-.641-.094-.25-.11-.453-.281-.188-.172-.453-.313-.235-.14-.735-.219-.484-.093-.718-.093-1.235 0-2.094.53-.844.517-1.297 1.423t-.453 2.078q0 1.156.469 2.062.468.891 1.297 1.422.828.516 1.906.516.594 0 1.015-.063.438-.078.735-.218.328-.188.594-.407t.796-.218q.625 0 .954.406.343.39.343.969 0 .593-.672 1.093-.671.485-1.765.782t-2.36.297q-1.906 0-3.296-.875-1.391-.875-2.157-2.375-.75-1.516-.75-3.391 0-1.969.797-3.469.813-1.5 2.235-2.344 1.437-.859 3.28-.859m12.823 13.313q-2.046 0-3.546-.844-1.5-.86-2.313-2.313-.797-1.468-.797-3.312 0-2.172.875-3.688.89-1.53 2.297-2.343 1.422-.813 3-.813 1.234 0 2.313.5 1.093.5 1.937 1.39.844.876 1.328 2.032.5 1.14.5 2.437-.031.579-.469.938-.421.36-1 .36h-9.171l-.72-2.407h8.813l-.53.484v-.64q-.048-.703-.5-1.25-.438-.563-1.095-.875-.656-.328-1.406-.328-.719 0-1.344.187-.625.188-1.078.656-.453.454-.719 1.22-.265.765-.265 1.937 0 1.297.531 2.203.547.89 1.39 1.36.86.468 1.829.468.89 0 1.406-.14.531-.141.86-.344.328-.204.578-.344.437-.219.828-.219.515 0 .86.36.358.359.358.843 0 .64-.671 1.172-.625.531-1.75.922-1.125.39-2.329.39m8.254-12.829h5.688q.578 0 .953.391.39.375.39.953 0 .547-.39.922-.375.375-.953.375h-5.688q-.578 0-.969-.39-.375-.391-.375-.954t.375-.922q.391-.375.97-.375m2.563-3q.625 0 1.015.422.407.407.407 1.032v10.687q0 .328.125.547.14.219.359.312.234.094.5.094.281 0 .516-.11.25-.109.562-.109.344 0 .61.313.28.312.28.875 0 .672-.734 1.11-.734.421-1.562.421-.516 0-1.125-.078-.61-.094-1.156-.406-.532-.328-.891-1-.36-.672-.36-1.86v-10.796q0-.625.407-1.032.422-.422 1.047-.422m9.816 14.125q0 .625-.407 1.047t-1.03.422-1.032-.422-.406-1.047v-9.906q0-.625.406-1.047t1.031-.422 1.031.422.407 1.047zm-1.453-12.937q-.813 0-1.157-.25-.328-.266-.328-.938v-.468q0-.688.36-.938.375-.25 1.156-.25.828 0 1.156.266.344.25.344.922v.468q0 .688-.36.938-.359.25-1.171.25m11.148 1.328q1.922 0 2.828.922.922.922 1.219 2.39l-.422-.218.203-.39q.281-.548.875-1.173.61-.64 1.453-1.078.86-.453 1.922-.453 1.719 0 2.61.75.906.734 1.234 1.969.344 1.234.344 2.75v6.14q0 .625-.407 1.047t-1.031.422-1.031-.422-.406-1.047v-6.14q0-.797-.204-1.422-.187-.64-.687-1.016-.5-.39-1.438-.39-.906 0-1.562.39-.64.375-.969 1.016-.328.625-.328 1.422v6.14q0 .625-.406 1.047t-1.031.422-1.032-.422-.406-1.047v-6.14q0-.797-.203-1.422-.188-.64-.688-1.016-.5-.39-1.437-.39-.906 0-1.563.39-.64.375-.968 1.016-.328.625-.328 1.422v6.14q0 .625-.407 1.047t-1.031.422-1.031-.422-.406-1.047v-9.906q0-.625.406-1.047t1.031-.422 1.031.422.407 1.047v1.031l-.36-.078q.219-.406.594-.875.39-.468.937-.875.563-.406 1.235-.656t1.453-.25m21.44 13.313q-2.047 0-3.547-.844-1.5-.86-2.312-2.313-.797-1.468-.797-3.312 0-2.172.875-3.688.89-1.53 2.297-2.343 1.422-.813 3-.813 1.234 0 2.312.5 1.094.5 1.938 1.39.844.876 1.328 2.032.5 1.14.5 2.437-.031.579-.469.938-.422.36-1 .36h-9.172l-.718-2.407h8.812l-.531.484v-.64q-.047-.703-.5-1.25-.438-.563-1.094-.875-.656-.328-1.406-.328-.719 0-1.344.187-.625.188-1.078.656-.453.454-.719 1.22-.265.765-.265 1.937 0 1.297.53 2.203.548.89 1.392 1.36.859.468 1.828.468.89 0 1.406-.14.531-.141.86-.344.327-.204.577-.344.438-.219.829-.219.515 0 .859.36.36.359.36.843 0 .64-.673 1.172-.625.531-1.75.922-1.125.39-2.328.39M777.076 429.628q-.235-.344-.22-.875.032-.531.626-.906.39-.25.812-.204.438.032.844.438.703.703 1.469 1.094.766.375 1.922.375.36-.032.781-.11.438-.078.766-.375.328-.312.328-.937 0-.531-.36-.828-.359-.313-.953-.532-.593-.218-1.312-.406-.735-.219-1.516-.484-.781-.266-1.437-.688-.64-.422-1.047-1.11-.406-.702-.406-1.75 0-1.202.671-2.046.672-.844 1.735-1.297 1.062-.453 2.25-.453.734 0 1.547.188.828.171 1.562.578.75.39 1.25 1.03.266.36.313.876.047.5-.453.906-.36.281-.844.25-.485-.031-.781-.328-.422-.531-1.11-.844-.672-.312-1.562-.312-.36 0-.782.094-.421.078-.734.359-.312.266-.312.875 0 .547.359.875.36.328.969.531.625.203 1.312.39.719.188 1.469.454t1.36.703q.624.422 1.015 1.11.39.687.39 1.75 0 1.218-.734 2.093-.719.86-1.797 1.297-1.078.438-2.203.438-1.422 0-2.844-.485-1.406-.5-2.343-1.734m15.443.515q0 .625-.422 1.047t-1.047.422q-.61 0-1.016-.422t-.406-1.047v-14.828q0-.625.422-1.047t1.047-.421 1.015.421q.407.422.407 1.047zm6.058 0q0 .625-.406 1.047t-1.032.422-1.031-.422-.406-1.047v-9.906q0-.625.406-1.047t1.031-.422 1.032.422.406 1.047zm-1.453-12.937q-.813 0-1.157-.25-.328-.266-.328-.938v-.468q0-.688.36-.938.375-.25 1.156-.25.828 0 1.156.266.344.25.344.922v.468q0 .688-.36.938-.359.25-1.171.25m10.117 1.328q1.375 0 2.39.297 1.032.281 1.594.797.563.515.563 1.234 0 .485-.297.906-.282.407-.828.407-.391 0-.641-.094-.25-.11-.453-.281-.188-.172-.453-.313-.235-.14-.735-.219-.484-.093-.718-.093-1.235 0-2.094.53-.844.517-1.297 1.423t-.453 2.078q0 1.156.469 2.062.468.891 1.296 1.422.829.516 1.907.516.593 0 1.015-.063.438-.078.735-.218.328-.188.593-.407.266-.218.797-.218.625 0 .953.406.344.39.344.969 0 .593-.672 1.093-.672.485-1.765.782-1.094.297-2.36.297-1.906 0-3.297-.875-1.39-.875-2.156-2.375-.75-1.516-.75-3.391 0-1.969.797-3.469.813-1.5 2.234-2.344 1.438-.859 3.282-.859m12.823 13.313q-2.046 0-3.546-.844-1.5-.86-2.313-2.313-.797-1.468-.797-3.312 0-2.172.875-3.688.89-1.531 2.297-2.343 1.422-.813 3-.813 1.234 0 2.313.5 1.093.5 1.937 1.39.844.876 1.328 2.032.5 1.14.5 2.437-.031.579-.469.938-.421.36-1 .36h-9.171l-.72-2.407h8.813l-.53.484v-.64q-.048-.703-.5-1.25-.438-.563-1.095-.875-.656-.328-1.406-.328-.719 0-1.344.187-.625.188-1.078.656-.453.454-.719 1.22-.265.765-.265 1.937 0 1.297.531 2.203.547.89 1.39 1.36.86.468 1.829.468.89 0 1.406-.14.531-.141.86-.344.328-.204.578-.344.437-.219.828-.219.515 0 .86.36.358.359.358.843 0 .64-.671 1.172-.625.531-1.75.922-1.125.39-2.329.39m7.364-2.22q-.235-.343-.22-.874.032-.531.626-.906.39-.25.812-.204.438.032.844.438.703.703 1.469 1.094.765.375 1.922.375.36-.032.78-.11.438-.078.767-.375.328-.312.328-.937 0-.531-.36-.828-.36-.313-.953-.532-.594-.218-1.312-.406-.735-.219-1.516-.484-.781-.266-1.437-.688-.641-.422-1.047-1.11-.407-.702-.407-1.75 0-1.202.672-2.046t1.735-1.297 2.25-.453q.734 0 1.547.188.828.171 1.562.578.75.39 1.25 1.03.266.36.313.876.046.5-.454.906-.359.281-.843.25-.485-.031-.782-.328-.421-.531-1.109-.844-.672-.312-1.562-.312-.36 0-.782.094-.422.078-.734.359-.313.266-.313.875 0 .547.36.875t.969.531q.625.203 1.312.39.719.188 1.469.454t1.36.703q.624.422 1.015 1.11.39.687.39 1.75 0 1.218-.734 2.093-.719.86-1.797 1.297-1.078.438-2.203.438-1.422 0-2.844-.485-1.406-.5-2.343-1.734"/></g></svg>