<svg xmlns="http://www.w3.org/2000/svg" fill="none" stroke-linecap="square" stroke-miterlimit="10" viewBox="0 0 960 540"><clipPath id="a"><path d="M0 0h960v540H0z"/></clipPath><g clip-path="url(#a)"><path fill="#000" fill-rule="evenodd" d="M0 0h960v540H0z"/><path fill="none" d="M15.627 89.239h343.874"/><path stroke="#fff" stroke-linecap="butt" stroke-linejoin="round" stroke-width="24" d="M15.627 89.239h343.874"/><path fill="none" d="M15.627 116.052h343.874"/><path stroke="#fff" stroke-linecap="butt" stroke-linejoin="round" stroke-width="24" d="M15.627 116.052h343.874"/><path fill="none" d="M15.627 142.866h343.874"/><path stroke="#fff" stroke-linecap="butt" stroke-linejoin="round" stroke-width="24" d="M15.627 142.866h343.874"/><path fill="none" d="M15.627 168.543h343.874"/><path stroke="#fff" stroke-linecap="butt" stroke-linejoin="round" stroke-width="24" d="M15.627 168.543h343.874"/><path fill="none" d="M15.627 195.097h343.874"/><path stroke="#fff" stroke-linecap="butt" stroke-linejoin="round" stroke-width="24" d="M15.627 195.097h343.874"/><path fill="none" d="M15.627 221.648h343.874"/><path stroke="#fff" stroke-linecap="butt" stroke-linejoin="round" stroke-width="24" d="M15.627 221.648h343.874"/><path fill="none" d="M15.627 247.328h343.874"/><path stroke="#fff" stroke-linecap="butt" stroke-linejoin="round" stroke-width="24" d="M15.627 247.328h343.874"/><path fill="none" d="M15.627 274.142h343.874"/><path stroke="#fff" stroke-linecap="butt" stroke-linejoin="round" stroke-width="24" d="M15.627 274.142h343.874"/><path fill="none" d="M15.627 300.955h343.874"/><path stroke="#fff" stroke-linecap="butt" stroke-linejoin="round" stroke-width="24" d="M15.627 300.955h343.874"/><path fill="none" d="M15.627 326.633h343.874"/><path stroke="#fff" stroke-linecap="butt" stroke-linejoin="round" stroke-width="24" d="M15.627 326.633h343.874"/><path fill="none" d="M15.627 353.186h343.874"/><path stroke="#fff" stroke-linecap="butt" stroke-linejoin="round" stroke-width="24" d="M15.627 353.186h343.874"/><path fill="none" d="M15.627 379.738h343.874"/><path stroke="#fff" stroke-linecap="butt" stroke-linejoin="round" stroke-width="24" d="M15.627 379.738h343.874"/><path fill="none" d="M417.546 86.241c24.332 23.013 94.545 137.344 145.995 138.077 51.45.732 107.443-133.387 162.703-133.68S866.96 200.572 895.102 222.559"/><path stroke="#dd7e6b" stroke-linecap="butt" stroke-linejoin="round" stroke-width="24" d="M417.546 86.241c24.332 23.013 94.545 137.344 145.995 138.077 51.45.732 107.443-133.387 162.703-133.68S866.96 200.572 895.102 222.559"/><path fill="none" d="M417.546 143.407c9.234-9.968 37.67-60.099 55.407-59.806s33.567 60.831 51.01 61.564C541.406 145.9 561.195 88 577.612 88c16.416 0 29.608 57.605 44.853 57.165 15.244-.44 27.116-60.535 46.611-59.803 19.495.733 47.493 64.2 70.36 64.2s44.267-64.347 66.84-64.2 50.276 62.004 68.598 65.082 34.447-38.845 41.336-46.614"/><path stroke="#e6b8af" stroke-linecap="butt" stroke-linejoin="round" stroke-width="24" d="M417.546 143.407c9.234-9.968 37.67-60.099 55.407-59.806s33.567 60.831 51.01 61.564C541.406 145.9 561.195 88 577.612 88c16.416 0 29.608 57.605 44.853 57.165 15.244-.44 27.116-60.535 46.611-59.803 19.495.733 47.493 64.2 70.36 64.2s44.267-64.347 66.84-64.2 50.276 62.004 68.598 65.082 34.447-38.845 41.336-46.614"/><path fill="none" d="M424.583 241.907c11.58-14.658 41.04-88.827 69.477-87.947s71.826 93.518 101.142 93.225 44.854-95.863 74.756-94.984 77.1 100.7 104.656 100.26 34.887-101.581 60.685-102.9 78.421 79.153 94.105 94.984"/><path stroke="#a61c00" stroke-linecap="butt" stroke-linejoin="round" stroke-width="24" d="M424.583 241.907c11.58-14.658 41.04-88.827 69.477-87.947s71.826 93.518 101.142 93.225 44.854-95.863 74.756-94.984 77.1 100.7 104.656 100.26 34.887-101.581 60.685-102.9 78.421 79.153 94.105 94.984"/><path fill="none" d="M418.425 165.394c14.512 13.632 60.537 85.897 87.068 81.793s44.855-104.365 72.119-106.418c27.263-2.052 67.132 92.344 91.464 94.103s34.153-85.015 54.528-83.549 42.51 92.638 67.721 92.344 58.924-87.656 83.549-94.105c24.625-6.45 53.502 46.175 64.202 55.41"/><path stroke="#cc4125" stroke-linecap="butt" stroke-linejoin="round" stroke-width="24" d="M418.425 165.394c14.512 13.632 60.537 85.897 87.068 81.793s44.855-104.365 72.119-106.418c27.263-2.052 67.132 92.344 91.464 94.103s34.153-85.015 54.528-83.549 42.51 92.638 67.721 92.344 58.924-87.656 83.549-94.105c24.625-6.45 53.502 46.175 64.202 55.41"/><path fill="none" d="M423.703 253.341c11.727 10.554 44.706 76.662 70.357 63.323 25.652-13.338 51.597-143.5 83.552-143.354 31.954.146 75.195 145.26 108.175 144.233s56.286-149.218 89.706-150.39c33.42-1.173 83.113 130.455 110.817 143.354s46.172-54.967 55.407-65.96"/><path stroke="#dd7e6b" stroke-linecap="butt" stroke-linejoin="round" stroke-width="24" d="M423.703 253.341c11.727 10.554 44.706 76.662 70.357 63.323 25.652-13.338 51.597-143.5 83.552-143.354 31.954.146 75.195 145.26 108.175 144.233s56.286-149.218 89.706-150.39c33.42-1.173 83.113 130.455 110.817 143.354s46.172-54.967 55.407-65.96"/><path fill="none" d="M421.99 309.437c.293-1.759-8.795 6.596 1.758-10.554s32.54-94.252 61.562-92.346c29.023 1.905 82.233 105.685 112.575 103.78s38.55-115.067 69.478-115.213 84.87 110.522 116.091 114.333c31.222 3.811 47.347-93.812 71.24-91.467s60.096 87.948 72.115 105.538"/><path stroke="#e6b8af" stroke-linecap="butt" stroke-linejoin="round" stroke-width="24" d="M421.99 309.437c.293-1.759-8.795 6.596 1.758-10.554s32.54-94.252 61.562-92.346c29.023 1.905 82.233 105.685 112.575 103.78s38.55-115.067 69.478-115.213 84.87 110.522 116.091 114.333c31.222 3.811 47.347-93.812 71.24-91.467s60.096 87.948 72.115 105.538"/><path fill="none" d="M418.425 318.423c4.544 2.345 17.884 22.719 27.265 14.07 9.381-8.648 14.217-66.4 29.021-65.96s42.216 69.48 59.806 68.6c17.59-.878 28.582-74.022 45.732-73.876s41.338 75.05 57.168 74.756c15.831-.293 20.08-76.221 37.817-76.514 17.735-.293 51.301 73.143 68.598 74.756s18.178-65.082 35.181-65.082c17.004 0 49.69 63.616 66.84 65.082s21.253-56.729 36.058-56.29 43.974 49.106 52.769 58.927"/><path stroke="#cc4125" stroke-linecap="butt" stroke-linejoin="round" stroke-width="24" d="M418.425 318.423c4.544 2.345 17.884 22.719 27.265 14.07 9.381-8.648 14.217-66.4 29.021-65.96s42.216 69.48 59.806 68.6c17.59-.878 28.582-74.022 45.732-73.876s41.338 75.05 57.168 74.756c15.831-.293 20.08-76.221 37.817-76.514 17.735-.293 51.301 73.143 68.598 74.756s18.178-65.082 35.181-65.082c17.004 0 49.69 63.616 66.84 65.082s21.253-56.729 36.058-56.29 43.974 49.106 52.769 58.927"/><path fill="none" d="M423.703 379.108c2.052-.734-7.916 9.233 12.312-4.4 20.228-13.631 73.29-77.393 109.055-77.393s73.144 76.807 105.538 77.394c32.395.586 55.554-73.877 88.827-73.877 33.274 0 77.1 74.61 110.814 73.877s76.222-65.228 91.467-78.273"/><path stroke="#a61c00" stroke-linecap="butt" stroke-linejoin="round" stroke-width="24" d="M423.703 379.108c2.052-.734-7.916 9.233 12.312-4.4 20.228-13.631 73.29-77.393 109.055-77.393s73.144 76.807 105.538 77.394c32.395.586 55.554-73.877 88.827-73.877 33.274 0 77.1 74.61 110.814 73.877s76.222-65.228 91.467-78.273"/><path fill="none" d="M414.908 124.058c4.544 5.717 17.588 35.619 27.263 34.3 9.674-1.32 16.123-43.096 30.782-42.216s40.018 47.493 57.168 47.493 22.426-49.545 45.732-47.493 68.014 60.392 94.105 59.806 44.119-61.564 62.44-63.323c18.323-1.759 26.68 54.235 47.494 52.769 20.815-1.466 51.303-60.685 77.394-61.564 26.091-.88 65.96 46.905 79.152 56.286"/><path stroke="#b4a7d6" stroke-linecap="butt" stroke-linejoin="round" stroke-width="8" d="M414.908 124.058c4.544 5.717 17.588 35.619 27.263 34.3 9.674-1.32 16.123-43.096 30.782-42.216s40.018 47.493 57.168 47.493 22.426-49.545 45.732-47.493 68.014 60.392 94.105 59.806 44.119-61.564 62.44-63.323c18.323-1.759 26.68 54.235 47.494 52.769 20.815-1.466 51.303-60.685 77.394-61.564 26.091-.88 65.96 46.905 79.152 56.286"/><path fill="none" d="M408.75 203.209C444.664 184.74 561.928 94.007 624.224 92.395s106.564 98.943 158.307 101.142 126.792-73.292 152.15-87.95"/><path stroke="#8e7cc3" stroke-linecap="butt" stroke-linejoin="round" stroke-width="8" d="M408.75 203.209C444.664 184.74 561.928 94.007 624.224 92.395s106.564 98.943 158.307 101.142 126.792-73.292 152.15-87.95"/><path fill="none" d="M417.546 341.287c8.502 7.33 34.594 87.508 51.01 43.974 16.417-43.534 30.048-305.911 47.491-305.178s39.872 309.43 57.168 309.577c17.297.147 27.703-308.258 46.612-308.698 18.908-.44 49.544 306.644 66.84 306.058s22.425-310.015 36.937-309.575 36.499 308.258 50.13 312.215c13.633 3.958 17.297-289.056 31.662-288.47s40.75 294.04 54.528 291.987c13.779-2.052 14.366-303.713 28.144-304.299 13.779-.586 45.44 250.652 54.528 300.782"/><path stroke="#8e7cc3" stroke-linecap="butt" stroke-linejoin="round" stroke-width="4" d="M417.546 341.287c8.502 7.33 34.594 87.508 51.01 43.974 16.417-43.534 30.048-305.911 47.491-305.178s39.872 309.43 57.168 309.577c17.297.147 27.703-308.258 46.612-308.698 18.908-.44 49.544 306.644 66.84 306.058s22.425-310.015 36.937-309.575 36.499 308.258 50.13 312.215c13.633 3.958 17.297-289.056 31.662-288.47s40.75 294.04 54.528 291.987c13.779-2.052 14.366-303.713 28.144-304.299 13.779-.586 45.44 250.652 54.528 300.782"/><path fill="none" d="M410.951 236.63c18.323 24.625 76.955 147.167 109.935 147.753 32.98.587 56.58-145.7 87.947-144.233 31.368 1.465 69.772 152.442 100.26 153.028 30.489.587 50.425-149.218 82.672-149.511S877.367 376.762 902.58 391.42s33.714-49.838 40.456-59.806"/><path stroke="#dd7e6b" stroke-linecap="butt" stroke-linejoin="round" stroke-width="24" d="M410.951 236.63c18.323 24.625 76.955 147.167 109.935 147.753 32.98.587 56.58-145.7 87.947-144.233 31.368 1.465 69.772 152.442 100.26 153.028 30.489.587 50.425-149.218 82.672-149.511S877.367 376.762 902.58 391.42s33.714-49.838 40.456-59.806"/><path fill="none" d="M418.425 339.53c30.928 8.795 136.172 51.01 185.57 52.77 49.397 1.758 73.438-43.095 110.816-42.216 37.378.88 74.755 46.465 113.451 47.49 38.697 1.027 98.942-34.444 118.73-41.333"/><path stroke="#cc4125" stroke-linecap="butt" stroke-linejoin="round" stroke-width="24" d="M418.425 339.53c30.928 8.795 136.172 51.01 185.57 52.77 49.397 1.758 73.438-43.095 110.816-42.216 37.378.88 74.755 46.465 113.451 47.49 38.697 1.027 98.942-34.444 118.73-41.333"/><path fill="none" d="M446.483 347.598c0-16.064 13.022-29.086 29.087-29.086a29.087 29.087 0 0 1 29.086 29.086c0 16.065-13.022 29.087-29.086 29.087-16.065 0-29.087-13.022-29.087-29.087"/><path stroke="#00b886" stroke-linecap="butt" stroke-linejoin="round" stroke-width="4" d="M446.483 347.598c0-16.064 13.022-29.086 29.087-29.086a29.087 29.087 0 0 1 29.086 29.086c0 16.065-13.022 29.087-29.086 29.087-16.065 0-29.087-13.022-29.087-29.087z"/><path fill="none" d="M473.037 147.753c0-14.333 11.62-25.952 25.952-25.952a25.953 25.953 0 0 1 25.953 25.952c0 14.334-11.62 25.953-25.953 25.953s-25.952-11.62-25.952-25.953"/><path stroke="#00b886" stroke-linecap="butt" stroke-linejoin="round" stroke-width="4" d="M473.037 147.753c0-14.333 11.62-25.952 25.952-25.952a25.953 25.953 0 0 1 25.953 25.952c0 14.334-11.62 25.953-25.953 25.953s-25.952-11.62-25.952-25.953z"/><path fill="none" d="M480.953 307.803c0-16.064 13.022-29.086 29.086-29.086a29.087 29.087 0 0 1 29.087 29.086c0 16.064-13.023 29.087-29.087 29.087s-29.086-13.023-29.086-29.087"/><path stroke="#00b886" stroke-linecap="butt" stroke-linejoin="round" stroke-width="4" d="M480.953 307.803c0-16.064 13.022-29.086 29.086-29.086a29.087 29.087 0 0 1 29.087 29.086c0 16.064-13.023 29.087-29.087 29.087s-29.086-13.023-29.086-29.087z"/><path fill="none" d="M513.661 216.593c0-16.064 13.023-29.086 29.087-29.086a29.087 29.087 0 0 1 29.087 29.086c0 16.064-13.023 29.087-29.087 29.087s-29.087-13.023-29.087-29.087"/><path stroke="#00b886" stroke-linecap="butt" stroke-linejoin="round" stroke-width="4" d="M513.661 216.593c0-16.064 13.023-29.086 29.087-29.086a29.087 29.087 0 0 1 29.087 29.086c0 16.064-13.023 29.087-29.087 29.087s-29.087-13.023-29.087-29.087z"/><path fill="none" d="M756.567 245.178c0-16.064 13.022-29.086 29.087-29.086a29.087 29.087 0 0 1 29.086 29.086c0 16.065-13.022 29.087-29.086 29.087-16.065 0-29.087-13.022-29.087-29.087"/><path stroke="#00b886" stroke-linecap="butt" stroke-linejoin="round" stroke-width="4" d="M756.567 245.178c0-16.064 13.022-29.086 29.087-29.086a29.087 29.087 0 0 1 29.086 29.086c0 16.065-13.022 29.087-29.086 29.087-16.065 0-29.087-13.022-29.087-29.087z"/><path fill="none" d="M871.231 132.806c0-16.064 13.022-29.087 29.087-29.087a29.087 29.087 0 0 1 29.086 29.087c0 16.064-13.022 29.086-29.086 29.086-16.065 0-29.087-13.022-29.087-29.086"/><path stroke="#00b886" stroke-linecap="butt" stroke-linejoin="round" stroke-width="4" d="M871.231 132.806c0-16.064 13.022-29.087 29.087-29.087a29.087 29.087 0 0 1 29.086 29.087c0 16.064-13.022 29.086-29.086 29.086-16.065 0-29.087-13.022-29.087-29.086z"/><path fill="none" d="M891.457 296.01c0-16.065 13.022-29.087 29.086-29.087a29.087 29.087 0 0 1 29.087 29.086c0 16.064-13.023 29.087-29.087 29.087s-29.086-13.023-29.086-29.087"/><path stroke="#00b886" stroke-linecap="butt" stroke-linejoin="round" stroke-width="4" d="M891.457 296.01c0-16.065 13.022-29.087 29.086-29.087a29.087 29.087 0 0 1 29.087 29.086c0 16.064-13.023 29.087-29.087 29.087s-29.086-13.023-29.086-29.087z"/><path fill="none" d="M653.623 353.186c0-16.064 13.023-29.086 29.087-29.086a29.087 29.087 0 0 1 29.087 29.086c0 16.064-13.023 29.087-29.087 29.087s-29.087-13.023-29.087-29.087"/><path stroke="#00b886" stroke-linecap="butt" stroke-linejoin="round" stroke-width="4" d="M653.623 353.186c0-16.064 13.023-29.086 29.087-29.086a29.087 29.087 0 0 1 29.087 29.086c0 16.064-13.023 29.087-29.087 29.087s-29.087-13.023-29.087-29.087z"/><path fill="none" d="M722.945 316.234c0-16.065 13.022-29.087 29.087-29.087a29.087 29.087 0 0 1 29.086 29.087c0 16.064-13.022 29.086-29.086 29.086-16.065 0-29.087-13.022-29.087-29.086"/><path stroke="#00b886" stroke-linecap="butt" stroke-linejoin="round" stroke-width="4" d="M722.945 316.234c0-16.065 13.022-29.087 29.087-29.087a29.087 29.087 0 0 1 29.086 29.087c0 16.064-13.022 29.086-29.086 29.086-16.065 0-29.087-13.022-29.087-29.086z"/><path fill="none" d="M563.93 260.399c0-16.064 13.022-29.087 29.086-29.087a29.087 29.087 0 0 1 29.086 29.087c0 16.064-13.022 29.087-29.086 29.087s-29.087-13.023-29.087-29.087"/><path stroke="#00b886" stroke-linecap="butt" stroke-linejoin="round" stroke-width="4" d="M563.93 260.399c0-16.064 13.022-29.087 29.086-29.087a29.087 29.087 0 0 1 29.086 29.087c0 16.064-13.022 29.087-29.086 29.087s-29.087-13.023-29.087-29.087z"/><path fill="none" d="M409.63 209.367c15.391 10.261 59.366 59.66 92.346 61.565s69.04-50.425 105.538-50.131c36.499.293 77.686 51.743 113.452 51.89s68.454-52.477 101.142-51.011c32.687 1.466 73.727 51.304 94.981 59.806s27.117-7.33 32.54-8.796"/><path stroke="#8e7cc3" stroke-linecap="butt" stroke-linejoin="round" stroke-width="8" d="M409.63 209.367c15.391 10.261 59.366 59.66 92.346 61.565s69.04-50.425 105.538-50.131c36.499.293 77.686 51.743 113.452 51.89s68.454-52.477 101.142-51.011c32.687 1.466 73.727 51.304 94.981 59.806s27.117-7.33 32.54-8.796"/><path fill="none" d="M614.231 158.42c0-16.064 13.022-29.087 29.087-29.087a29.087 29.087 0 0 1 29.086 29.087c0 16.064-13.022 29.087-29.086 29.087-16.065 0-29.087-13.023-29.087-29.087"/><path stroke="#00b886" stroke-linecap="butt" stroke-linejoin="round" stroke-width="4" d="M614.231 158.42c0-16.064 13.022-29.087 29.087-29.087a29.087 29.087 0 0 1 29.086 29.087c0 16.064-13.022 29.087-29.086 29.087-16.065 0-29.087-13.023-29.087-29.087z"/><path fill="none" d="M684.756 142.866c0-16.064 13.022-29.086 29.087-29.086a29.087 29.087 0 0 1 29.086 29.086c0 16.064-13.022 29.087-29.086 29.087-16.065 0-29.087-13.023-29.087-29.087"/><path stroke="#00b886" stroke-linecap="butt" stroke-linejoin="round" stroke-width="4" d="M684.756 142.866c0-16.064 13.022-29.086 29.087-29.086a29.087 29.087 0 0 1 29.086 29.086c0 16.064-13.022 29.087-29.086 29.087-16.065 0-29.087-13.023-29.087-29.087z"/><path fill="none" d="M787.824 149.99c0-16.065 13.023-29.087 29.087-29.087a29.087 29.087 0 0 1 29.086 29.086c0 16.065-13.022 29.087-29.086 29.087s-29.087-13.022-29.087-29.087"/><path stroke="#00b886" stroke-linecap="butt" stroke-linejoin="round" stroke-width="4" d="M787.824 149.99c0-16.065 13.023-29.087 29.087-29.087a29.087 29.087 0 0 1 29.086 29.086c0 16.065-13.022 29.087-29.086 29.087s-29.087-13.022-29.087-29.087z"/><path fill="none" d="M799.428 223.631c0-16.064 13.022-29.086 29.086-29.086a29.087 29.087 0 0 1 29.087 29.086c0 16.064-13.022 29.087-29.087 29.087s-29.086-13.023-29.086-29.087"/><path stroke="#00b886" stroke-linecap="butt" stroke-linejoin="round" stroke-width="4" d="M799.428 223.631c0-16.064 13.022-29.086 29.086-29.086a29.087 29.087 0 0 1 29.087 29.086c0 16.064-13.022 29.087-29.087 29.087s-29.086-13.023-29.086-29.087z"/><path fill="none" d="M622.102 227.753c0-16.064 13.023-29.086 29.087-29.086a29.087 29.087 0 0 1 29.087 29.086c0 16.064-13.023 29.087-29.087 29.087s-29.087-13.023-29.087-29.087"/><path stroke="#00b886" stroke-linecap="butt" stroke-linejoin="round" stroke-width="4" d="M622.102 227.753c0-16.064 13.023-29.086 29.087-29.086a29.087 29.087 0 0 1 29.087 29.086c0 16.064-13.023 29.087-29.087 29.087s-29.087-13.023-29.087-29.087z"/><path fill="none" d="M672.404 274.231c0-16.064 13.023-29.087 29.087-29.087a29.087 29.087 0 0 1 29.086 29.087c0 16.064-13.022 29.087-29.086 29.087s-29.087-13.023-29.087-29.087"/><path stroke="#00b886" stroke-linecap="butt" stroke-linejoin="round" stroke-width="4" d="M672.404 274.231c0-16.064 13.023-29.087 29.087-29.087a29.087 29.087 0 0 1 29.086 29.087c0 16.064-13.022 29.087-29.086 29.087s-29.087-13.023-29.087-29.087z"/><path fill="none" d="M35.05 410.769h338.236v51.906H35.05z"/><path fill="#fff" d="M97.463 426.012q1.25 0 2.343.719 1.094.719 1.766 1.953.672 1.219.672 2.719t-.672 2.719-1.766 1.953-2.343.734H93.04l.25-.437v4.968q0 .625-.39 1.047-.376.422-1 .422-.61 0-1-.422-.376-.422-.376-1.047v-13.875q0-.61.422-1.031.422-.422 1.047-.422zm0 8.063q.453 0 .89-.375.438-.391.72-1 .28-.625.28-1.297 0-.688-.28-1.281-.282-.61-.72-.985-.437-.375-.89-.375h-4.469l.297-.422v6.11l-.266-.375zm19.513 2.328q0 1.969-.875 3.469t-2.36 2.343q-1.468.828-3.296.828t-3.297-.828q-1.469-.843-2.36-2.343-.875-1.5-.875-3.47 0-1.968.875-3.468.891-1.5 2.36-2.344 1.469-.86 3.297-.86t3.297.86q1.484.844 2.359 2.344t.875 3.469m-2.875 0q0-1.219-.5-2.125-.484-.906-1.313-1.406-.828-.5-1.843-.5-1 0-1.828.5t-1.329 1.406q-.484.906-.484 2.125 0 1.203.484 2.11.5.89 1.329 1.39.828.5 1.828.5 1.015 0 1.843-.5t1.313-1.39q.5-.907.5-2.11m5.538-6.188h5.688q.578 0 .953.39.39.376.39.954 0 .547-.39.922-.375.375-.953.375h-5.688q-.578 0-.968-.39-.375-.391-.375-.954t.375-.922q.39-.375.968-.375m2.563-3q.625 0 1.015.422.407.406.407 1.031v10.688q0 .328.125.547.14.219.36.312.233.094.5.094.28 0 .515-.11.25-.109.562-.109.344 0 .61.313.28.312.28.875 0 .672-.734 1.11-.734.421-1.562.421-.516 0-1.125-.078-.61-.094-1.156-.406-.532-.328-.89-1-.36-.672-.36-1.86v-10.797q0-.625.406-1.03.422-.423 1.047-.423m13.04 15.828q-2.047 0-3.547-.843-1.5-.86-2.313-2.313-.797-1.469-.797-3.312 0-2.172.875-3.688.891-1.531 2.297-2.344 1.422-.812 3-.812 1.235 0 2.313.5 1.093.5 1.937 1.39.844.876 1.328 2.032.5 1.14.5 2.437-.03.578-.468.938-.422.36-1 .36h-9.172l-.719-2.407h8.812l-.53.484v-.64q-.048-.703-.5-1.25-.438-.563-1.095-.875-.656-.328-1.406-.328-.719 0-1.344.187-.625.188-1.078.656-.453.453-.718 1.219-.266.766-.266 1.938 0 1.296.531 2.203.547.89 1.39 1.359.86.469 1.829.469.89 0 1.406-.14.531-.141.86-.345t.578-.343q.437-.22.828-.22.515 0 .86.36.359.36.359.844 0 .64-.672 1.172-.625.531-1.75.922-1.125.39-2.328.39m14.972-13.312q1.781 0 2.703.75.922.734 1.266 1.969.36 1.234.36 2.75v6.14q0 .625-.423 1.047-.406.422-1.031.422-.61 0-1.031-.422-.406-.422-.406-1.047v-6.14q0-.797-.204-1.422-.203-.64-.734-1.016-.516-.39-1.5-.39-.969 0-1.625.39-.656.375-1.016 1.016-.343.625-.343 1.422v6.14q0 .625-.407 1.047t-1.03.422q-.626 0-1.032-.422t-.406-1.047v-9.906q0-.625.406-1.047t1.031-.422 1.031.422.407 1.047v1.031l-.36-.078q.219-.406.625-.875t.953-.875q.563-.406 1.25-.656.704-.25 1.516-.25m7.585.484h5.688q.578 0 .953.39.39.376.39.954 0 .547-.39.922-.375.375-.953.375h-5.688q-.578 0-.969-.39-.375-.391-.375-.954t.375-.922q.391-.375.97-.375m2.563-3q.625 0 1.015.422.407.406.407 1.031v10.688q0 .328.125.547.14.219.359.312.234.094.5.094.281 0 .516-.11.25-.109.562-.109.344 0 .61.313.28.312.28.875 0 .672-.734 1.11-.734.421-1.562.421-.516 0-1.125-.078-.61-.094-1.156-.406-.532-.328-.891-1-.36-.672-.36-1.86v-10.797q0-.625.407-1.03.422-.423 1.047-.423m9.816 14.125q0 .625-.407 1.047t-1.03.422q-.626 0-1.032-.422t-.406-1.047v-9.906q0-.625.406-1.047t1.031-.422 1.031.422.407 1.047zm-1.453-12.937q-.813 0-1.157-.25-.328-.266-.328-.938v-.468q0-.688.36-.938.375-.25 1.156-.25.828 0 1.156.266.344.25.344.922v.468q0 .688-.36.938-.359.25-1.171.25m14.93 1.328q.624 0 1.03.406t.407 1.063v10.14q0 .625-.407 1.047t-1.03.422q-.626 0-1.048-.422-.406-.422-.406-1.047v-1.172l.531.22q0 .312-.343.765-.329.437-.907.875-.562.422-1.343.719-.782.296-1.704.296-1.656 0-3-.843-1.343-.86-2.125-2.36-.78-1.5-.78-3.437 0-1.969.78-3.469.782-1.5 2.094-2.344 1.328-.86 2.938-.86 1.03 0 1.89.313.875.313 1.5.797.64.469.985.969.359.484.359.828l-.875.313v-1.75q0-.625.406-1.047.422-.422 1.047-.422m-4.86 10.672q1.062 0 1.844-.516.796-.531 1.234-1.437.453-.922.453-2.047 0-1.156-.453-2.063-.438-.922-1.234-1.437-.782-.531-1.844-.531-1.031 0-1.828.53-.782.516-1.235 1.438-.437.907-.437 2.063 0 1.125.437 2.047.453.906 1.235 1.437.797.516 1.828.516m12.54.937q0 .625-.421 1.047-.422.422-1.047.422-.61 0-1.016-.422t-.406-1.047v-14.828q0-.625.422-1.047t1.047-.422 1.015.422q.407.422.407 1.047zm15.529 5.844q-.375 0-.657-.203-1.828-1.219-3.093-2.844-1.25-1.61-1.907-3.531-.64-1.922-.64-4.016 0-2.078.64-4 .657-1.922 1.907-3.547 1.265-1.625 3.093-2.843.282-.188.657-.188.562 0 .875.438.312.422.312.812 0 .547-.5.953-1.36 1.078-2.281 2.422-.906 1.328-1.36 2.844-.437 1.5-.437 3.11t.422 3.156q.422 1.53 1.328 2.859t2.328 2.36q.5.359.5.968 0 .422-.344.828-.343.422-.843.422m8.818-17.453q1.375 0 2.39.297 1.031.281 1.594.797.562.515.562 1.234 0 .484-.296.906-.282.407-.829.407-.39 0-.64-.094-.25-.11-.453-.281-.188-.172-.453-.313-.235-.14-.735-.219-.484-.093-.719-.093-1.234 0-2.093.53-.844.516-1.297 1.423-.453.906-.453 2.078 0 1.156.468 2.062.47.89 1.297 1.422.828.516 1.907.516.593 0 1.015-.063.438-.078.735-.218.328-.188.593-.407.266-.218.797-.218.625 0 .953.406.344.39.344.969 0 .593-.672 1.093-.672.485-1.765.782-1.094.296-2.36.296-1.906 0-3.297-.875-1.39-.875-2.156-2.375-.75-1.515-.75-3.39 0-1.969.797-3.469.812-1.5 2.234-2.344 1.438-.86 3.282-.86m19.23 6.672q0 1.969-.875 3.469t-2.36 2.343q-1.469.828-3.297.828t-3.297-.828q-1.468-.843-2.359-2.343-.875-1.5-.875-3.47 0-1.968.875-3.468.89-1.5 2.36-2.344 1.468-.86 3.296-.86t3.297.86q1.485.844 2.36 2.344t.875 3.469m-2.875 0q0-1.219-.5-2.125-.485-.906-1.313-1.406t-1.844-.5q-1 0-1.828.5t-1.328 1.406q-.484.906-.484 2.125 0 1.203.484 2.11.5.89 1.328 1.39t1.828.5q1.016 0 1.844-.5t1.313-1.39q.5-.907.5-2.11m8.522 4.937q0 .625-.421 1.047-.422.422-1.047.422-.61 0-1.016-.422t-.406-1.047v-14.828q0-.625.422-1.047t1.047-.422 1.015.422q.406.422.406 1.047zm15.568-4.937q0 1.969-.875 3.469t-2.359 2.343q-1.469.828-3.297.828t-3.297-.828q-1.468-.843-2.359-2.343-.875-1.5-.875-3.47 0-1.968.875-3.468.89-1.5 2.36-2.344 1.468-.86 3.296-.86t3.297.86q1.484.844 2.36 2.344.874 1.5.874 3.469m-2.875 0q0-1.219-.5-2.125-.484-.906-1.312-1.406t-1.844-.5q-1 0-1.828.5t-1.328 1.406q-.484.906-.484 2.125 0 1.203.484 2.11.5.89 1.328 1.39t1.828.5q1.016 0 1.844-.5t1.312-1.39q.5-.907.5-2.11m6.836 6.406q-.625 0-1.031-.422-.407-.422-.407-1.047v-9.906q0-.625.407-1.047t1.03-.422 1.032.422.406 1.047v2.25l-.172-1.61q.266-.562.688-1 .422-.452.953-.75.531-.312 1.125-.452t1.203-.141q.719 0 1.203.406.5.406.5.953 0 .797-.406 1.157-.406.343-.89.343-.454 0-.829-.172t-.86-.171q-.421 0-.874.203-.438.203-.813.64-.375.438-.609 1.078-.219.625-.219 1.485v5.687q0 .625-.406 1.047t-1.031.422m12.103-1.469q0 .625-.422 1.047-.421.422-1.046.422-.61 0-1.016-.422t-.406-1.047v-14.828q0-.625.422-1.047.421-.422 1.046-.422t1.016.422q.406.422.406 1.047zm9.162 1.703q-2.047 0-3.547-.843-1.5-.86-2.312-2.313-.797-1.469-.797-3.312 0-2.172.875-3.688.89-1.531 2.297-2.344 1.422-.812 3-.812 1.234 0 2.312.5 1.094.5 1.938 1.39.843.876 1.328 2.032.5 1.14.5 2.437-.031.578-.469.938-.422.36-1 .36h-9.172l-.719-2.407h8.813l-.531.484v-.64q-.047-.703-.5-1.25-.438-.563-1.094-.875-.656-.328-1.406-.328-.719 0-1.344.187-.625.188-1.078.656-.453.453-.719 1.219t-.266 1.938q0 1.296.532 2.203.547.89 1.39 1.359.86.469 1.828.469.891 0 1.407-.14.531-.141.86-.345.327-.203.577-.343.438-.22.828-.22.516 0 .86.36.36.36.36.844 0 .64-.673 1.172-.625.531-1.75.922-1.125.39-2.328.39m7.363-2.218q-.234-.344-.219-.875.032-.532.625-.907.391-.25.813-.203.437.032.844.438.703.703 1.468 1.094.766.375 1.922.375.36-.032.782-.11.437-.078.765-.375.328-.312.328-.937 0-.532-.359-.828-.36-.313-.953-.532-.594-.218-1.313-.406-.734-.219-1.515-.484-.782-.266-1.438-.688-.64-.422-1.047-1.11-.406-.702-.406-1.75 0-1.202.672-2.046t1.734-1.297 2.25-.453q.735 0 1.547.187.828.172 1.563.579.75.39 1.25 1.03.265.36.312.876.047.5-.453.906-.36.281-.844.25t-.78-.328q-.423-.531-1.11-.844-.672-.312-1.563-.312-.36 0-.781.093-.422.079-.734.36-.313.265-.313.875 0 .547.36.875.359.328.968.531.625.203 1.313.39.718.188 1.468.454.75.265 1.36.703.625.422 1.015 1.11.391.687.391 1.75 0 1.218-.734 2.093-.719.86-1.797 1.297t-2.203.437q-1.422 0-2.844-.484-1.406-.5-2.344-1.734m11.568 0q-.234-.344-.219-.875.032-.532.625-.907.391-.25.813-.203.437.032.844.438.703.703 1.468 1.094.766.375 1.922.375.36-.032.782-.11.437-.078.765-.375.328-.312.328-.937 0-.532-.36-.828-.358-.313-.952-.532-.594-.218-1.313-.406-.734-.219-1.515-.484-.782-.266-1.438-.688-.64-.422-1.047-1.11-.406-.702-.406-1.75 0-1.202.672-2.046t1.734-1.297 2.25-.453q.735 0 1.547.187.828.172 1.563.579.75.39 1.25 1.03.265.36.312.876.047.5-.453.906-.36.281-.844.25t-.78-.328q-.423-.531-1.11-.844-.672-.312-1.563-.312-.36 0-.781.093-.422.079-.734.36-.313.265-.313.875 0 .547.36.875.359.328.968.531.625.203 1.313.39.718.188 1.468.454.75.265 1.36.703.625.422 1.015 1.11.391.687.391 1.75 0 1.218-.734 2.093-.72.86-1.797 1.297-1.078.437-2.203.437-1.422 0-2.844-.484-1.406-.5-2.344-1.734m12.318 6.359q-.578 0-.89-.437-.313-.438-.313-.813 0-.578.5-.969 1.39-1.078 2.297-2.406.906-1.328 1.344-2.844.437-1.515.437-3.125t-.422-3.14q-.406-1.532-1.312-2.875-.906-1.344-2.344-2.36-.5-.36-.5-.953 0-.437.344-.844.36-.406.86-.406.359 0 .64.188 1.86 1.218 3.094 2.843 1.25 1.625 1.89 3.547.656 1.922.656 4 0 2.094-.656 4.016-.64 1.922-1.89 3.531-1.235 1.625-3.094 2.844-.281.203-.64.203M157.838 471.843q-2.047 0-3.547-.843-1.5-.86-2.313-2.313-.797-1.469-.797-3.312 0-2.172.875-3.688.89-1.531 2.297-2.344 1.422-.812 3-.812 1.235 0 2.313.5 1.093.5 1.937 1.39.844.876 1.328 2.032.5 1.14.5 2.437-.031.578-.468.938-.422.36-1 .36h-9.172l-.72-2.407h8.813l-.53.484v-.64q-.048-.703-.5-1.25-.438-.563-1.095-.875-.656-.328-1.406-.328-.719 0-1.344.187-.625.188-1.078.656-.453.453-.718 1.219-.266.766-.266 1.938 0 1.296.531 2.203.547.89 1.39 1.359.86.469 1.829.469.89 0 1.406-.14.531-.141.86-.345t.578-.343q.437-.22.828-.22.515 0 .86.36.359.36.359.844 0 .64-.672 1.172-.625.531-1.75.922-1.125.39-2.328.39m8.378-13.078q.688 0 1.172.61l8.016 9.953q.312.39.312.86 0 .609-.453 1.046-.453.422-1.016.422-.687 0-1.171-.625l-8.016-9.953q-.313-.39-.313-.875 0-.625.438-1.031.453-.407 1.031-.407m.016 12.875q-.469 0-.938-.375t-.468-.906q0-.484.359-.906l3.672-4.485 1.437 2.391-2.906 3.672q-.453.61-1.156.61m8-12.875q.578 0 .969.407.39.39.39.89 0 .25-.078.485-.062.234-.25.453l-3.625 4.422-1.516-2.094 2.954-3.906q.484-.657 1.156-.657m6.11 11.375q0 .625-.407 1.047t-1.03.422q-.626 0-1.032-.422t-.406-1.047v-9.906q0-.625.406-1.047t1.031-.422 1.031.422.407 1.047zm-1.453-12.937q-.813 0-1.157-.25-.328-.266-.328-.938v-.468q0-.688.36-.938.375-.25 1.156-.25.828 0 1.156.266.344.25.344.922v.468q0 .688-.36.938-.359.25-1.171.25m3.664 12.422q-.235-.344-.22-.875.032-.532.626-.907.39-.25.812-.203.438.032.844.438.703.703 1.469 1.094.765.375 1.922.375.36-.032.78-.11.438-.078.767-.375.328-.312.328-.937 0-.532-.36-.828-.36-.313-.953-.532-.594-.218-1.312-.406-.735-.219-1.516-.484-.781-.266-1.437-.688-.641-.422-1.047-1.11-.407-.702-.407-1.75 0-1.202.672-2.046t1.735-1.297 2.25-.453q.734 0 1.547.187.828.172 1.562.579.75.39 1.25 1.03.266.36.313.876.046.5-.454.906-.359.281-.843.25-.485-.031-.782-.328-.421-.531-1.109-.844-.672-.312-1.562-.312-.36 0-.782.093-.422.079-.734.36-.313.265-.313.875 0 .547.36.875t.969.531q.625.203 1.312.39.719.188 1.469.454.75.265 1.36.703.624.422 1.015 1.11.39.687.39 1.75 0 1.218-.734 2.093-.719.86-1.797 1.297t-2.203.437q-1.422 0-2.844-.484-1.406-.5-2.343-1.734m12.458-10.61h5.688q.578 0 .953.39.39.376.39.954 0 .547-.39.922-.375.375-.953.375h-5.688q-.578 0-.969-.39-.375-.391-.375-.954t.375-.922q.391-.375.97-.375m2.563-3q.625 0 1.015.422.407.406.407 1.031v10.688q0 .328.125.547.14.219.359.312.234.094.5.094.281 0 .516-.11.25-.109.562-.109.344 0 .61.313.28.312.28.875 0 .672-.734 1.11-.734.421-1.562.421-.516 0-1.125-.078-.61-.094-1.156-.406-.532-.328-.891-1-.36-.672-.36-1.86v-10.797q0-.625.407-1.03.422-.423 1.047-.423m13.04 15.828q-2.048 0-3.548-.843-1.5-.86-2.312-2.313-.797-1.469-.797-3.312 0-2.172.875-3.688.89-1.531 2.297-2.344 1.422-.812 3-.812 1.234 0 2.312.5 1.094.5 1.938 1.39.844.876 1.328 2.032.5 1.14.5 2.437-.031.578-.469.938-.422.36-1 .36h-9.172l-.718-2.407h8.812l-.531.484v-.64q-.047-.703-.5-1.25-.438-.563-1.094-.875-.656-.328-1.406-.328-.719 0-1.344.187-.625.188-1.078.656-.453.453-.719 1.219t-.265 1.938q0 1.296.531 2.203.547.89 1.39 1.359.86.469 1.829.469.89 0 1.406-.14.531-.141.86-.345.327-.203.577-.343.438-.22.829-.22.515 0 .859.36.36.36.36.844 0 .64-.673 1.172-.625.531-1.75.922-1.125.39-2.328.39m14.972-13.312q1.781 0 2.703.75.922.734 1.266 1.969.359 1.234.359 2.75v6.14q0 .625-.422 1.047-.406.422-1.031.422-.61 0-1.031-.422-.407-.422-.407-1.047V464q0-.797-.203-1.422-.203-.64-.734-1.016-.516-.39-1.5-.39-.969 0-1.625.39-.656.375-1.016 1.016-.344.625-.344 1.422v6.14q0 .625-.406 1.047t-1.031.422-1.031-.422-.407-1.047v-9.906q0-.625.407-1.047t1.03-.422q.626 0 1.032.422t.406 1.047v1.031l-.359-.078q.219-.406.625-.875t.953-.875q.563-.406 1.25-.656.703-.25 1.516-.25m13.148 0q1.375 0 2.39.297 1.031.281 1.594.797.562.515.562 1.234 0 .484-.296.906-.282.407-.829.407-.39 0-.64-.094-.25-.11-.453-.281-.188-.172-.453-.313-.235-.14-.735-.219-.484-.093-.719-.093-1.234 0-2.093.53-.844.516-1.297 1.423-.453.906-.453 2.078 0 1.156.468 2.062.47.89 1.297 1.422.828.516 1.907.516.593 0 1.015-.063.438-.078.735-.218.328-.188.593-.407.266-.218.797-.218.625 0 .953.406.344.39.344.969 0 .593-.672 1.093-.672.485-1.765.782-1.094.296-2.36.296-1.906 0-3.297-.875-1.39-.875-2.156-2.375-.75-1.515-.75-3.39 0-1.969.797-3.469.812-1.5 2.234-2.344 1.438-.86 3.282-.86m12.823 13.312q-2.047 0-3.547-.843-1.5-.86-2.312-2.313-.797-1.469-.797-3.312 0-2.172.875-3.688.89-1.531 2.297-2.344 1.422-.812 3-.812 1.234 0 2.312.5 1.094.5 1.938 1.39.844.876 1.328 2.032.5 1.14.5 2.437-.031.578-.469.938-.422.36-1 .36h-9.172l-.718-2.407h8.812l-.531.484v-.64q-.047-.703-.5-1.25-.438-.563-1.094-.875-.656-.328-1.406-.328-.719 0-1.344.187-.625.188-1.078.656-.453.453-.719 1.219t-.265 1.938q0 1.296.53 2.203.548.89 1.391 1.359.86.469 1.829.469.89 0 1.406-.14.531-.141.86-.345.327-.203.577-.343.438-.22.828-.22.516 0 .86.36.36.36.36.844 0 .64-.673 1.172-.625.531-1.75.922-1.125.39-2.328.39"/><path fill="none" d="M589.538 418.72h223.905v51.905H589.538z"/><path fill="#fff" d="m615.824 437.728-5.188 12.187q-.172.454-.515.72-.344.25-.75.25-.657 0-.97-.36t-.312-.89q0-.22.078-.454l5.97-14.36q.202-.484.593-.734.39-.265.86-.218.421 0 .796.25t.547.703l5.89 14.062q.126.313.126.578 0 .657-.422 1.047-.422.375-.922.375-.438 0-.781-.265-.344-.266-.532-.72l-5.171-12.03zm-4.438 9.266 1.313-2.766h6.484l.453 2.766zm19.07-9.313q1.376 0 2.391.297 1.031.281 1.594.797.562.515.562 1.234 0 .485-.296.906-.282.407-.829.407-.39 0-.64-.094-.25-.11-.453-.281-.188-.172-.453-.313-.235-.14-.735-.219-.484-.093-.719-.093-1.234 0-2.093.53-.844.517-1.297 1.423t-.453 2.078q0 1.156.468 2.062.47.891 1.297 1.422.828.516 1.907.516.593 0 1.015-.063.438-.078.735-.218.328-.188.593-.407.266-.218.797-.218.625 0 .953.406.344.39.344.969 0 .593-.672 1.093-.672.485-1.765.782-1.094.297-2.36.297-1.906 0-3.297-.875-1.39-.875-2.156-2.375-.75-1.516-.75-3.391 0-1.969.797-3.469.812-1.5 2.234-2.344 1.438-.859 3.282-.859m6.918.484h5.687q.579 0 .954.391.39.375.39.953 0 .547-.39.922-.375.375-.954.375h-5.687q-.578 0-.969-.39-.375-.391-.375-.954t.375-.922q.39-.375.969-.375m2.562-3q.625 0 1.016.422.406.407.406 1.032v10.687q0 .328.125.547.141.219.36.312.234.094.5.094.281 0 .515-.11.25-.109.563-.109.344 0 .61.313.28.312.28.875 0 .672-.734 1.11-.734.421-1.562.421-.516 0-1.125-.078-.61-.094-1.157-.406-.53-.328-.89-1t-.36-1.86V436.62q0-.625.407-1.032.421-.422 1.046-.422m16.645 2.75q.625 0 1.03.422.407.422.407 1.047v6.094q0 2.547-1.422 4.031-1.406 1.485-4.078 1.485-2.656 0-4.062-1.485-1.407-1.484-1.407-4.031v-6.094q0-.625.407-1.047t1.03-.422 1.032.422.406 1.047v6.094q0 1.469.641 2.172.656.703 1.953.703 1.328 0 1.969-.703.64-.703.64-2.172v-6.094q0-.625.407-1.047.422-.422 1.047-.422m15.072-.234q.625 0 1.031.406t.406 1.063v10.14q0 .625-.406 1.047t-1.031.422-1.047-.422q-.406-.422-.406-1.047v-1.171l.531.218q0 .313-.344.766-.328.437-.906.875-.562.422-1.344.719-.781.297-1.703.297-1.656 0-3-.844-1.344-.86-2.125-2.36t-.781-3.437q0-1.969.781-3.469t2.094-2.344q1.328-.859 2.937-.859 1.032 0 1.891.313.875.312 1.5.796.64.47.984.97.36.484.36.827l-.875.313v-1.75q0-.625.406-1.047.422-.422 1.047-.422m-4.86 10.672q1.063 0 1.844-.516.797-.531 1.235-1.437.453-.922.453-2.047 0-1.156-.453-2.063-.438-.921-1.235-1.437-.781-.531-1.843-.531-1.032 0-1.829.53-.78.517-1.234 1.438-.437.907-.437 2.063 0 1.125.437 2.047.453.906 1.234 1.437.797.516 1.829.516m12.541.937q0 .625-.422 1.047-.421.422-1.046.422-.61 0-1.016-.422t-.406-1.047v-14.828q0-.625.422-1.047.421-.421 1.046-.421t1.016.421q.406.422.406 1.047zm15.528 5.844q-.375 0-.656-.203-1.828-1.219-3.094-2.844-1.25-1.61-1.906-3.531-.64-1.922-.64-4.016 0-2.078.64-4 .656-1.921 1.906-3.546 1.266-1.625 3.094-2.844.281-.188.656-.188.563 0 .875.438.313.422.313.812 0 .547-.5.953-1.36 1.079-2.281 2.422-.907 1.328-1.36 2.844-.437 1.5-.437 3.11t.422 3.156q.421 1.53 1.328 2.859.906 1.328 2.328 2.36.5.359.5.968 0 .422-.344.828-.344.422-.844.422m8.818-17.453q1.375 0 2.391.297 1.031.281 1.594.797.562.515.562 1.234 0 .485-.297.906-.28.407-.828.407-.39 0-.64-.094-.25-.11-.454-.281-.187-.172-.453-.313-.234-.14-.734-.219-.484-.093-.719-.093-1.234 0-2.094.53-.843.517-1.296 1.423t-.454 2.078q0 1.156.47 2.062.468.891 1.296 1.422.828.516 1.906.516.594 0 1.016-.063.437-.078.734-.218.328-.188.594-.407t.797-.218q.625 0 .953.406.344.39.344.969 0 .593-.672 1.093-.672.485-1.766.782t-2.359.297q-1.906 0-3.297-.875-1.39-.875-2.156-2.375-.75-1.516-.75-3.391 0-1.969.797-3.469.812-1.5 2.234-2.344 1.438-.859 3.281-.859m19.23 6.672q0 1.969-.875 3.469t-2.36 2.343q-1.468.829-3.296.829t-3.297-.829q-1.469-.843-2.36-2.343-.874-1.5-.874-3.47 0-1.968.875-3.468.89-1.5 2.36-2.344 1.468-.859 3.296-.859t3.297.86q1.484.843 2.36 2.343.874 1.5.874 3.469m-2.875 0q0-1.219-.5-2.125-.484-.906-1.312-1.406t-1.844-.5q-1 0-1.828.5t-1.328 1.406q-.485.906-.485 2.125 0 1.203.485 2.11.5.89 1.328 1.39t1.828.5q1.016 0 1.844-.5t1.312-1.39q.5-.907.5-2.11m8.523 4.937q0 .625-.422 1.047t-1.047.422q-.609 0-1.015-.422t-.406-1.047v-14.828q0-.625.421-1.047.422-.421 1.047-.421t1.016.421q.406.422.406 1.047zm15.568-4.937q0 1.969-.875 3.469t-2.36 2.343q-1.468.829-3.296.829t-3.297-.829q-1.469-.843-2.36-2.343-.874-1.5-.874-3.47 0-1.968.875-3.468.89-1.5 2.36-2.344 1.468-.859 3.296-.859t3.297.86q1.484.843 2.36 2.343.874 1.5.874 3.469m-2.875 0q0-1.219-.5-2.125-.484-.906-1.312-1.406t-1.844-.5q-1 0-1.828.5t-1.328 1.406q-.485.906-.485 2.125 0 1.203.485 2.11.5.89 1.328 1.39t1.828.5q1.016 0 1.844-.5t1.312-1.39q.5-.907.5-2.11m6.836 6.406q-.625 0-1.032-.422-.406-.422-.406-1.047v-9.906q0-.625.406-1.047t1.032-.422 1.03.422.407 1.047v2.25l-.172-1.61q.266-.562.688-1 .422-.452.953-.75.531-.312 1.125-.452t1.203-.141q.719 0 1.203.406.5.407.5.953 0 .797-.406 1.157-.406.343-.89.343-.454 0-.829-.171t-.86-.172q-.421 0-.874.203-.438.203-.813.64-.375.438-.61 1.079-.218.625-.218 1.484v5.687q0 .625-.406 1.047t-1.031.422m15.572-17.765q.531 0 1.031.156.516.14.844.469.344.312.344.843 0 .594-.36.953-.344.344-.797.344-.218 0-.656-.11-.422-.109-.828-.109-.61 0-.938.266-.312.266-.437.625-.125.344-.125.594v12.265q0 .625-.406 1.047t-1.032.422-1.03-.422-.407-1.047v-12.234q0-1.703 1.203-2.875 1.203-1.187 3.594-1.187m.265 5.171q.579 0 .954.375.39.36.39.938t-.39.953q-.375.375-.954.375h-6.359q-.578 0-.969-.375-.375-.375-.375-.953t.375-.938q.39-.375.969-.375zm13.16-.25q.625 0 1.032.422.406.422.406 1.047v6.094q0 2.547-1.422 4.031-1.406 1.485-4.078 1.485-2.656 0-4.063-1.485-1.406-1.484-1.406-4.031v-6.094q0-.625.406-1.047t1.032-.422 1.03.422.407 1.047v6.094q0 1.469.64 2.172.657.703 1.954.703 1.328 0 1.969-.703.64-.703.64-2.172v-6.094q0-.625.406-1.047.422-.422 1.047-.422m7.682 11.375q0 .625-.422 1.047t-1.047.422q-.61 0-1.015-.422-.407-.422-.407-1.047v-14.828q0-.625.422-1.047t1.047-.421 1.016.421q.406.422.406 1.047zm3.355 5.844q-.578 0-.89-.437-.313-.438-.313-.813 0-.578.5-.969 1.39-1.078 2.297-2.406.906-1.328 1.343-2.844.438-1.515.438-3.125 0-1.609-.422-3.14-.406-1.531-1.312-2.875-.907-1.344-2.344-2.36-.5-.359-.5-.953 0-.437.344-.843.359-.407.859-.407.36 0 .64.188 1.86 1.219 3.094 2.844 1.25 1.625 1.89 3.546.657 1.922.657 4 0 2.094-.656 4.016-.64 1.922-1.89 3.531-1.235 1.625-3.094 2.844-.282.203-.641.203M655.16 479.794q-2.047 0-3.547-.844-1.5-.86-2.312-2.313-.797-1.468-.797-3.312 0-2.172.875-3.688.89-1.531 2.297-2.343 1.422-.813 3-.813 1.234 0 2.312.5 1.094.5 1.938 1.39.844.876 1.328 2.032.5 1.14.5 2.437-.031.579-.469.938-.422.36-1 .36h-9.172l-.718-2.407h8.812l-.531.484v-.64q-.047-.703-.5-1.25-.438-.563-1.094-.875-.656-.328-1.406-.328-.719 0-1.344.187-.625.188-1.078.656-.453.454-.719 1.22-.265.765-.265 1.937 0 1.297.53 2.203.548.89 1.392 1.36.859.468 1.828.468.89 0 1.406-.14.531-.141.86-.344.327-.204.577-.344.438-.219.829-.219.515 0 .859.36.36.359.36.843 0 .64-.673 1.172-.625.531-1.75.922-1.125.39-2.328.39m8.379-13.079q.687 0 1.172.61l8.015 9.953q.313.39.313.86 0 .609-.453 1.046-.453.422-1.016.422-.687 0-1.172-.625l-8.015-9.953q-.313-.39-.313-.875 0-.625.438-1.031.453-.407 1.031-.407m.016 12.875q-.47 0-.938-.375-.469-.375-.469-.906 0-.484.36-.906l3.672-4.484 1.437 2.39-2.906 3.672q-.453.61-1.156.61m8-12.875q.578 0 .968.407.391.39.391.89 0 .25-.078.485-.063.234-.25.453l-3.625 4.422-1.516-2.094 2.953-3.906q.485-.657 1.157-.657m6.11 11.375q0 .625-.407 1.047t-1.031.422-1.031-.422-.407-1.047v-9.906q0-.625.407-1.047t1.031-.422 1.031.422.406 1.047zm-1.454-12.937q-.812 0-1.156-.25-.328-.266-.328-.938v-.468q0-.688.36-.938.374-.25 1.156-.25.828 0 1.156.266.344.25.344.922v.468q0 .688-.36.938t-1.172.25m3.664 12.422q-.234-.344-.218-.875.03-.531.625-.906.39-.25.812-.204.438.032.844.438.703.703 1.469 1.094.765.375 1.921.375.36-.032.782-.11.437-.078.765-.375.328-.312.328-.937 0-.531-.359-.828-.36-.313-.953-.532-.594-.218-1.313-.406-.734-.219-1.515-.484-.781-.266-1.438-.688-.64-.422-1.047-1.11-.406-.702-.406-1.75 0-1.202.672-2.046t1.734-1.297 2.25-.453q.735 0 1.547.188.828.171 1.563.578.75.39 1.25 1.03.265.36.312.876.047.5-.453.906-.36.281-.844.25t-.78-.328q-.423-.531-1.11-.844-.672-.312-1.563-.312-.359 0-.78.094-.423.078-.735.359-.313.266-.313.875 0 .547.36.875.359.328.968.531.625.203 1.313.39.719.188 1.469.454t1.359.703q.625.422 1.016 1.11.39.687.39 1.75 0 1.218-.734 2.093-.719.86-1.797 1.297-1.078.438-2.203.438-1.422 0-2.844-.485-1.406-.5-2.344-1.734m12.459-10.61h5.687q.579 0 .954.391.39.375.39.953 0 .547-.39.922-.375.375-.954.375h-5.687q-.578 0-.969-.39-.375-.391-.375-.954t.375-.922q.39-.375.969-.375m2.562-3q.625 0 1.016.422.406.407.406 1.032v10.687q0 .328.125.547.14.219.36.312.234.094.5.094.28 0 .515-.11.25-.109.563-.109.344 0 .61.313.28.312.28.875 0 .672-.734 1.11-.734.421-1.562.421-.516 0-1.125-.078-.61-.094-1.157-.406-.531-.328-.89-1-.36-.672-.36-1.86V465.42q0-.625.407-1.032.421-.422 1.046-.422m13.04 15.829q-2.047 0-3.547-.844-1.5-.86-2.312-2.313-.797-1.468-.797-3.312 0-2.172.875-3.688.89-1.531 2.297-2.343 1.422-.813 3-.813 1.234 0 2.312.5 1.094.5 1.938 1.39.843.876 1.328 2.032.5 1.14.5 2.437-.031.579-.469.938-.422.36-1 .36h-9.172l-.719-2.407h8.813l-.531.484v-.64q-.047-.703-.5-1.25-.438-.563-1.094-.875-.656-.328-1.406-.328-.719 0-1.344.187-.625.188-1.078.656-.453.454-.719 1.22-.266.765-.266 1.937 0 1.297.532 2.203.547.89 1.39 1.36.86.468 1.828.468.891 0 1.407-.14.531-.141.86-.344.327-.204.577-.344.438-.219.828-.219.516 0 .86.36.36.359.36.843 0 .64-.673 1.172-.625.531-1.75.922-1.125.39-2.328.39m14.973-13.313q1.78 0 2.703.75.922.734 1.265 1.969.36 1.234.36 2.75v6.14q0 .625-.422 1.047-.406.422-1.031.422-.61 0-1.032-.422-.406-.422-.406-1.047v-6.14q0-.797-.203-1.422-.203-.64-.734-1.016-.516-.39-1.5-.39-.97 0-1.625.39-.657.375-1.016 1.016-.344.625-.344 1.422v6.14q0 .625-.406 1.047t-1.031.422-1.032-.422-.406-1.047v-9.906q0-.625.406-1.047t1.032-.422 1.031.422.406 1.047v1.031l-.36-.078q.22-.406.626-.875t.953-.875q.562-.406 1.25-.656.703-.25 1.516-.25m13.147 0q1.375 0 2.39.297 1.032.281 1.595.797.562.515.562 1.234 0 .485-.297.906-.281.407-.828.407-.39 0-.64-.094-.25-.11-.454-.281-.187-.172-.453-.313-.234-.14-.734-.219-.484-.093-.719-.093-1.234 0-2.094.53-.843.517-1.296 1.423t-.454 2.078q0 1.156.47 2.062.468.891 1.296 1.422.828.516 1.906.516.594 0 1.016-.063.437-.078.734-.218.328-.188.594-.407t.797-.218q.625 0 .953.406.344.39.344.969 0 .593-.672 1.093-.672.485-1.766.782t-2.36.297q-1.905 0-3.296-.875t-2.156-2.375q-.75-1.516-.75-3.391 0-1.969.797-3.469.812-1.5 2.234-2.344 1.438-.859 3.281-.859m12.824 13.313q-2.047 0-3.547-.844-1.5-.86-2.312-2.313-.797-1.468-.797-3.312 0-2.172.875-3.688.89-1.531 2.297-2.343 1.422-.813 3-.813 1.234 0 2.312.5 1.094.5 1.938 1.39.843.876 1.328 2.032.5 1.14.5 2.437-.031.579-.469.938-.422.36-1 .36h-9.172l-.719-2.407h8.813l-.531.484v-.64q-.047-.703-.5-1.25-.438-.563-1.094-.875-.656-.328-1.406-.328-.72 0-1.344.187-.625.188-1.078.656-.453.454-.719 1.22-.266.765-.266 1.937 0 1.297.532 2.203.547.89 1.39 1.36.86.468 1.828.468.891 0 1.407-.14.53-.141.859-.344.328-.204.578-.344.438-.219.828-.219.516 0 .86.36.359.359.359.843 0 .64-.672 1.172-.625.531-1.75.922-1.125.39-2.328.39"/><path fill="#000" fill-rule="evenodd" d="M424.583 413.722h22l24.612-37.255 8.388 37.255h77v58.173h-132v-48.478z"/><path stroke="#fff" stroke-linecap="butt" stroke-linejoin="round" stroke-width="4" d="M424.583 413.722h22l24.612-37.255 8.388 37.255h77v58.173h-132v-48.478z"/><path fill="#fff" d="M457.518 437.588q0 .484-.36.812t-.812.328q-.532 0-.844-.328-.313-.328-.313-.812v-10.781q0-.485.329-.813.343-.328.859-.328.453 0 .797.328t.344.813zm10.786-12.672q.485 0 .797.328.313.313.313.813v11.53q0 .485-.313.813-.312.328-.797.328-.484 0-.812-.328-.313-.328-.313-.812v-.906l.407.156q0 .25-.266.594-.25.343-.703.687-.453.328-1.063.563-.593.234-1.312.234-1.281 0-2.328-.656-1.047-.672-1.657-1.828-.593-1.172-.593-2.688 0-1.531.593-2.687.61-1.172 1.641-1.829 1.031-.671 2.281-.671.797 0 1.469.25.672.234 1.156.609.5.375.766.766.281.375.281.64l-.672.235v-5q0-.485.313-.813.328-.328.812-.328m-3.781 11.953q.828 0 1.438-.406.625-.422.968-1.125.344-.719.344-1.594 0-.89-.344-1.594-.343-.718-.968-1.125-.61-.406-1.438-.406-.797 0-1.422.406-.61.407-.953 1.125-.344.703-.344 1.594 0 .875.344 1.594.344.703.953 1.125.625.406 1.422.406m12.013 2.047q-1.578 0-2.75-.656-1.156-.672-1.781-1.813-.625-1.14-.625-2.562 0-1.688.672-2.875.687-1.188 1.78-1.813 1.11-.64 2.345-.64.953 0 1.797.39.843.39 1.5 1.078.656.688 1.03 1.578.391.891.391 1.907-.015.437-.359.718-.328.282-.781.282h-7.125l-.563-1.86h6.844l-.406.375v-.515q-.047-.532-.39-.953-.345-.438-.86-.688-.5-.25-1.078-.25-.563 0-1.047.156-.485.14-.844.5-.36.344-.562.953-.204.594-.204 1.5 0 1 .422 1.704.422.703 1.078 1.078.672.359 1.407.359.703 0 1.109-.11.406-.124.656-.28t.453-.266q.344-.172.641-.172.406 0 .672.281.281.281.281.656 0 .5-.531.907-.484.422-1.36.734-.874.297-1.812.297m14.566-10.36q.485 0 .797.329.313.312.313.812v7.89q0 .485-.313.813-.312.328-.797.328-.484 0-.812-.328-.313-.328-.313-.812v-.906l.407.156q0 .25-.266.594-.25.343-.703.687-.453.328-1.063.563-.593.234-1.312.234-1.281 0-2.328-.656-1.047-.672-1.657-1.828-.593-1.172-.593-2.688 0-1.531.593-2.687.61-1.172 1.641-1.829 1.031-.671 2.281-.671.797 0 1.469.25.672.234 1.156.609.5.375.766.766.281.375.281.64l-.672.235v-1.36q0-.484.313-.812.328-.328.812-.328m-3.781 8.313q.828 0 1.438-.406.625-.422.968-1.125.344-.719.344-1.594 0-.89-.344-1.594-.343-.718-.968-1.125-.61-.406-1.438-.406-.797 0-1.422.406-.61.407-.953 1.125-.344.703-.344 1.594 0 .875.344 1.594.344.703.953 1.125.625.406 1.422.406m6.747.313q-.187-.266-.171-.672t.484-.703q.297-.188.625-.157.344.016.656.328.547.547 1.14.844.595.297 1.5.297.282-.016.61-.078.344-.063.594-.297t.25-.719q0-.406-.281-.64-.282-.25-.75-.422-.453-.172-1-.313-.578-.172-1.188-.375-.61-.218-1.11-.531-.5-.328-.827-.875-.313-.547-.313-1.36 0-.937.516-1.577.531-.657 1.36-1.016.827-.36 1.75-.36.577 0 1.202.141.64.14 1.219.453.578.313.969.813.203.281.234.672.047.39-.344.703-.28.234-.656.203-.375-.031-.61-.25-.327-.422-.859-.656-.53-.25-1.218-.25-.282 0-.61.078-.328.062-.578.281-.234.203-.234.672 0 .422.281.687.281.25.75.407.484.156 1.031.312.547.14 1.125.344t1.063.547q.5.328.797.86.297.53.297 1.359 0 .953-.563 1.625-.562.671-1.406 1.015-.828.344-1.703.344-1.11 0-2.22-.375-1.093-.39-1.812-1.36m24.466-3.438q0 1.531-.687 2.703-.672 1.156-1.828 1.813-1.14.656-2.547.656-1.422 0-2.578-.656-1.14-.657-1.828-1.813-.672-1.172-.672-2.703t.672-2.687q.687-1.172 1.828-1.829 1.156-.671 2.578-.671 1.406 0 2.547.671 1.156.657 1.828 1.829.687 1.156.687 2.687m-2.234 0q0-.953-.39-1.64-.376-.704-1.016-1.094t-1.422-.391q-.797 0-1.438.39-.64.391-1.03 1.094-.376.688-.376 1.641 0 .938.375 1.64.39.688 1.031 1.094.641.391 1.438.391.781 0 1.422-.39.64-.407 1.015-1.094.391-.703.391-1.641m5.313 4.984q-.484 0-.796-.328t-.313-.812v-7.703q0-.485.313-.813.312-.328.796-.328t.797.328q.328.328.328.813v1.75l-.125-1.25q.204-.438.516-.782.328-.359.734-.578.422-.234.891-.343.469-.125.938-.125.546 0 .921.328.391.312.391.734 0 .625-.312.89-.313.266-.688.266-.36 0-.656-.125-.281-.125-.656-.125-.329 0-.672.157-.344.156-.64.5-.282.328-.47.828-.172.484-.172 1.156v4.422q0 .484-.328.812-.312.328-.797.328M452.798 459.588q0 .484-.36.812t-.812.328q-.532 0-.844-.328-.313-.328-.313-.812v-10.781q0-.485.329-.813.343-.328.859-.328.453 0 .797.328t.344.813zm10.786-12.672q.485 0 .797.328.313.313.313.813v11.53q0 .485-.313.813-.312.328-.797.328-.484 0-.812-.328-.313-.328-.313-.812v-.906l.407.156q0 .25-.266.594-.25.343-.703.687-.453.328-1.063.563-.593.234-1.312.234-1.281 0-2.328-.656-1.047-.672-1.657-1.828-.593-1.172-.593-2.688 0-1.531.593-2.687.61-1.172 1.641-1.829 1.031-.671 2.281-.671.797 0 1.469.25.672.234 1.156.609.5.375.766.766.281.375.281.64l-.672.235v-5q0-.485.313-.813.328-.328.812-.328m-3.781 11.953q.828 0 1.438-.406.625-.422.968-1.125.344-.719.344-1.594 0-.89-.344-1.594-.343-.718-.968-1.125-.61-.406-1.438-.406-.797 0-1.422.406-.61.407-.953 1.125-.344.703-.344 1.594 0 .875.344 1.594.344.703.953 1.125.625.406 1.422.406m12.013 2.047q-1.578 0-2.75-.656-1.156-.672-1.781-1.813-.625-1.14-.625-2.562 0-1.688.672-2.875.687-1.188 1.78-1.813 1.11-.64 2.345-.64.953 0 1.797.39.843.39 1.5 1.078.656.688 1.03 1.578.391.891.391 1.907-.015.437-.359.718-.328.282-.781.282h-7.125l-.563-1.86h6.844l-.406.375v-.515q-.047-.532-.39-.953-.345-.438-.86-.688-.5-.25-1.078-.25-.563 0-1.047.156-.485.14-.844.5-.36.344-.562.953-.204.594-.204 1.5 0 1 .422 1.704.422.703 1.078 1.078.672.359 1.407.359.703 0 1.109-.11.406-.124.656-.28t.453-.266q.344-.172.641-.172.406 0 .672.281.281.281.281.656 0 .5-.531.907-.484.422-1.36.734-.874.297-1.812.297m11.648-10.36q1.375 0 2.094.579.718.578.984 1.547.281.953.281 2.14v4.766q0 .484-.328.812-.312.328-.797.328-.484 0-.797-.328-.312-.328-.312-.812v-4.766q0-.625-.172-1.11-.156-.5-.563-.796t-1.171-.297q-.75 0-1.266.297-.5.297-.781.797-.266.484-.266 1.11v4.765q0 .484-.328.812-.313.328-.797.328t-.797-.328-.312-.812v-7.703q0-.485.312-.813.313-.328.797-.328t.797.328q.328.328.328.813v.797l-.281-.047q.172-.313.484-.672.313-.375.735-.688.437-.328.968-.515.547-.203 1.188-.203m5.9.376h4.422q.438 0 .734.296.313.297.313.75 0 .422-.313.72-.296.28-.734.28h-4.422q-.453 0-.75-.296-.297-.297-.297-.735 0-.437.297-.719.297-.296.75-.296m2-2.329q.485 0 .781.329.313.328.313.812v8.297q0 .266.094.437.11.157.281.235.187.078.39.078.22 0 .407-.078.187-.094.437-.094t.47.25q.218.234.218.672 0 .516-.578.86-.563.327-1.219.327-.39 0-.875-.062-.469-.063-.89-.313-.407-.265-.688-.78-.281-.516-.281-1.438v-8.391q0-.484.312-.812.328-.329.828-.329m7.63 10.985q0 .484-.327.812-.313.328-.797.328t-.813-.328q-.312-.328-.312-.812v-7.703q0-.485.312-.813.328-.328.813-.328t.797.328q.328.328.328.813zm-1.14-10.047q-.64 0-.906-.203-.25-.219-.25-.735v-.359q0-.531.281-.719.297-.203.89-.203.657 0 .907.203.266.203.266.719v.36q0 .546-.282.75-.281.187-.906.187m3.543 1.39h4.422q.438 0 .735.297.312.297.312.75 0 .422-.312.72-.297.28-.735.28h-4.422q-.453 0-.75-.296-.296-.297-.296-.735 0-.437.296-.719.297-.296.75-.296m2-2.328q.485 0 .782.329.312.328.312.812v8.297q0 .266.094.437.11.157.281.235.188.078.39.078.22 0 .407-.078.188-.094.438-.094t.468.25q.22.234.22.672 0 .516-.579.86-.563.327-1.219.327-.39 0-.875-.062-.469-.063-.89-.313-.407-.265-.688-.78-.281-.516-.281-1.438v-8.391q0-.484.312-.812.328-.329.828-.329m7.63 10.985q0 .484-.327.812-.313.328-.797.328t-.813-.328q-.312-.328-.312-.812v-7.703q0-.485.312-.813.329-.328.813-.328t.797.328q.328.328.328.813zm-1.14-10.047q-.64 0-.906-.203-.25-.219-.25-.735v-.359q0-.531.281-.719.297-.203.89-.203.657 0 .907.203.266.203.266.719v.36q0 .546-.281.75-.282.187-.907.187m8.122 11.375q-1.578 0-2.75-.656-1.156-.672-1.781-1.813-.625-1.14-.625-2.562 0-1.688.672-2.875.687-1.188 1.78-1.813 1.11-.64 2.345-.64.953 0 1.796.39t1.5 1.078 1.032 1.578q.39.891.39 1.907-.015.437-.36.718-.327.282-.78.282h-7.125l-.563-1.86h6.844l-.406.375v-.515q-.047-.532-.391-.953-.344-.438-.86-.688-.5-.25-1.077-.25-.563 0-1.047.156-.485.14-.844.5-.36.344-.563.953-.203.594-.203 1.5 0 1 .422 1.704.422.703 1.078 1.078.672.359 1.407.359.703 0 1.109-.11.406-.124.656-.28t.453-.266q.344-.172.64-.172.407 0 .673.281.281.281.281.656 0 .5-.531.907-.485.422-1.36.734-.875.297-1.812.297m5.741-1.734q-.187-.266-.171-.672t.484-.703q.297-.188.625-.157.344.016.656.328.547.547 1.14.844.595.297 1.5.297.282-.016.61-.078.344-.063.594-.297t.25-.719q0-.406-.281-.64-.282-.25-.75-.422-.453-.172-1-.313-.578-.172-1.188-.375-.61-.218-1.11-.531-.5-.328-.827-.875-.313-.547-.313-1.36 0-.937.516-1.577.531-.657 1.36-1.016.827-.36 1.75-.36.577 0 1.202.141.641.14 1.22.453.577.313.968.813.203.281.234.672.047.39-.344.703-.28.234-.656.203-.375-.031-.61-.25-.327-.422-.859-.656-.53-.25-1.218-.25-.282 0-.61.078-.328.062-.578.281-.234.203-.234.672 0 .422.281.687.281.25.75.407.484.156 1.031.312.547.14 1.125.344t1.063.547q.5.328.797.86.297.53.297 1.359 0 .953-.563 1.625-.562.671-1.406 1.015-.828.344-1.703.344-1.11 0-2.219-.375-1.094-.39-1.813-1.36"/><path fill="#000" fill-rule="evenodd" d="M814.74 405.924h16.578l10.136-14.504 14.73 14.504h58.02v58.173H814.74V415.62z"/><path stroke="#dd7e6b" stroke-linecap="butt" stroke-linejoin="round" stroke-width="4" d="M814.74 405.924h16.578l10.136-14.504 14.73 14.504h58.02v58.173H814.74V415.62z"/><path fill="#f4cccc" d="M848.285 418.509q.484.234.562.765.079.516-.265.953-.25.329-.64.375-.376.032-.766-.156-.438-.203-.938-.312-.5-.11-1.031-.11-1.016 0-1.813.313-.781.312-1.343.906-.563.578-.86 1.39-.281.798-.281 1.766 0 1.14.328 1.985.328.828.906 1.39.578.563 1.36.844.78.266 1.703.266.5 0 1-.094t.969-.344q.39-.187.765-.125.39.047.656.39.375.47.266.97-.094.484-.562.703-.485.25-1 .406-.516.156-1.047.234-.516.094-1.047.094-1.344 0-2.547-.422-1.203-.437-2.156-1.265-.938-.844-1.485-2.11-.531-1.265-.531-2.922 0-1.437.484-2.64.5-1.22 1.407-2.094.906-.89 2.125-1.39 1.234-.5 2.703-.5.812 0 1.594.187.78.187 1.484.547m3.479 12.422q-.485 0-.797-.329-.313-.328-.313-.812v-7.703q0-.485.313-.813.312-.328.797-.328.484 0 .796.328.329.328.329.813v1.75l-.125-1.25q.203-.438.515-.781.328-.36.735-.579.421-.234.89-.343.469-.125.938-.125.547 0 .922.328.39.312.39.734 0 .625-.312.89-.313.266-.688.266-.36 0-.656-.125-.281-.125-.656-.125-.328 0-.672.157-.344.156-.64.5-.282.328-.47.828-.171.484-.171 1.156v4.422q0 .484-.329.812-.312.329-.796.329m14.393-9.985q.485 0 .797.328t.313.813v4.734q0 1.985-1.11 3.14-1.093 1.157-3.156 1.157-2.078 0-3.172-1.156-1.078-1.156-1.078-3.14v-4.735q0-.485.313-.813.312-.328.796-.328t.797.328q.328.328.328.813v4.734q0 1.14.5 1.703.5.547 1.516.547 1.031 0 1.531-.547.5-.562.5-1.703v-4.734q0-.485.313-.813.328-.328.812-.328m11.717-3.828q.485 0 .797.328.313.313.313.813v11.53q0 .485-.313.813-.312.329-.797.329-.484 0-.812-.329-.313-.328-.313-.812v-.906l.406.156q0 .25-.265.594-.25.343-.703.687-.453.328-1.063.563-.594.234-1.312.234-1.282 0-2.328-.656-1.047-.672-1.657-1.828-.593-1.172-.593-2.688 0-1.531.593-2.687.61-1.172 1.64-1.828 1.032-.672 2.282-.672.797 0 1.469.25.672.234 1.156.609.5.375.766.766.281.375.281.64l-.672.235v-5q0-.485.313-.813.328-.328.812-.328m-3.781 11.953q.828 0 1.437-.406.625-.422.97-1.125.343-.719.343-1.594 0-.89-.344-1.594-.344-.718-.969-1.125-.609-.406-1.437-.406-.797 0-1.422.406-.61.407-.953 1.125-.344.704-.344 1.594 0 .875.344 1.594.344.703.953 1.125.625.406 1.422.406m12.013 2.047q-1.578 0-2.75-.656-1.156-.672-1.781-1.813-.625-1.14-.625-2.562 0-1.688.672-2.875.687-1.188 1.78-1.813 1.11-.64 2.345-.64.953 0 1.796.39t1.5 1.078 1.032 1.579q.39.89.39 1.906-.015.437-.36.719-.327.28-.78.28H882.2l-.563-1.859h6.844l-.406.375v-.515q-.047-.531-.391-.953-.344-.438-.86-.688-.5-.25-1.077-.25-.563 0-1.047.156-.485.141-.844.5-.36.344-.563.954-.203.593-.203 1.5 0 1 .422 1.703t1.078 1.078q.672.36 1.407.36.703 0 1.109-.11.406-.125.656-.281t.453-.266q.344-.172.64-.172.407 0 .673.281.281.282.281.657 0 .5-.531.906-.485.422-1.36.734-.875.297-1.812.297M849.033 442.946q.437 0 .75.328.312.328.312.828 0 .141-.015.25-.016.094-.063.188l-2.844 7.687q-.14.375-.484.579-.328.187-.703.125-.625-.032-.938-.704l-1.86-5.328.485.032-1.734 5.296q-.313.672-.938.704-.359.062-.703-.125-.343-.204-.484-.579l-2.844-7.687q-.078-.203-.078-.438 0-.437.297-.796t.812-.36q.36 0 .641.172t.39.547l2.266 6.11-.468-.032 1.687-4.61q.313-.687 1.031-.687.407 0 .625.172t.344.516l1.703 4.609-.562.078 2.297-6.156q.218-.719 1.078-.719m11.09-.187q.484 0 .797.328.312.312.312.812v7.89q0 .485-.312.813-.313.329-.797.329t-.813-.329q-.312-.328-.312-.812v-.906l.406.156q0 .25-.266.594-.25.343-.703.687-.453.328-1.062.563-.594.234-1.313.234-1.28 0-2.328-.656-1.047-.672-1.656-1.828-.594-1.172-.594-2.688 0-1.531.594-2.687.61-1.172 1.64-1.828 1.032-.672 2.282-.672.797 0 1.469.25.671.234 1.156.609.5.375.765.766.282.375.282.64l-.672.235v-1.36q0-.484.312-.812.328-.328.813-.328m-3.781 8.312q.828 0 1.437-.406.625-.422.969-1.125.344-.719.344-1.594 0-.89-.344-1.594-.344-.718-.969-1.125-.61-.406-1.437-.406-.797 0-1.422.406-.61.407-.953 1.125-.344.704-.344 1.594 0 .875.344 1.594.343.703.953 1.125.625.406 1.422.406m7.539-8.125q.359 0 .656.188.297.172.453.53l2.734 6.267-.406.187 2.797-6.437q.312-.75.984-.72.47 0 .75.298.297.28.297.718 0 .125-.047.282l-.093.28-3.5 7.688q-.297.672-.954.704-.343.062-.671-.125-.329-.188-.5-.579l-3.47-7.687-.077-.234q-.047-.157-.047-.375 0-.329.297-.657t.797-.328m14.641 10.172q-1.578 0-2.75-.656-1.156-.672-1.781-1.813-.625-1.14-.625-2.562 0-1.688.672-2.875.687-1.188 1.781-1.813 1.11-.64 2.344-.64.953 0 1.797.39.843.39 1.5 1.078.656.688 1.03 1.579.391.89.391 1.906-.015.437-.359.719-.328.28-.781.28h-7.125l-.563-1.859h6.844l-.406.375v-.515q-.047-.531-.39-.953-.345-.438-.86-.688-.5-.25-1.078-.25-.563 0-1.047.156-.485.141-.844.5-.36.344-.562.954-.204.593-.204 1.5 0 1 .422 1.703t1.078 1.078q.672.36 1.407.36.703 0 1.11-.11.405-.125.655-.281t.453-.266q.344-.172.641-.172.406 0 .672.281.281.282.281.657 0 .5-.531.906-.484.422-1.36.734-.874.297-1.812.297m5.742-1.734q-.188-.266-.172-.672.015-.406.484-.703.297-.188.625-.157.344.016.656.329.547.546 1.141.843t1.5.297q.281-.015.61-.078.343-.062.593-.297t.25-.719q0-.406-.281-.64-.281-.25-.75-.422-.453-.172-1-.313-.578-.171-1.188-.375-.609-.218-1.109-.53-.5-.329-.828-.876-.313-.547-.313-1.36 0-.937.516-1.577.531-.657 1.36-1.016.827-.36 1.75-.36.577 0 1.202.141.641.14 1.22.453.577.313.968.813.203.281.234.672.047.39-.343.703-.282.234-.657.203t-.609-.25q-.328-.422-.86-.656-.53-.25-1.218-.25-.281 0-.61.078-.328.062-.578.281-.234.203-.234.672 0 .422.281.688.281.25.75.406.485.156 1.031.312.547.14 1.125.344.579.203 1.063.547.5.328.797.86.297.53.297 1.359 0 .953-.563 1.625t-1.406 1.015q-.828.344-1.703.344-1.11 0-2.219-.375-1.094-.39-1.812-1.36"/><path fill="#000" fill-rule="evenodd" d="M781.118 44.186h160.063V86.14h-93.37l-9.874 23.848-30.142-23.848h-26.677V68.66z"/><path stroke="#8e7cc3" stroke-linecap="butt" stroke-linejoin="round" stroke-width="4" d="M781.118 44.186h160.063V86.14h-93.37l-9.874 23.848-30.142-23.848h-26.677V68.66z"/><path fill="#d9d2e9" d="M807.342 72.27q-1.297 0-2.344-.328t-2-1.14q-.25-.22-.375-.47-.125-.265-.125-.53 0-.422.297-.75.313-.329.781-.329.36 0 .641.22.703.577 1.406.89.703.297 1.719.297.688 0 1.266-.22.578-.218.937-.577.36-.36.36-.828 0-.563-.344-.954-.328-.39-1.032-.656-.687-.281-1.75-.422-1-.156-1.765-.453-.766-.312-1.281-.781-.516-.484-.782-1.125-.25-.656-.25-1.453 0-1.219.625-2.063.625-.859 1.688-1.312t2.344-.453q1.218 0 2.25.375 1.047.36 1.687.922.547.421.547.984 0 .406-.328.75-.313.328-.735.328-.28 0-.5-.172-.296-.25-.812-.484-.5-.235-1.062-.39-.563-.157-1.047-.157-.797 0-1.344.203t-.828.563q-.282.343-.282.812 0 .563.329.922.328.36.937.578.61.219 1.469.39 1.125.204 1.969.485.859.281 1.406.719.562.437.844 1.094.28.656.28 1.609 0 1.219-.671 2.094-.672.875-1.766 1.343-1.093.47-2.359.47m14.169-10.172q.484 0 .797.328.312.329.312.813v4.734q0 1.985-1.109 3.141-1.094 1.156-3.156 1.156-2.078 0-3.172-1.156-1.078-1.156-1.078-3.14v-4.735q0-.484.312-.813.313-.328.797-.328t.797.328q.328.329.328.813v4.734q0 1.141.5 1.703.5.547 1.516.547 1.031 0 1.531-.547.5-.562.5-1.703V63.24q0-.484.313-.813.328-.328.812-.328m8.701-.187q1.313 0 2.344.672 1.031.656 1.64 1.812.61 1.156.61 2.688 0 1.531-.61 2.703-.609 1.156-1.624 1.828-1.016.656-2.282.656-.75 0-1.406-.234-.64-.25-1.14-.625-.485-.375-.766-.75-.266-.39-.266-.656l.578-.235v1.36q0 .484-.328.812-.312.328-.797.328-.484 0-.797-.312-.312-.328-.312-.828V59.41q0-.484.312-.812.313-.328.797-.328t.797.328q.328.328.328.813v4.75l-.312-.172q0-.25.25-.594.265-.344.703-.687.453-.344 1.047-.563.594-.234 1.234-.234m-.281 2.062q-.813 0-1.438.407-.609.406-.953 1.109t-.343 1.594q0 .875.343 1.593.344.72.953 1.141.625.406 1.438.406.828 0 1.437-.406.61-.422.954-1.14.343-.72.343-1.594 0-.89-.343-1.594-.344-.703-.954-1.11-.609-.406-1.437-.406m6.95-1.687h4.422q.438 0 .735.297.312.297.312.75 0 .422-.312.718-.297.282-.735.282h-4.422q-.453 0-.75-.297-.296-.297-.296-.735 0-.437.296-.718.297-.297.75-.297m2-2.328q.485 0 .782.328.312.328.312.812v8.297q0 .266.094.438.11.156.281.234.188.078.39.078.22 0 .407-.078.188-.094.438-.094t.468.25q.22.235.22.672 0 .516-.579.86-.563.328-1.219.328-.39 0-.875-.063-.469-.062-.89-.312-.407-.266-.688-.782-.281-.515-.281-1.437v-8.39q0-.485.312-.813.328-.328.828-.328m7.943 10.984q0 .484-.328.813t-.812.328q-.469 0-.781-.328-.313-.329-.313-.813V59.411q0-.485.313-.813.328-.328.812-.328t.797.328.312.813zm7.117 1.328q-1.579 0-2.75-.656-1.157-.672-1.782-1.813-.625-1.14-.625-2.562 0-1.688.672-2.875.688-1.188 1.781-1.813 1.11-.64 2.344-.64.953 0 1.797.39.844.391 1.5 1.079t1.031 1.578q.39.89.39 1.906-.015.437-.358.719-.329.281-.782.281h-7.125l-.562-1.86h6.844l-.407.376v-.516q-.047-.531-.39-.953-.344-.438-.86-.688-.5-.25-1.078-.25-.562 0-1.047.157-.484.14-.843.5-.36.343-.563.953-.203.593-.203 1.5 0 1 .422 1.703t1.078 1.078q.672.36 1.406.36.703 0 1.11-.11.406-.125.656-.281t.453-.266q.344-.172.64-.172.407 0 .672.281.282.282.282.657 0 .5-.532.906-.484.422-1.359.734-.875.297-1.812.297m23.027-10.172q.438 0 .75.328.313.329.313.829 0 .14-.016.25-.015.093-.062.187l-2.844 7.688q-.14.375-.484.578-.329.187-.704.125-.625-.032-.937-.703l-1.86-5.329.485.032-1.734 5.297q-.313.671-.938.703-.36.062-.703-.125-.344-.203-.484-.578l-2.844-7.688q-.078-.203-.078-.437 0-.438.297-.797.296-.36.812-.36.36 0 .64.172.282.172.391.547l2.266 6.11-.469-.032 1.688-4.61q.312-.687 1.031-.687.406 0 .625.172t.344.516l1.703 4.61-.563.077 2.297-6.156q.219-.719 1.078-.719m11.09-.187q.485 0 .797.328.313.312.313.812v7.891q0 .484-.313.813-.312.328-.796.328t-.813-.328q-.312-.329-.312-.813v-.906l.406.156q0 .25-.266.594-.25.344-.703.687-.453.328-1.062.563-.594.234-1.313.234-1.281 0-2.328-.656-1.047-.672-1.656-1.828-.594-1.172-.594-2.688 0-1.53.594-2.687.61-1.172 1.64-1.828 1.032-.672 2.282-.672.796 0 1.468.25.672.234 1.157.61.5.374.765.765.281.375.281.64l-.671.235v-1.36q0-.484.312-.812.328-.328.813-.328m-3.78 8.312q.827 0 1.437-.406.625-.422.969-1.125.343-.719.343-1.594 0-.89-.343-1.593-.344-.72-.97-1.125-.609-.407-1.437-.407-.797 0-1.422.407-.609.406-.953 1.125-.343.703-.343 1.593 0 .875.343 1.594.344.703.953 1.125.625.406 1.422.406m7.538-8.125q.36 0 .657.188.296.172.453.531l2.734 6.266-.406.187 2.797-6.437q.312-.75.984-.719.469 0 .75.297.297.281.297.719 0 .125-.047.28l-.094.282-3.5 7.688q-.297.671-.953.703-.344.062-.672-.125-.328-.188-.5-.578l-3.468-7.688-.079-.234q-.046-.157-.046-.375 0-.328.296-.657.297-.328.797-.328m14.642 10.172q-1.578 0-2.75-.656-1.156-.672-1.781-1.813-.625-1.14-.625-2.562 0-1.688.671-2.875.688-1.188 1.782-1.813 1.109-.64 2.343-.64.954 0 1.797.39.844.391 1.5 1.079.657.687 1.032 1.578.39.89.39 1.906-.015.437-.36.719-.327.281-.78.281h-7.125l-.563-1.86h6.844l-.406.376v-.516q-.047-.531-.391-.953-.344-.438-.86-.688-.5-.25-1.078-.25-.562 0-1.046.157-.485.14-.844.5-.36.343-.563.953-.203.593-.203 1.5 0 1 .422 1.703t1.078 1.078q.672.36 1.406.36.704 0 1.11-.11.406-.125.656-.281t.453-.266q.344-.172.64-.172.407 0 .673.281.28.282.28.657 0 .5-.53.906-.485.422-1.36.734-.875.297-1.812.297m5.741-1.734q-.187-.266-.172-.672t.485-.703q.297-.188.625-.156.344.015.656.328.547.547 1.14.843.594.297 1.5.297.282-.015.61-.078.344-.062.594-.297t.25-.718q0-.407-.281-.641-.282-.25-.75-.422-.454-.172-1-.312-.579-.172-1.188-.375-.61-.22-1.11-.532-.5-.328-.827-.875-.313-.547-.313-1.359 0-.938.516-1.578.53-.656 1.359-1.016.828-.36 1.75-.36.578 0 1.203.141.64.141 1.219.454.578.312.969.812.203.281.234.672.047.39-.344.703-.281.234-.656.203t-.61-.25q-.327-.422-.859-.656-.531-.25-1.218-.25-.282 0-.61.078-.328.063-.578.281-.234.203-.234.672 0 .422.28.688.282.25.75.406.485.156 1.032.312.547.141 1.125.344t1.063.547q.5.328.797.86.296.53.296 1.359 0 .953-.562 1.625t-1.406 1.015q-.828.344-1.703.344-1.11 0-2.22-.375-1.093-.39-1.812-1.36"/></g></svg>